{"glyphs":{"0":{"ha":2054,"x_min":28,"x_max":2026,"o":"m 2026 442 q 1964 267 2026 331 q 1790 203 1901 203 q 1617 267 1679 203 q 1554 442 1554 331 q 1617 617 1554 553 q 1790 681 1679 681 q 1964 616 1901 681 q 2026 442 2026 551 m 461 440 q 413 297 461 357 q 285 219 365 236 q 237 213 261 214 q 189 213 213 213 l 28 213 l 28 671 l 193 671 q 299 658 250 671 q 383 618 347 646 q 440 547 419 590 q 461 440 461 503 m 551 213 l 551 671 l 883 671 l 883 582 l 669 582 l 669 503 l 868 503 l 868 415 l 669 415 l 669 301 l 883 301 l 883 213 l 551 213 m 1346 213 l 1346 519 l 1261 319 l 1179 319 l 1093 519 l 1093 213 l 982 213 l 982 671 l 1119 671 l 1222 440 l 1326 671 l 1464 671 l 1464 213 l 1346 213 m 1790 289 q 1844 303 1822 289 q 1880 338 1867 317 q 1899 388 1893 360 q 1904 442 1904 415 q 1899 497 1904 469 q 1880 545 1893 524 q 1844 581 1867 567 q 1790 594 1822 594 q 1736 581 1758 594 q 1701 545 1714 567 q 1682 497 1688 524 q 1676 442 1676 469 q 1682 388 1676 415 q 1701 338 1688 360 q 1736 303 1714 317 q 1790 289 1758 289 m 339 443 q 327 510 339 483 q 294 554 315 538 q 243 578 274 571 q 175 585 213 585 l 146 585 l 146 299 l 175 299 q 295 329 251 299 q 339 443 339 360 z "},"1":{"ha":2054,"x_min":28,"x_max":2026,"o":"m 2026 442 q 1964 267 2026 331 q 1790 203 1901 203 q 1617 267 1679 203 q 1554 442 1554 331 q 1617 617 1554 553 q 1790 681 1679 681 q 1964 616 1901 681 q 2026 442 2026 551 m 461 440 q 413 297 461 357 q 285 219 365 236 q 237 213 261 214 q 189 213 213 213 l 28 213 l 28 671 l 193 671 q 299 658 250 671 q 383 618 347 646 q 440 547 419 590 q 461 440 461 503 m 551 213 l 551 671 l 883 671 l 883 582 l 669 582 l 669 503 l 868 503 l 868 415 l 669 415 l 669 301 l 883 301 l 883 213 l 551 213 m 1346 213 l 1346 519 l 1261 319 l 1179 319 l 1093 519 l 1093 213 l 982 213 l 982 671 l 1119 671 l 1222 440 l 1326 671 l 1464 671 l 1464 213 l 1346 213 m 1790 289 q 1844 303 1822 289 q 1880 338 1867 317 q 1899 388 1893 360 q 1904 442 1904 415 q 1899 497 1904 469 q 1880 545 1893 524 q 1844 581 1867 567 q 1790 594 1822 594 q 1736 581 1758 594 q 1701 545 1714 567 q 1682 497 1688 524 q 1676 442 1676 469 q 1682 388 1676 415 q 1701 338 1688 360 q 1736 303 1714 317 q 1790 289 1758 289 m 339 443 q 327 510 339 483 q 294 554 315 538 q 243 578 274 571 q 175 585 213 585 l 146 585 l 146 299 l 175 299 q 295 329 251 299 q 339 443 339 360 z "},"2":{"ha":2054,"x_min":28,"x_max":2026,"o":"m 2026 442 q 1964 267 2026 331 q 1790 203 1901 203 q 1617 267 1679 203 q 1554 442 1554 331 q 1617 617 1554 553 q 1790 681 1679 681 q 1964 616 1901 681 q 2026 442 2026 551 m 461 440 q 413 297 461 357 q 285 219 365 236 q 237 213 261 214 q 189 213 213 213 l 28 213 l 28 671 l 193 671 q 299 658 250 671 q 383 618 347 646 q 440 547 419 590 q 461 440 461 503 m 551 213 l 551 671 l 883 671 l 883 582 l 669 582 l 669 503 l 868 503 l 868 415 l 669 415 l 669 301 l 883 301 l 883 213 l 551 213 m 1346 213 l 1346 519 l 1261 319 l 1179 319 l 1093 519 l 1093 213 l 982 213 l 982 671 l 1119 671 l 1222 440 l 1326 671 l 1464 671 l 1464 213 l 1346 213 m 1790 289 q 1844 303 1822 289 q 1880 338 1867 317 q 1899 388 1893 360 q 1904 442 1904 415 q 1899 497 1904 469 q 1880 545 1893 524 q 1844 581 1867 567 q 1790 594 1822 594 q 1736 581 1758 594 q 1701 545 1714 567 q 1682 497 1688 524 q 1676 442 1676 469 q 1682 388 1676 415 q 1701 338 1688 360 q 1736 303 1714 317 q 1790 289 1758 289 m 339 443 q 327 510 339 483 q 294 554 315 538 q 243 578 274 571 q 175 585 213 585 l 146 585 l 146 299 l 175 299 q 295 329 251 299 q 339 443 339 360 z "},"3":{"ha":2054,"x_min":28,"x_max":2026,"o":"m 2026 442 q 1964 267 2026 331 q 1790 203 1901 203 q 1617 267 1679 203 q 1554 442 1554 331 q 1617 617 1554 553 q 1790 681 1679 681 q 1964 616 1901 681 q 2026 442 2026 551 m 461 440 q 413 297 461 357 q 285 219 365 236 q 237 213 261 214 q 189 213 213 213 l 28 213 l 28 671 l 193 671 q 299 658 250 671 q 383 618 347 646 q 440 547 419 590 q 461 440 461 503 m 551 213 l 551 671 l 883 671 l 883 582 l 669 582 l 669 503 l 868 503 l 868 415 l 669 415 l 669 301 l 883 301 l 883 213 l 551 213 m 1346 213 l 1346 519 l 1261 319 l 1179 319 l 1093 519 l 1093 213 l 982 213 l 982 671 l 1119 671 l 1222 440 l 1326 671 l 1464 671 l 1464 213 l 1346 213 m 1790 289 q 1844 303 1822 289 q 1880 338 1867 317 q 1899 388 1893 360 q 1904 442 1904 415 q 1899 497 1904 469 q 1880 545 1893 524 q 1844 581 1867 567 q 1790 594 1822 594 q 1736 581 1758 594 q 1701 545 1714 567 q 1682 497 1688 524 q 1676 442 1676 469 q 1682 388 1676 415 q 1701 338 1688 360 q 1736 303 1714 317 q 1790 289 1758 289 m 339 443 q 327 510 339 483 q 294 554 315 538 q 243 578 274 571 q 175 585 213 585 l 146 585 l 146 299 l 175 299 q 295 329 251 299 q 339 443 339 360 z "},"4":{"ha":2054,"x_min":28,"x_max":2026,"o":"m 2026 442 q 1964 267 2026 331 q 1790 203 1901 203 q 1617 267 1679 203 q 1554 442 1554 331 q 1617 617 1554 553 q 1790 681 1679 681 q 1964 616 1901 681 q 2026 442 2026 551 m 461 440 q 413 297 461 357 q 285 219 365 236 q 237 213 261 214 q 189 213 213 213 l 28 213 l 28 671 l 193 671 q 299 658 250 671 q 383 618 347 646 q 440 547 419 590 q 461 440 461 503 m 551 213 l 551 671 l 883 671 l 883 582 l 669 582 l 669 503 l 868 503 l 868 415 l 669 415 l 669 301 l 883 301 l 883 213 l 551 213 m 1346 213 l 1346 519 l 1261 319 l 1179 319 l 1093 519 l 1093 213 l 982 213 l 982 671 l 1119 671 l 1222 440 l 1326 671 l 1464 671 l 1464 213 l 1346 213 m 1790 289 q 1844 303 1822 289 q 1880 338 1867 317 q 1899 388 1893 360 q 1904 442 1904 415 q 1899 497 1904 469 q 1880 545 1893 524 q 1844 581 1867 567 q 1790 594 1822 594 q 1736 581 1758 594 q 1701 545 1714 567 q 1682 497 1688 524 q 1676 442 1676 469 q 1682 388 1676 415 q 1701 338 1688 360 q 1736 303 1714 317 q 1790 289 1758 289 m 339 443 q 327 510 339 483 q 294 554 315 538 q 243 578 274 571 q 175 585 213 585 l 146 585 l 146 299 l 175 299 q 295 329 251 299 q 339 443 339 360 z "},"5":{"ha":2054,"x_min":28,"x_max":2026,"o":"m 2026 442 q 1964 267 2026 331 q 1790 203 1901 203 q 1617 267 1679 203 q 1554 442 1554 331 q 1617 617 1554 553 q 1790 681 1679 681 q 1964 616 1901 681 q 2026 442 2026 551 m 461 440 q 413 297 461 357 q 285 219 365 236 q 237 213 261 214 q 189 213 213 213 l 28 213 l 28 671 l 193 671 q 299 658 250 671 q 383 618 347 646 q 440 547 419 590 q 461 440 461 503 m 551 213 l 551 671 l 883 671 l 883 582 l 669 582 l 669 503 l 868 503 l 868 415 l 669 415 l 669 301 l 883 301 l 883 213 l 551 213 m 1346 213 l 1346 519 l 1261 319 l 1179 319 l 1093 519 l 1093 213 l 982 213 l 982 671 l 1119 671 l 1222 440 l 1326 671 l 1464 671 l 1464 213 l 1346 213 m 1790 289 q 1844 303 1822 289 q 1880 338 1867 317 q 1899 388 1893 360 q 1904 442 1904 415 q 1899 497 1904 469 q 1880 545 1893 524 q 1844 581 1867 567 q 1790 594 1822 594 q 1736 581 1758 594 q 1701 545 1714 567 q 1682 497 1688 524 q 1676 442 1676 469 q 1682 388 1676 415 q 1701 338 1688 360 q 1736 303 1714 317 q 1790 289 1758 289 m 339 443 q 327 510 339 483 q 294 554 315 538 q 243 578 274 571 q 175 585 213 585 l 146 585 l 146 299 l 175 299 q 295 329 251 299 q 339 443 339 360 z "},"6":{"ha":2054,"x_min":28,"x_max":2026,"o":"m 2026 442 q 1964 267 2026 331 q 1790 203 1901 203 q 1617 267 1679 203 q 1554 442 1554 331 q 1617 617 1554 553 q 1790 681 1679 681 q 1964 616 1901 681 q 2026 442 2026 551 m 461 440 q 413 297 461 357 q 285 219 365 236 q 237 213 261 214 q 189 213 213 213 l 28 213 l 28 671 l 193 671 q 299 658 250 671 q 383 618 347 646 q 440 547 419 590 q 461 440 461 503 m 551 213 l 551 671 l 883 671 l 883 582 l 669 582 l 669 503 l 868 503 l 868 415 l 669 415 l 669 301 l 883 301 l 883 213 l 551 213 m 1346 213 l 1346 519 l 1261 319 l 1179 319 l 1093 519 l 1093 213 l 982 213 l 982 671 l 1119 671 l 1222 440 l 1326 671 l 1464 671 l 1464 213 l 1346 213 m 1790 289 q 1844 303 1822 289 q 1880 338 1867 317 q 1899 388 1893 360 q 1904 442 1904 415 q 1899 497 1904 469 q 1880 545 1893 524 q 1844 581 1867 567 q 1790 594 1822 594 q 1736 581 1758 594 q 1701 545 1714 567 q 1682 497 1688 524 q 1676 442 1676 469 q 1682 388 1676 415 q 1701 338 1688 360 q 1736 303 1714 317 q 1790 289 1758 289 m 339 443 q 327 510 339 483 q 294 554 315 538 q 243 578 274 571 q 175 585 213 585 l 146 585 l 146 299 l 175 299 q 295 329 251 299 q 339 443 339 360 z "},"7":{"ha":2054,"x_min":28,"x_max":2026,"o":"m 2026 442 q 1964 267 2026 331 q 1790 203 1901 203 q 1617 267 1679 203 q 1554 442 1554 331 q 1617 617 1554 553 q 1790 681 1679 681 q 1964 616 1901 681 q 2026 442 2026 551 m 461 440 q 413 297 461 357 q 285 219 365 236 q 237 213 261 214 q 189 213 213 213 l 28 213 l 28 671 l 193 671 q 299 658 250 671 q 383 618 347 646 q 440 547 419 590 q 461 440 461 503 m 551 213 l 551 671 l 883 671 l 883 582 l 669 582 l 669 503 l 868 503 l 868 415 l 669 415 l 669 301 l 883 301 l 883 213 l 551 213 m 1346 213 l 1346 519 l 1261 319 l 1179 319 l 1093 519 l 1093 213 l 982 213 l 982 671 l 1119 671 l 1222 440 l 1326 671 l 1464 671 l 1464 213 l 1346 213 m 1790 289 q 1844 303 1822 289 q 1880 338 1867 317 q 1899 388 1893 360 q 1904 442 1904 415 q 1899 497 1904 469 q 1880 545 1893 524 q 1844 581 1867 567 q 1790 594 1822 594 q 1736 581 1758 594 q 1701 545 1714 567 q 1682 497 1688 524 q 1676 442 1676 469 q 1682 388 1676 415 q 1701 338 1688 360 q 1736 303 1714 317 q 1790 289 1758 289 m 339 443 q 327 510 339 483 q 294 554 315 538 q 243 578 274 571 q 175 585 213 585 l 146 585 l 146 299 l 175 299 q 295 329 251 299 q 339 443 339 360 z "},"8":{"ha":2054,"x_min":28,"x_max":2026,"o":"m 2026 442 q 1964 267 2026 331 q 1790 203 1901 203 q 1617 267 1679 203 q 1554 442 1554 331 q 1617 617 1554 553 q 1790 681 1679 681 q 1964 616 1901 681 q 2026 442 2026 551 m 461 440 q 413 297 461 357 q 285 219 365 236 q 237 213 261 214 q 189 213 213 213 l 28 213 l 28 671 l 193 671 q 299 658 250 671 q 383 618 347 646 q 440 547 419 590 q 461 440 461 503 m 551 213 l 551 671 l 883 671 l 883 582 l 669 582 l 669 503 l 868 503 l 868 415 l 669 415 l 669 301 l 883 301 l 883 213 l 551 213 m 1346 213 l 1346 519 l 1261 319 l 1179 319 l 1093 519 l 1093 213 l 982 213 l 982 671 l 1119 671 l 1222 440 l 1326 671 l 1464 671 l 1464 213 l 1346 213 m 1790 289 q 1844 303 1822 289 q 1880 338 1867 317 q 1899 388 1893 360 q 1904 442 1904 415 q 1899 497 1904 469 q 1880 545 1893 524 q 1844 581 1867 567 q 1790 594 1822 594 q 1736 581 1758 594 q 1701 545 1714 567 q 1682 497 1688 524 q 1676 442 1676 469 q 1682 388 1676 415 q 1701 338 1688 360 q 1736 303 1714 317 q 1790 289 1758 289 m 339 443 q 327 510 339 483 q 294 554 315 538 q 243 578 274 571 q 175 585 213 585 l 146 585 l 146 299 l 175 299 q 295 329 251 299 q 339 443 339 360 z "},"9":{"ha":2054,"x_min":28,"x_max":2026,"o":"m 2026 442 q 1964 267 2026 331 q 1790 203 1901 203 q 1617 267 1679 203 q 1554 442 1554 331 q 1617 617 1554 553 q 1790 681 1679 681 q 1964 616 1901 681 q 2026 442 2026 551 m 461 440 q 413 297 461 357 q 285 219 365 236 q 237 213 261 214 q 189 213 213 213 l 28 213 l 28 671 l 193 671 q 299 658 250 671 q 383 618 347 646 q 440 547 419 590 q 461 440 461 503 m 551 213 l 551 671 l 883 671 l 883 582 l 669 582 l 669 503 l 868 503 l 868 415 l 669 415 l 669 301 l 883 301 l 883 213 l 551 213 m 1346 213 l 1346 519 l 1261 319 l 1179 319 l 1093 519 l 1093 213 l 982 213 l 982 671 l 1119 671 l 1222 440 l 1326 671 l 1464 671 l 1464 213 l 1346 213 m 1790 289 q 1844 303 1822 289 q 1880 338 1867 317 q 1899 388 1893 360 q 1904 442 1904 415 q 1899 497 1904 469 q 1880 545 1893 524 q 1844 581 1867 567 q 1790 594 1822 594 q 1736 581 1758 594 q 1701 545 1714 567 q 1682 497 1688 524 q 1676 442 1676 469 q 1682 388 1676 415 q 1701 338 1688 360 q 1736 303 1714 317 q 1790 289 1758 289 m 339 443 q 327 510 339 483 q 294 554 315 538 q 243 578 274 571 q 175 585 213 585 l 146 585 l 146 299 l 175 299 q 295 329 251 299 q 339 443 339 360 z "},"\u0000":{"ha":0,"x_min":0,"x_max":0,"o":""},"\r":{"ha":347,"x_min":0,"x_max":0,"o":""}," ":{"ha":368,"x_min":0,"x_max":0,"o":""},"O":{"ha":704,"x_min":28,"x_max":676,"o":"m 347 -43 q 177 -11 240 -43 q 81 78 114 21 q 38 213 47 135 q 28 385 28 292 q 39 567 28 483 q 86 710 50 650 q 190 805 122 771 q 369 839 257 839 q 527 803 467 839 q 621 709 588 768 q 665 573 654 650 q 676 414 676 496 q 667 236 676 319 q 623 91 657 153 q 524 -7 589 29 q 347 -43 458 -43 m 261 356 q 262 301 261 331 q 271 244 263 271 q 297 201 279 218 q 350 183 315 183 q 403 200 383 183 q 432 242 422 217 q 444 296 442 267 q 447 350 447 325 q 447 417 447 375 q 437 501 446 460 q 408 572 428 542 q 350 603 388 603 q 299 576 317 603 q 272 511 281 549 q 263 435 264 474 q 261 375 261 397 l 261 356 z "},"H":{"ha":657,"x_min":43,"x_max":617,"o":"m 46 324 q 47 428 46 376 q 47 532 47 479 q 45 615 47 567 q 51 706 43 663 q 84 781 60 750 q 160 811 108 811 q 246 791 213 811 q 279 711 279 771 q 276 596 279 653 q 274 481 274 539 q 331 481 303 481 q 389 483 360 482 l 389 522 l 385 601 l 385 640 q 388 703 385 671 q 404 763 392 736 q 440 806 417 789 q 503 824 464 824 q 565 813 542 824 q 599 782 588 801 q 613 735 610 763 q 617 675 617 708 l 617 522 l 613 215 l 613 63 q 582 -19 613 3 q 496 -42 551 -42 q 427 -22 451 -42 q 391 28 403 -3 q 377 94 379 58 q 375 164 375 131 q 378 221 375 192 q 381 278 381 250 l 272 275 q 277 199 272 236 q 282 122 282 161 q 279 62 282 92 q 266 10 276 32 q 233 -26 256 -12 q 171 -40 211 -40 q 122 -36 144 -40 q 82 -22 99 -32 q 56 8 65 -11 q 46 57 46 26 l 46 324 z "},"A":{"ha":658,"x_min":7,"x_max":651,"o":"m 135 -26 q 39 -1 71 -26 q 7 92 7 25 q 13 158 7 117 q 29 247 19 199 q 51 347 39 294 q 77 447 64 399 q 102 535 90 494 q 124 601 114 576 q 156 685 139 644 q 197 756 172 725 q 256 805 221 786 q 343 824 290 824 q 404 818 374 824 q 461 796 435 813 q 522 726 497 772 q 561 625 546 679 q 586 517 576 571 q 601 425 596 463 q 617 338 608 388 q 633 235 625 288 q 646 134 640 183 q 651 49 651 85 q 641 3 651 21 q 613 -23 631 -14 q 574 -35 596 -32 q 529 -39 553 -39 q 461 -24 485 -39 q 425 17 438 -8 q 407 74 413 42 q 393 140 401 106 l 244 140 q 237 84 240 114 q 223 30 233 54 q 192 -10 213 6 q 135 -26 171 -26 m 369 343 l 369 364 q 368 401 369 372 q 364 459 367 429 q 356 513 361 489 q 342 538 350 538 q 320 510 331 538 q 301 449 310 483 q 288 384 293 415 q 282 343 282 353 l 369 343 z "},"I":{"ha":436,"x_min":7,"x_max":418,"o":"m 354 819 q 382 807 371 819 q 400 776 393 794 q 410 740 407 758 q 413 708 413 721 q 393 626 413 660 q 321 592 374 592 q 328 481 326 536 q 331 371 331 426 q 328 281 331 326 q 324 192 326 236 q 396 163 374 192 q 418 88 418 135 q 386 -6 418 28 q 293 -39 354 -39 q 234 -37 264 -39 q 175 -35 204 -36 q 110 -28 140 -33 q 58 -8 81 -22 q 24 31 36 6 q 13 99 13 57 q 34 174 13 156 q 108 193 56 193 q 106 248 106 221 q 106 303 106 275 q 108 443 106 374 q 110 583 110 513 q 29 606 51 583 q 7 688 7 629 q 9 724 7 703 q 19 765 11 744 q 39 799 26 785 q 72 813 51 813 l 354 819 z "},"E":{"ha":539,"x_min":40,"x_max":539,"o":"m 153 -47 q 65 -15 89 -47 q 42 76 42 17 q 41 364 42 221 q 40 651 40 507 q 42 699 40 674 q 52 748 44 725 q 76 787 60 771 q 119 807 92 803 q 276 824 197 818 q 435 829 356 829 q 464 816 450 829 q 488 785 478 803 q 505 747 499 767 q 511 715 511 728 q 509 679 511 697 q 500 647 507 661 q 480 623 493 632 q 444 611 467 614 l 256 596 l 263 510 l 399 510 q 457 481 442 510 q 472 415 472 453 q 470 383 472 401 q 462 347 468 364 q 444 317 456 329 q 414 304 433 304 l 263 304 l 271 181 l 346 181 q 370 190 361 181 q 388 210 379 199 q 409 231 397 222 q 439 240 421 240 q 511 217 483 240 q 539 147 539 193 q 534 58 539 94 q 511 0 529 22 q 460 -33 493 -22 q 371 -46 428 -44 q 306 -47 339 -47 q 240 -47 272 -47 l 153 -47 z "},"F":{"ha":497,"x_min":39,"x_max":486,"o":"m 39 65 q 40 349 39 208 q 40 632 40 489 q 40 703 40 671 q 47 758 39 735 q 76 797 54 782 q 142 815 97 811 q 274 826 208 822 q 407 831 340 831 q 449 820 433 831 q 472 793 464 810 q 483 756 481 776 q 486 714 486 735 q 484 679 486 699 q 475 643 482 660 q 456 615 468 626 q 424 601 443 603 l 263 593 l 258 440 q 310 456 283 450 q 364 463 336 463 q 411 451 393 463 q 438 422 429 440 q 451 381 447 404 q 454 335 454 358 q 431 269 454 286 q 364 244 408 251 q 312 235 338 242 q 260 229 286 229 q 264 165 260 197 q 268 101 268 133 q 265 38 268 65 q 249 -9 261 10 q 213 -37 238 -28 q 147 -46 189 -46 q 60 -22 82 -46 q 39 65 39 1 z "},"P":{"ha":619,"x_min":38,"x_max":599,"o":"m 39 411 q 38 466 39 429 q 38 548 38 503 q 43 641 39 593 q 58 728 47 689 q 87 793 68 768 q 133 818 106 818 l 164 818 l 226 821 q 384 814 315 821 q 501 778 453 807 q 574 690 549 749 q 599 528 599 631 q 588 383 599 447 q 544 276 576 319 q 456 210 513 233 q 310 188 400 188 q 288 188 299 188 q 265 190 276 189 q 269 137 265 163 q 274 85 274 111 q 272 30 274 54 q 260 -11 269 6 q 229 -36 250 -28 q 172 -44 208 -44 q 123 -40 147 -44 q 80 -24 99 -36 q 50 7 61 -12 q 39 57 39 26 l 39 411 m 276 371 q 375 406 344 374 q 406 506 406 438 q 384 579 406 547 q 317 611 363 611 q 295 611 306 611 q 274 610 285 611 q 277 559 276 585 q 278 507 278 533 q 277 440 278 474 q 276 371 276 406 z "},"D":{"ha":676,"x_min":40,"x_max":649,"o":"m 269 -42 q 184 -35 224 -42 q 115 -8 144 -28 q 67 44 85 11 q 49 129 50 78 q 43 380 46 256 q 40 631 40 504 q 47 717 40 679 q 72 779 54 754 q 124 817 90 804 q 208 829 157 829 q 401 810 318 829 q 538 744 483 790 q 621 620 593 697 q 649 428 649 543 q 631 243 649 329 q 571 94 614 157 q 454 -6 528 31 q 269 -42 381 -42 m 267 196 q 278 176 267 181 q 301 171 289 171 q 365 199 340 171 q 402 267 389 228 q 420 350 415 307 q 425 421 425 393 q 392 556 425 507 q 265 610 358 606 l 267 196 z "},"C":{"ha":607,"x_min":14,"x_max":594,"o":"m 325 -51 q 156 -15 218 -51 q 63 84 94 22 q 22 226 31 146 q 14 394 14 307 q 24 555 14 475 q 66 698 33 635 q 158 801 99 761 q 318 840 218 840 q 460 815 406 840 q 544 745 514 790 q 583 636 574 700 q 593 493 593 572 q 557 415 593 436 q 471 394 521 394 q 412 410 431 394 q 387 451 393 426 q 381 504 381 476 q 379 557 381 532 q 369 598 378 582 q 335 614 360 614 q 281 586 300 614 q 253 520 263 558 q 242 442 244 482 q 240 379 240 403 q 242 320 240 356 q 252 252 243 285 q 280 197 261 219 q 333 174 299 174 q 383 183 368 174 q 403 207 397 193 q 412 238 410 221 q 422 269 414 256 q 448 293 429 283 q 506 303 467 303 q 578 273 561 303 q 594 194 594 243 q 574 87 594 133 q 518 10 554 40 q 433 -36 482 -21 q 325 -51 383 -51 z "},"B":{"ha":644,"x_min":38,"x_max":621,"o":"m 297 -43 q 165 -24 215 -43 q 85 33 114 -4 q 47 128 57 71 q 38 260 38 185 l 38 581 q 44 688 38 640 q 72 767 50 735 q 135 817 93 800 q 246 835 176 835 q 378 830 314 835 q 492 803 442 825 q 572 733 542 781 q 601 601 601 686 q 593 543 601 574 q 568 485 585 513 q 528 436 551 457 q 476 408 506 415 q 543 390 515 407 q 588 347 571 374 q 613 286 606 319 q 621 218 621 253 q 594 98 621 147 q 522 17 567 49 q 418 -28 476 -14 q 297 -43 360 -43 m 258 513 q 267 512 263 513 q 275 511 271 511 q 309 515 290 511 q 344 526 328 518 q 372 547 361 533 q 383 579 383 560 q 375 599 383 592 q 354 611 367 607 q 328 617 342 615 q 307 618 315 618 q 284 618 296 618 q 261 615 272 618 q 258 585 258 600 q 258 554 258 569 l 258 513 m 263 197 q 278 172 264 174 q 313 171 293 171 q 353 175 332 171 q 387 192 374 179 q 400 229 400 206 q 386 273 400 256 q 351 301 372 290 q 305 316 329 311 q 260 321 281 321 l 263 197 z "},"L":{"ha":497,"x_min":38,"x_max":472,"o":"m 136 -33 q 81 -21 100 -33 q 51 13 61 -8 q 40 60 42 33 q 39 117 39 88 l 39 607 q 38 656 39 625 q 40 717 38 686 q 52 775 43 749 q 81 813 61 801 q 121 825 99 824 q 163 826 143 826 q 217 821 196 826 q 249 801 238 815 q 265 766 261 788 q 269 711 269 744 l 269 621 l 271 440 l 271 350 q 270 311 271 333 q 267 267 269 289 q 261 224 265 244 q 250 188 257 203 q 326 203 285 193 q 401 213 368 213 q 438 197 424 213 q 459 158 451 181 q 469 110 467 135 q 472 69 472 86 q 462 10 472 31 q 432 -20 451 -11 q 387 -30 413 -29 q 329 -31 361 -31 q 265 -32 297 -31 q 200 -33 232 -33 l 136 -33 z "},"K":{"ha":672,"x_min":39,"x_max":650,"o":"m 156 -33 q 66 -6 93 -33 q 39 85 39 22 l 39 711 q 72 791 39 764 q 156 818 106 818 q 224 803 200 818 q 260 762 249 788 q 274 703 271 736 q 276 635 276 669 q 273 574 276 604 q 264 515 269 544 q 313 570 293 540 q 349 633 333 600 q 379 701 365 667 q 410 768 393 735 q 449 812 426 801 q 507 822 471 822 q 547 814 526 822 q 585 792 568 806 q 614 760 603 779 q 625 721 625 742 q 623 705 625 713 q 618 690 621 697 q 588 601 606 649 q 546 508 569 553 q 492 423 522 463 q 425 357 463 383 q 449 316 433 340 q 482 269 464 292 q 520 228 500 246 q 560 208 540 211 q 605 197 588 204 q 633 176 622 189 q 647 145 643 164 q 650 97 650 126 q 619 -4 650 31 q 519 -39 588 -39 q 476 -35 496 -39 q 436 -19 456 -32 q 392 26 417 -7 q 342 101 367 60 q 297 181 318 142 q 264 242 276 219 q 274 150 267 196 q 281 58 281 104 q 271 10 281 28 q 244 -18 261 -8 q 203 -31 226 -28 q 156 -33 181 -33 z "},"R":{"ha":644,"x_min":39,"x_max":639,"o":"m 39 411 q 40 465 39 439 q 40 518 40 492 q 41 596 40 546 q 51 695 42 646 q 81 781 60 744 q 146 818 103 818 l 174 818 l 229 821 q 387 813 318 821 q 503 776 456 806 q 574 689 550 747 q 599 528 599 631 q 592 449 599 489 q 570 372 585 408 q 531 303 556 335 q 471 250 507 272 q 508 215 488 232 q 553 194 528 199 q 592 184 576 190 q 619 167 608 178 q 634 140 629 157 q 639 97 639 124 q 608 -4 639 31 q 508 -39 576 -39 q 465 -35 486 -39 q 425 -19 444 -32 q 385 22 407 -8 q 340 88 363 53 q 299 158 318 124 q 269 213 281 192 l 265 213 q 269 149 265 181 q 274 85 274 117 q 272 30 274 54 q 260 -11 269 6 q 229 -36 250 -28 q 172 -44 208 -44 q 123 -40 147 -44 q 80 -24 99 -36 q 50 7 61 -12 q 39 57 39 26 l 39 411 m 276 393 q 333 399 308 394 q 373 416 357 404 q 397 449 389 428 q 406 506 406 471 q 384 579 406 547 q 317 611 363 611 q 295 611 306 611 q 274 610 285 611 q 277 547 276 578 q 278 485 278 517 l 276 424 l 276 393 z "},"N":{"ha":708,"x_min":33,"x_max":669,"o":"m 163 -42 q 81 -22 113 -42 q 42 50 49 -3 q 34 164 35 107 q 33 276 33 221 q 36 428 33 353 q 42 578 39 503 q 45 653 43 611 q 58 732 47 694 q 94 794 69 769 q 164 819 118 819 q 221 808 193 819 q 268 774 249 796 q 310 700 288 751 q 356 588 333 649 q 402 469 379 528 q 444 378 425 411 q 442 541 444 460 q 439 704 439 622 q 463 788 439 756 q 542 821 488 821 q 588 814 565 821 q 628 793 611 807 q 656 759 646 779 q 667 713 667 739 l 667 635 l 668 479 q 669 440 669 460 q 669 400 669 419 q 667 228 669 315 q 651 57 665 142 q 640 11 647 29 q 622 -17 633 -7 q 592 -31 610 -28 q 544 -35 574 -35 q 478 -9 510 -35 q 422 53 447 17 q 376 128 396 89 q 340 193 356 167 q 297 279 317 235 q 261 369 276 324 q 265 63 265 215 q 163 -42 265 -42 z "},"M":{"ha":936,"x_min":39,"x_max":899,"o":"m 39 67 q 46 326 39 197 q 64 585 53 454 q 72 663 67 621 q 92 742 78 706 q 135 803 107 779 q 211 828 164 828 q 276 819 253 828 q 321 772 300 810 q 366 676 346 729 q 405 566 386 622 q 441 453 424 510 q 475 349 458 397 q 490 405 485 376 q 500 461 494 433 q 517 537 507 496 q 538 619 526 578 q 565 699 550 660 q 600 767 581 738 q 707 826 639 826 q 794 809 764 826 q 842 736 824 792 q 860 658 851 708 q 874 544 868 607 q 885 413 881 482 q 892 278 889 343 q 897 159 896 214 q 899 71 899 104 q 869 -16 899 6 q 779 -37 840 -37 q 716 -21 738 -37 q 684 22 694 -4 q 672 80 674 47 q 669 144 671 113 l 663 410 q 647 356 657 393 q 624 274 638 319 q 596 181 611 229 q 566 92 581 133 q 537 21 551 50 q 511 -14 522 -8 q 492 -20 504 -18 q 472 -22 481 -22 q 429 -7 449 -22 q 401 31 417 3 q 369 99 386 60 q 335 182 353 138 q 303 268 318 226 q 277 344 289 310 q 258 397 265 379 q 263 244 260 319 q 265 90 265 168 q 260 22 265 49 q 241 -21 256 -6 q 201 -42 226 -36 q 132 -49 175 -49 q 56 -17 72 -49 q 39 67 39 15 z "},"T":{"ha":546,"x_min":7,"x_max":539,"o":"m 175 586 q 102 585 133 586 q 50 592 71 583 q 18 626 29 601 q 7 706 7 651 q 10 757 7 736 q 23 791 13 778 q 52 810 33 804 q 101 817 71 817 q 135 817 118 817 q 168 818 151 817 l 301 821 l 368 821 l 471 821 q 510 810 496 821 q 530 782 524 799 q 538 744 536 765 q 539 704 539 724 q 519 617 539 649 q 438 586 499 586 l 383 586 l 383 546 q 390 308 383 426 q 397 71 397 190 q 367 -15 397 4 q 274 -35 336 -35 q 189 -15 224 -35 q 154 60 154 4 l 154 71 q 163 329 161 201 q 175 586 165 457 z "},"S":{"ha":642,"x_min":15,"x_max":621,"o":"m 117 326 q 158 315 144 326 q 181 288 172 304 q 199 251 190 271 q 221 214 207 231 q 259 186 235 197 q 325 175 283 175 q 343 176 332 175 q 365 181 354 178 q 383 190 375 183 q 390 207 390 197 q 374 219 390 210 q 339 240 358 229 q 301 260 319 250 q 278 271 282 269 q 184 323 229 296 q 105 385 139 350 q 50 465 71 419 q 29 572 29 510 q 53 685 29 635 q 117 772 76 736 q 212 826 158 807 q 325 846 265 846 q 422 829 374 846 q 511 782 471 813 q 576 708 551 751 q 601 613 601 665 q 597 560 601 585 q 580 515 592 535 q 547 484 568 496 q 494 472 526 472 q 427 485 454 472 q 400 546 400 499 q 399 583 400 568 q 392 609 399 599 q 371 624 385 619 q 329 629 357 629 q 278 614 303 629 q 253 568 253 599 q 280 523 253 542 q 348 485 307 504 q 437 446 389 467 q 526 395 485 425 q 594 322 567 365 q 621 215 621 278 q 594 107 621 154 q 525 28 568 60 q 427 -20 482 -4 q 317 -36 372 -36 q 207 -15 261 -36 q 110 42 153 6 q 42 128 68 78 q 15 236 15 178 q 44 306 15 285 q 117 326 72 326 z "},"Z":{"ha":622,"x_min":21,"x_max":607,"o":"m 117 -47 q 69 -33 88 -47 q 40 1 51 -19 q 25 48 29 22 q 21 96 21 74 q 33 181 21 140 q 69 257 46 221 q 205 440 131 353 q 358 608 279 528 q 244 592 300 599 q 129 585 188 585 q 82 594 100 585 q 53 622 64 604 q 39 661 43 639 q 35 708 35 683 q 38 753 35 732 q 49 791 40 775 q 75 817 58 807 q 119 826 92 826 q 304 824 211 826 q 489 814 397 822 q 562 779 535 810 q 589 703 589 749 q 583 617 589 665 q 558 536 576 569 q 501 437 533 489 q 430 334 468 385 q 351 237 392 283 q 272 154 311 190 q 332 174 299 165 q 401 189 365 183 q 471 197 436 194 q 535 200 506 200 q 574 187 560 200 q 596 154 589 174 q 605 113 603 135 q 607 71 607 90 q 605 29 607 49 q 594 -4 603 10 q 571 -26 586 -18 q 529 -33 556 -33 q 323 -40 425 -33 q 117 -47 221 -47 z "},"G":{"ha":660,"x_min":19,"x_max":640,"o":"m 592 418 q 617 408 607 418 q 631 385 626 399 q 638 356 636 371 q 640 329 640 340 q 627 276 640 301 q 582 251 614 251 q 586 194 586 222 q 517 11 586 74 q 331 -51 449 -51 q 162 -15 224 -51 q 68 84 100 22 q 28 226 36 146 q 19 394 19 307 q 29 555 19 475 q 72 698 39 635 q 164 801 104 761 q 324 840 224 840 q 590 576 590 840 q 556 497 590 519 q 471 474 522 474 q 423 484 438 474 q 403 510 408 494 q 397 544 397 525 q 394 578 397 563 q 380 603 392 593 q 340 614 368 614 q 287 586 306 614 q 259 520 268 558 q 248 442 250 482 q 246 379 246 403 q 247 320 246 356 q 258 252 249 285 q 285 197 267 219 q 339 174 304 174 q 381 183 365 174 q 396 221 396 193 q 395 235 396 228 q 393 251 394 243 q 328 267 344 251 q 311 333 311 282 q 312 362 311 347 q 317 388 313 376 q 333 408 322 400 q 361 415 343 415 l 479 415 q 535 417 507 415 q 592 418 564 418 z "},"Q":{"ha":726,"x_min":28,"x_max":682,"o":"m 597 106 q 640 103 624 106 q 666 91 657 100 q 678 64 675 82 q 682 17 682 46 q 667 -28 682 -8 q 626 -53 651 -47 q 555 -60 593 -60 q 483 -60 517 -60 q 267 -41 354 -60 q 126 27 179 -22 q 51 163 74 76 q 28 385 28 249 q 39 567 28 483 q 86 710 50 650 q 190 805 122 771 q 369 839 257 839 q 539 794 478 839 q 631 680 600 750 q 669 523 661 610 q 676 350 676 436 q 656 221 676 283 q 597 106 635 158 m 261 356 q 262 301 261 331 q 271 244 263 271 q 297 201 279 218 q 350 183 315 183 q 403 200 383 183 q 432 242 422 217 q 444 296 442 267 q 447 350 447 325 q 447 417 447 375 q 437 501 446 460 q 408 572 428 542 q 350 603 388 603 q 299 576 317 603 q 272 511 281 549 q 263 435 264 474 q 261 375 261 397 l 261 356 z "},"J":{"ha":497,"x_min":14,"x_max":458,"o":"m 14 128 q 21 171 14 150 q 41 208 28 192 q 73 235 54 225 q 115 246 92 246 q 148 234 138 246 q 165 208 158 222 q 178 181 171 193 q 199 169 185 169 q 219 175 214 169 q 228 194 225 181 q 233 241 233 215 q 233 288 233 267 q 227 483 233 386 q 221 679 221 581 q 226 738 221 711 q 244 783 231 764 q 280 813 257 801 q 338 824 303 824 q 424 803 390 824 q 458 724 458 783 q 456 460 458 590 q 453 196 453 329 q 435 99 453 146 q 385 16 417 53 q 309 -42 353 -21 q 213 -64 265 -64 q 136 -49 172 -64 q 73 -9 100 -35 q 30 51 46 17 q 14 128 14 86 z "},"V":{"ha":671,"x_min":38,"x_max":656,"o":"m 340 -43 q 294 -42 314 -43 q 257 -33 274 -40 q 226 -12 240 -26 q 199 25 211 1 q 177 90 192 38 q 145 214 163 142 q 108 369 128 286 q 74 525 89 451 q 48 653 58 599 q 38 724 38 708 q 44 777 38 757 q 65 807 51 797 q 101 819 79 817 q 153 822 122 822 q 218 813 196 822 q 261 764 240 803 q 274 719 267 753 q 290 638 282 685 q 305 538 297 592 q 319 435 313 485 q 333 344 326 385 q 343 283 339 304 q 394 516 371 400 q 444 749 417 632 q 456 787 450 772 q 473 809 463 801 q 499 819 483 817 q 539 822 515 822 q 577 816 557 822 q 615 799 597 810 q 644 772 632 788 q 656 735 656 756 q 644 665 656 718 q 616 538 633 611 q 578 383 599 465 q 537 228 557 301 q 501 102 517 156 q 476 32 485 49 q 423 -30 454 -17 q 340 -43 392 -43 z "},"U":{"ha":663,"x_min":38,"x_max":624,"o":"m 324 -43 q 194 -20 246 -43 q 109 44 142 3 q 63 144 76 86 q 46 274 49 203 q 40 460 43 368 q 38 647 38 553 q 40 713 38 682 q 53 767 42 744 q 90 804 65 790 q 157 818 114 818 q 244 785 219 818 q 269 693 269 751 l 269 296 q 272 269 269 283 q 281 242 275 254 q 298 221 288 229 q 325 213 308 213 q 378 238 360 213 q 406 299 397 264 q 415 372 414 335 q 417 433 417 410 q 416 490 417 461 q 415 546 415 518 l 413 622 q 412 678 413 650 q 411 735 411 707 q 442 799 411 779 q 513 818 472 818 q 576 792 554 818 q 609 730 599 767 q 622 653 619 693 q 624 583 624 613 q 624 465 624 524 q 621 346 624 406 q 609 192 619 264 q 568 69 599 121 q 480 -13 538 17 q 324 -43 422 -43 z "},"Y":{"ha":628,"x_min":26,"x_max":606,"o":"m 256 274 q 125 299 171 274 q 58 370 79 325 q 34 475 38 415 q 31 601 31 535 q 29 640 31 621 q 28 679 28 660 q 32 738 28 711 q 48 783 36 764 q 82 812 60 801 q 142 822 104 822 q 231 793 200 822 q 263 703 263 764 q 257 610 263 656 q 251 517 251 564 q 266 483 251 489 q 304 476 281 476 q 342 485 328 476 q 365 507 357 493 q 376 540 374 521 q 379 578 379 558 q 374 653 379 615 q 369 728 369 690 q 381 774 369 756 q 412 802 393 792 q 454 817 431 813 q 500 822 478 822 q 575 802 544 822 q 606 733 606 782 q 599 559 606 646 q 593 385 593 472 q 594 354 593 369 q 594 324 594 339 l 597 283 q 598 253 597 268 q 599 222 599 238 q 576 94 599 146 q 514 10 554 42 q 417 -35 474 -21 q 289 -49 360 -49 q 203 -36 249 -49 q 117 1 157 -24 q 52 63 78 26 q 26 146 26 99 q 37 184 26 165 q 64 217 47 203 q 101 240 81 232 q 139 249 121 249 q 170 233 157 249 q 200 201 183 218 q 242 168 217 183 q 308 153 267 153 q 351 168 336 153 q 374 206 367 183 q 383 253 381 228 q 385 299 385 279 q 385 313 385 306 q 383 326 385 319 q 324 288 357 303 q 256 274 292 274 z "},"W":{"ha":838,"x_min":21,"x_max":815,"o":"m 194 -35 q 120 -7 146 -35 q 81 65 94 21 q 51 205 63 128 q 32 363 39 282 q 23 522 25 443 q 21 668 21 601 q 22 722 21 693 q 33 774 24 750 q 60 814 42 799 q 113 829 79 829 q 165 822 140 829 q 206 789 189 814 q 219 747 213 779 q 230 672 225 715 q 239 581 235 629 q 245 487 243 532 q 249 406 247 442 q 250 353 250 369 q 263 398 254 367 q 283 469 271 429 q 308 551 294 508 q 333 630 321 593 q 356 692 346 667 q 374 724 367 718 q 396 736 385 733 q 422 739 407 739 q 448 736 438 739 q 469 725 458 733 q 491 693 479 718 q 515 633 503 668 q 540 556 528 597 q 564 477 553 515 q 583 408 575 439 q 596 363 592 378 q 597 444 597 400 q 598 531 597 488 q 600 618 599 575 q 606 697 601 661 q 614 749 608 725 q 631 790 619 772 q 663 818 643 808 q 715 828 683 828 q 794 803 772 828 q 815 724 815 779 q 792 411 815 567 q 742 100 768 256 q 733 49 738 74 q 717 6 728 25 q 686 -24 706 -12 q 635 -35 667 -35 q 578 -27 606 -35 q 528 0 551 -19 q 506 33 518 8 q 482 90 494 57 q 458 160 469 122 q 436 233 446 197 q 418 298 426 268 q 404 343 410 328 q 383 267 397 319 q 353 160 369 215 q 321 58 338 104 q 289 0 304 11 q 245 -27 265 -19 q 194 -35 225 -35 z "},"X":{"ha":685,"x_min":14,"x_max":671,"o":"m 14 74 q 38 147 14 106 q 92 233 61 189 q 156 317 124 276 q 206 385 189 357 q 158 459 189 413 q 95 556 126 506 q 40 653 64 607 q 17 728 17 700 q 47 797 17 772 q 119 822 78 822 q 192 791 160 822 q 251 716 225 760 q 299 626 278 672 q 336 551 319 581 q 372 622 356 586 q 407 693 389 657 q 429 738 418 717 q 455 777 440 760 q 490 805 469 794 q 539 815 510 815 q 614 790 585 815 q 643 717 643 764 q 619 644 643 690 q 564 547 596 597 q 499 453 532 497 q 450 383 467 408 q 478 331 463 363 q 513 269 494 300 q 552 212 531 238 q 596 178 574 186 q 671 69 671 150 q 646 -14 671 11 q 565 -39 621 -39 q 479 -26 513 -39 q 417 32 446 -12 q 368 126 388 76 q 322 224 349 176 q 288 152 307 196 q 245 67 269 108 q 192 -5 221 25 q 125 -35 163 -35 q 42 -9 69 -35 q 14 74 14 17 z "},".":{"ha":383,"x_min":63,"x_max":321,"o":"m 321 113 q 289 3 321 44 q 186 -37 257 -37 q 91 1 119 -37 q 63 101 63 39 q 93 203 63 161 q 186 244 124 244 q 321 113 321 244 z "},",":{"ha":381,"x_min":53,"x_max":319,"o":"m 118 15 q 67 49 82 22 q 53 108 53 75 q 64 156 53 133 q 94 197 75 179 q 136 224 113 214 q 185 235 160 235 q 283 196 247 235 q 319 94 319 157 q 304 29 319 65 q 265 -38 289 -7 q 209 -91 240 -69 q 146 -112 178 -112 q 106 -104 125 -112 q 88 -71 88 -96 q 99 -27 88 -47 q 118 15 110 -7 z "},":":{"ha":413,"x_min":63,"x_max":321,"o":"m 321 707 q 289 599 321 640 q 186 557 257 557 q 91 595 119 557 q 63 696 63 633 q 70 751 63 725 q 93 796 78 776 q 132 827 108 815 q 186 839 156 839 q 321 707 321 839 m 321 113 q 289 4 321 46 q 186 -37 257 -37 q 91 1 119 -37 q 63 101 63 39 q 70 156 63 131 q 93 201 78 182 q 132 233 108 221 q 186 244 156 244 q 321 113 321 244 z "},";":{"ha":386,"x_min":63,"x_max":329,"o":"m 321 707 q 289 599 321 640 q 186 557 257 557 q 91 595 119 557 q 63 696 63 633 q 70 751 63 725 q 93 796 78 776 q 132 827 108 815 q 186 839 156 839 q 321 707 321 839 m 128 15 q 77 49 92 21 q 63 108 63 76 q 74 156 63 133 q 103 197 85 179 q 146 224 122 214 q 194 235 169 235 q 293 196 257 235 q 329 94 329 157 q 314 29 329 65 q 274 -38 299 -7 q 219 -91 250 -69 q 156 -112 188 -112 q 116 -104 135 -112 q 97 -71 97 -96 q 109 -27 97 -47 q 128 15 121 -7 z "},"-":{"ha":539,"x_min":65,"x_max":481,"o":"m 481 389 q 478 346 481 367 q 469 310 476 325 q 446 287 461 296 q 403 278 431 278 l 157 278 q 85 304 106 278 q 65 379 65 331 q 78 449 65 428 q 114 478 90 471 q 170 484 138 486 q 242 482 203 482 l 283 482 l 364 486 q 417 484 396 486 q 453 472 439 482 q 474 443 468 463 q 481 389 481 424 z "},"+":{"ha":682,"x_min":88,"x_max":615,"o":"m 258 326 q 197 325 228 326 q 142 330 165 324 q 103 357 118 336 q 88 421 88 378 q 111 502 88 481 q 193 524 135 524 l 261 524 q 259 585 261 556 q 263 637 257 614 q 290 674 269 660 q 354 688 310 688 q 427 671 404 688 q 450 601 450 654 q 450 563 450 582 q 449 525 450 544 l 463 525 q 524 526 496 525 q 572 519 551 526 q 603 492 592 513 q 615 426 615 471 q 595 349 615 371 q 519 326 575 326 q 486 327 503 326 q 451 328 469 328 q 451 269 451 297 q 442 220 450 242 q 413 185 433 199 q 353 172 393 172 q 281 187 306 172 q 257 254 257 201 q 257 290 257 272 q 258 326 257 308 z "},"*":{"ha":553,"x_min":54,"x_max":486,"o":"m 132 500 q 104 510 118 500 q 80 533 90 519 q 63 564 69 547 q 57 593 57 581 q 80 638 57 622 q 126 661 103 653 q 78 680 101 664 q 54 724 54 696 q 78 794 54 761 q 143 826 103 826 q 154 822 147 826 q 169 813 161 818 q 185 801 178 807 q 194 792 192 794 q 208 860 194 829 q 267 890 222 890 q 328 861 313 890 q 344 792 344 832 q 372 816 356 800 q 403 832 389 832 q 435 823 419 832 q 461 800 450 814 q 479 769 472 786 q 486 736 486 751 q 468 692 486 706 q 424 671 450 678 q 467 656 449 667 q 486 615 486 644 q 481 579 486 599 q 465 544 475 560 q 439 517 454 528 q 404 506 424 506 q 369 516 385 506 q 342 538 354 526 q 328 468 340 493 q 264 443 315 443 q 210 467 221 443 q 200 526 200 490 q 167 510 189 519 q 132 500 146 500 z "},"^":{"ha":610,"x_min":67,"x_max":558,"o":"m 154 429 q 123 435 139 429 q 94 453 107 442 q 74 478 82 464 q 67 510 67 493 q 77 545 67 521 q 105 601 88 569 q 142 667 122 632 q 183 733 163 701 q 219 790 203 764 q 243 828 235 815 q 272 865 257 850 q 315 879 288 879 q 353 861 338 879 q 381 828 369 843 q 424 763 394 808 q 483 669 453 718 q 535 575 513 619 q 558 511 558 531 q 551 483 558 497 q 533 458 544 469 q 508 439 522 446 q 481 432 494 432 q 417 455 442 432 q 374 510 392 478 q 343 580 357 543 q 313 643 329 617 q 287 587 303 622 q 250 516 271 551 q 205 455 229 481 q 154 429 181 429 z "},"˜":{"ha":543,"x_min":65,"x_max":489,"o":"m 422 1101 q 454 1090 442 1101 q 474 1063 467 1079 q 485 1029 482 1047 q 489 996 489 1011 q 481 942 489 969 q 458 891 474 914 q 419 854 442 868 q 365 840 396 840 q 310 850 335 840 q 268 872 286 860 q 236 894 250 885 q 211 904 222 904 q 202 894 206 904 q 192 872 199 885 q 174 850 186 860 q 142 840 163 840 q 105 851 119 840 q 81 880 90 863 q 69 917 72 897 q 65 956 65 938 q 75 1008 65 982 q 102 1056 85 1035 q 143 1090 119 1076 q 196 1103 167 1103 q 247 1092 222 1103 q 290 1068 271 1081 q 324 1044 310 1056 q 344 1033 339 1033 q 358 1044 351 1033 q 372 1067 364 1054 q 392 1091 381 1081 q 422 1101 404 1101 z "},"/":{"ha":589,"x_min":65,"x_max":535,"o":"m 438 883 q 505 855 475 883 q 535 788 535 826 q 527 738 535 771 q 507 665 519 706 q 479 580 494 625 q 449 493 464 535 q 422 417 435 451 q 403 363 410 383 q 353 212 378 288 q 303 61 328 136 q 287 15 296 40 q 265 -35 278 -11 q 234 -75 253 -58 q 190 -96 215 -92 l 183 -96 q 147 -89 167 -96 q 108 -71 126 -82 q 78 -44 90 -60 q 65 -8 65 -28 q 75 49 65 10 q 100 142 85 89 q 136 259 115 196 q 179 388 157 322 q 224 516 201 453 q 268 633 247 579 q 305 728 289 688 q 329 788 321 768 q 370 853 346 824 q 438 883 394 883 z "},"<":{"ha":703,"x_min":107,"x_max":604,"o":"m 533 138 q 467 147 508 138 q 378 173 425 157 q 282 212 331 189 q 194 260 233 235 q 131 315 156 286 q 107 374 107 344 q 127 442 107 410 q 176 503 147 475 q 239 553 206 531 q 299 592 272 575 q 347 619 317 603 q 412 650 378 635 q 478 676 446 665 q 529 688 510 688 q 564 677 550 688 q 586 650 578 667 q 598 614 594 633 q 601 578 601 594 q 575 521 601 547 q 512 473 549 494 q 438 433 475 451 q 378 401 400 415 q 444 377 406 388 q 518 352 482 367 q 579 315 554 338 q 604 250 604 292 q 601 214 604 233 q 590 178 597 194 q 568 149 582 161 q 533 138 554 138 z "},">":{"ha":739,"x_min":107,"x_max":604,"o":"m 178 138 q 143 149 157 138 q 122 178 129 161 q 110 214 114 194 q 107 250 107 233 q 132 315 107 292 q 193 352 157 338 q 268 377 229 367 q 333 401 307 388 q 274 431 311 414 q 200 467 236 447 q 137 513 164 488 q 110 568 110 538 q 113 604 110 585 q 125 640 117 624 q 147 667 133 657 q 182 678 161 678 q 253 665 211 678 q 342 629 294 651 q 435 577 389 607 q 519 513 482 547 q 581 444 557 479 q 604 374 604 408 q 580 315 604 344 q 517 260 556 286 q 430 212 478 235 q 334 173 382 189 q 244 147 286 157 q 178 138 203 138 z "},"=":{"ha":738,"x_min":65,"x_max":661,"o":"m 586 625 q 647 597 633 625 q 661 528 661 568 q 659 485 661 506 q 649 449 657 464 q 626 426 642 435 q 583 417 611 417 l 157 417 q 85 443 106 417 q 65 518 65 469 q 79 592 65 563 q 143 621 93 621 q 365 623 254 621 q 586 625 475 625 m 586 371 q 647 342 633 371 q 661 274 661 314 q 659 231 661 251 q 649 195 657 210 q 626 172 642 181 q 583 163 611 163 l 157 163 q 85 189 106 163 q 65 264 65 215 q 79 338 65 308 q 143 367 93 367 q 365 369 254 367 q 586 371 475 371 z "},"!":{"ha":408,"x_min":96,"x_max":329,"o":"m 96 754 q 127 828 96 803 q 204 854 158 854 q 251 850 228 854 q 291 835 274 846 q 319 806 308 825 q 329 760 329 788 q 323 609 329 685 q 308 458 317 533 q 301 384 306 422 q 296 310 296 346 q 272 243 296 268 q 206 218 247 218 q 144 243 163 218 q 125 308 125 268 q 121 387 125 347 q 113 465 117 426 q 101 609 106 538 q 96 754 96 681 m 318 82 q 310 38 318 60 q 287 -3 301 15 q 251 -32 272 -21 q 207 -43 231 -43 q 129 -9 158 -43 q 100 72 100 25 q 126 155 100 121 q 206 189 153 189 q 285 160 253 189 q 318 82 318 131 z "},"?":{"ha":649,"x_min":43,"x_max":606,"o":"m 325 651 q 271 639 290 651 q 241 608 251 626 q 226 568 231 590 q 213 528 221 546 q 192 497 206 510 q 153 485 179 485 q 76 517 110 485 q 43 593 43 549 q 67 694 43 649 q 128 774 90 740 q 217 825 167 807 q 319 843 267 843 q 431 833 379 843 q 522 796 483 822 q 583 725 561 769 q 606 613 606 681 q 590 524 606 560 q 549 465 574 489 q 497 423 525 440 q 444 389 468 406 q 403 353 419 372 q 388 304 388 333 q 374 233 388 261 q 310 206 361 206 q 244 226 272 206 q 215 286 215 246 q 228 390 215 349 q 262 460 242 432 q 306 504 282 488 q 349 535 329 521 q 383 565 369 550 q 396 601 396 579 q 375 644 396 636 q 325 651 354 651 m 418 79 q 409 35 418 57 q 385 -5 400 13 q 349 -33 369 -22 q 306 -43 329 -43 q 230 -9 257 -43 q 203 71 203 25 q 228 151 203 118 q 304 185 254 185 q 383 156 349 185 q 418 79 418 126 z "},"'":{"ha":313,"x_min":46,"x_max":256,"o":"m 46 753 q 67 842 46 806 q 147 878 88 878 q 226 850 196 878 q 256 772 256 822 q 252 708 256 747 q 238 632 249 668 q 206 569 226 596 q 149 543 185 543 q 89 565 110 543 q 58 620 68 588 q 47 689 49 653 q 46 753 46 725 z "},"\"":{"ha":546,"x_min":46,"x_max":497,"o":"m 46 753 q 67 842 46 806 q 147 878 88 878 q 226 850 196 878 q 256 772 256 822 q 252 708 256 747 q 238 632 249 668 q 206 569 226 596 q 149 543 185 543 q 89 565 110 543 q 58 620 68 588 q 47 689 49 653 q 46 753 46 725 m 288 753 q 308 842 288 806 q 389 878 329 878 q 467 850 438 878 q 497 772 497 822 q 494 708 497 747 q 479 632 490 668 q 447 569 468 596 q 390 543 426 543 q 331 565 351 543 q 300 620 310 588 q 289 689 290 653 q 288 753 288 725 z "},"#":{"ha":844,"x_min":61,"x_max":789,"o":"m 188 360 q 190 384 189 372 q 193 408 190 396 q 143 411 165 408 q 105 424 121 414 q 80 452 89 433 q 71 504 71 471 q 75 538 71 521 q 88 569 79 556 q 110 592 96 583 q 143 601 124 601 q 185 601 164 601 q 226 599 206 601 q 235 656 229 618 q 253 730 242 693 q 283 794 264 767 q 328 821 301 821 q 407 801 376 821 q 438 728 438 782 q 433 661 438 694 q 421 594 428 628 q 475 593 449 593 q 529 593 501 593 q 538 651 533 614 q 554 726 543 689 q 584 789 565 763 q 632 815 603 815 q 706 792 685 815 q 728 717 728 769 q 723 656 728 686 q 711 597 718 626 q 769 570 750 590 q 789 510 789 550 q 781 455 789 475 q 758 424 774 435 q 720 410 743 414 q 667 407 697 407 l 661 356 q 740 336 714 354 q 767 261 767 318 q 747 184 767 204 q 671 164 728 164 l 647 165 l 635 165 q 623 109 631 138 q 601 58 615 81 q 563 20 586 35 q 507 6 540 6 q 455 33 469 6 q 440 93 440 61 q 444 132 440 113 q 450 171 447 151 q 408 172 429 171 q 365 172 388 172 l 344 172 q 335 119 340 149 q 318 63 329 89 q 288 18 307 36 q 236 0 269 0 q 202 7 219 0 q 170 25 185 14 q 146 51 156 36 q 136 85 136 67 q 140 128 136 107 q 147 171 143 149 q 80 192 99 171 q 61 263 61 214 q 69 317 61 297 q 94 346 78 336 q 135 358 111 356 q 188 360 158 360 m 488 357 l 494 410 q 439 412 467 411 q 383 413 411 413 l 376 357 l 488 357 z "},"@":{"ha":1013,"x_min":47,"x_max":976,"o":"m 47 360 q 88 555 47 465 q 199 709 129 644 q 360 810 268 774 q 556 847 453 847 q 719 827 643 847 q 853 763 796 807 q 944 651 911 719 q 976 488 976 583 q 958 377 976 438 q 906 265 940 317 q 824 178 872 213 q 718 143 776 143 q 644 163 678 143 q 592 218 611 183 q 532 153 568 182 q 450 125 496 125 q 376 148 408 125 q 322 205 343 171 q 289 280 300 239 q 278 357 278 321 q 301 474 278 418 q 365 572 325 529 q 460 641 406 615 q 575 667 514 667 q 639 658 607 667 q 696 631 671 649 q 737 587 721 614 q 753 524 753 560 q 742 431 753 476 q 732 339 732 386 q 733 318 732 332 q 746 304 735 304 q 792 331 775 304 q 817 392 808 357 q 827 462 825 426 q 829 515 829 497 q 806 608 829 569 q 744 670 782 646 q 660 706 707 694 q 567 717 614 717 q 425 692 490 717 q 311 623 360 668 q 235 514 263 578 q 207 372 207 450 q 231 247 207 300 q 296 160 254 194 q 394 108 338 125 q 519 92 451 92 q 690 106 604 92 q 851 161 776 121 q 888 172 869 172 q 922 160 907 172 q 936 128 936 147 q 912 63 936 90 q 849 15 888 35 q 764 -19 811 -6 q 670 -40 717 -32 q 583 -50 624 -47 q 517 -53 542 -53 q 336 -27 421 -53 q 187 51 251 -1 q 85 180 122 103 q 47 360 47 257 m 567 510 q 528 496 546 510 q 496 461 510 482 q 474 417 482 440 q 465 375 465 393 q 467 361 465 369 q 471 345 468 353 q 478 332 474 338 q 490 326 483 326 q 520 351 507 326 q 544 406 533 375 q 560 467 554 438 q 567 510 567 497 z "},"$":{"ha":653,"x_min":56,"x_max":581,"o":"m 143 336 q 179 326 167 336 q 200 302 192 317 q 215 270 208 288 q 233 238 221 253 q 267 214 246 224 q 324 204 288 204 q 340 205 331 204 q 358 209 349 206 q 374 218 368 213 q 381 232 381 224 q 367 243 381 235 q 335 260 353 251 q 303 278 318 269 q 283 288 288 286 q 202 333 242 310 q 133 387 163 357 q 85 456 103 417 q 67 550 67 496 q 111 688 67 629 q 229 772 156 747 q 228 835 229 801 q 233 898 226 869 q 260 945 240 926 q 324 964 281 964 q 392 943 364 964 q 421 878 421 922 q 420 824 421 850 q 418 771 419 799 q 472 742 446 761 q 519 699 499 724 q 551 645 539 674 q 564 585 564 617 q 560 539 564 561 q 545 500 556 517 q 517 473 535 483 q 471 463 499 463 q 412 474 435 463 q 389 526 389 486 q 388 559 389 546 q 382 581 388 572 q 364 594 376 590 q 328 599 351 599 q 283 585 304 599 q 261 546 261 572 q 285 506 261 522 q 344 474 308 489 q 421 440 379 458 q 498 396 463 422 q 557 332 533 369 q 581 240 581 294 q 532 109 581 161 q 411 35 483 57 q 415 1 413 18 q 417 -32 417 -15 q 388 -105 417 -78 q 315 -132 360 -132 q 241 -103 267 -132 q 215 -26 215 -74 q 216 7 215 -10 q 218 40 217 24 q 101 124 147 68 q 56 258 56 179 q 80 318 56 300 q 143 336 104 336 z "},"€":{"ha":722,"x_min":14,"x_max":675,"o":"m 406 -51 q 289 -28 339 -51 q 203 36 239 -4 q 145 130 168 76 q 110 242 122 183 q 76 240 92 242 q 47 242 60 239 q 27 257 35 246 q 19 292 19 268 q 23 330 19 315 q 35 351 26 344 q 59 360 44 358 q 96 363 74 363 l 94 388 q 33 405 51 388 q 14 467 14 422 q 22 501 14 489 q 44 517 31 513 q 74 523 57 522 q 108 524 92 524 q 142 637 119 581 q 199 738 164 693 q 284 812 235 783 q 399 840 333 840 q 492 833 450 840 q 566 806 533 825 q 621 751 599 786 q 656 664 643 717 q 667 614 661 640 q 674 563 674 588 q 638 485 674 506 q 551 464 601 464 q 508 475 522 464 q 487 503 493 486 q 478 539 481 519 q 472 575 476 558 q 454 603 467 592 q 415 614 442 614 q 362 585 381 614 q 336 526 343 556 q 375 528 354 526 q 415 526 396 529 q 446 510 433 522 q 458 474 458 499 q 449 415 458 433 q 423 391 440 397 q 380 386 406 385 q 321 388 354 388 l 321 364 q 369 367 344 364 q 414 365 394 369 q 446 347 433 361 q 458 300 458 333 q 447 261 458 274 q 417 244 435 249 q 377 241 399 240 q 336 242 356 242 q 364 194 346 214 q 414 174 382 174 q 463 183 449 174 q 484 207 478 193 q 492 238 490 221 q 502 269 494 256 q 528 293 510 283 q 586 303 547 303 q 658 273 642 303 q 675 194 675 243 q 655 87 675 133 q 599 10 635 40 q 513 -36 563 -21 q 406 -51 464 -51 z "},"%":{"ha":1290,"x_min":65,"x_max":1249,"o":"m 307 343 q 202 363 247 343 q 126 419 157 383 q 81 503 96 454 q 65 608 65 551 q 128 806 65 731 q 318 881 190 881 q 502 810 440 881 q 564 621 564 739 q 547 510 564 561 q 498 422 531 460 q 417 364 465 385 q 307 343 369 343 m 964 772 q 958 738 964 756 q 943 704 951 719 q 839 527 894 614 q 728 353 783 440 q 638 210 683 282 q 547 68 593 139 q 524 34 538 54 q 494 -5 511 14 q 459 -36 478 -24 q 421 -49 440 -49 q 348 -20 376 -49 q 319 53 319 8 q 339 109 319 71 q 384 190 358 147 q 435 270 410 232 q 472 326 460 308 q 606 541 543 432 q 733 758 668 650 q 758 797 744 778 q 787 832 771 817 q 823 857 803 847 q 868 867 843 867 q 935 839 907 867 q 964 772 964 811 m 251 604 q 253 572 251 590 q 263 536 256 553 q 281 508 269 519 q 313 497 293 497 q 345 509 332 497 q 367 538 358 521 q 378 576 375 556 q 382 611 382 596 q 379 645 382 626 q 369 681 376 664 q 349 708 361 697 q 318 719 338 719 q 284 708 297 719 q 264 678 271 696 q 254 640 257 660 q 251 604 251 621 m 988 -43 q 882 -24 928 -43 q 806 31 836 -4 q 761 114 776 65 q 746 219 746 163 q 762 333 746 281 q 810 423 778 385 q 892 483 843 461 q 1004 504 940 504 q 1113 483 1067 504 q 1190 426 1160 463 q 1234 338 1219 389 q 1249 229 1249 288 q 1182 31 1249 104 q 988 -43 1115 -43 m 929 228 q 931 192 929 211 q 940 158 933 174 q 960 133 947 143 q 994 122 974 122 q 1032 133 1018 122 q 1054 159 1046 143 q 1065 194 1063 175 q 1068 232 1068 214 q 1066 268 1068 249 q 1056 304 1064 288 q 1036 333 1049 321 q 1003 344 1024 344 q 966 333 981 344 q 943 305 951 322 q 932 267 935 288 q 929 228 929 246 z "},"&":{"ha":796,"x_min":36,"x_max":761,"o":"m 633 222 q 670 197 649 211 q 712 165 692 182 q 747 128 732 147 q 761 88 761 108 q 753 42 761 65 q 731 1 746 19 q 697 -28 717 -17 q 653 -39 676 -39 q 624 -28 643 -39 q 584 -3 604 -18 q 546 27 564 13 q 521 50 528 42 q 426 -8 478 14 q 318 -31 375 -31 q 217 -12 267 -31 q 126 38 167 6 q 61 117 86 71 q 36 217 36 163 q 66 333 36 286 q 149 421 96 381 q 108 515 121 465 q 96 618 96 565 q 117 726 96 681 q 176 801 139 772 q 265 845 214 831 q 374 860 315 860 q 467 849 422 860 q 547 815 511 839 q 603 753 582 792 q 624 661 624 715 q 615 626 624 642 q 591 599 606 610 q 558 581 576 588 q 522 575 540 575 q 468 588 485 575 q 441 618 451 601 q 417 648 431 635 q 374 661 404 661 q 328 640 346 661 q 311 593 311 619 q 330 526 311 563 q 375 456 349 490 q 431 391 401 421 q 482 342 460 361 q 483 397 483 369 q 489 447 482 425 q 514 483 496 469 q 569 497 532 497 q 631 482 604 497 q 658 426 658 467 q 653 324 658 375 q 633 222 647 272 m 242 221 q 251 197 242 207 q 272 178 260 186 q 299 167 285 171 q 326 164 314 164 q 346 167 336 164 q 363 176 356 169 q 313 224 336 199 q 265 275 289 249 q 250 249 258 264 q 242 221 242 233 z "},"(":{"ha":515,"x_min":81,"x_max":497,"o":"m 81 401 q 90 528 81 465 q 122 651 100 592 q 177 765 143 711 q 261 861 211 818 q 331 913 297 892 q 413 933 364 933 q 451 923 435 933 q 477 897 467 913 q 492 860 488 881 q 497 821 497 840 q 484 780 497 799 q 452 744 471 761 q 413 714 433 728 q 378 688 393 700 q 335 631 353 667 q 305 555 317 596 q 288 473 293 514 q 283 400 283 432 q 310 240 283 311 q 406 106 338 168 q 436 81 421 92 q 467 57 451 69 q 485 27 482 44 q 488 -8 488 10 q 482 -44 488 -25 q 466 -81 476 -64 q 440 -108 456 -97 q 406 -119 425 -119 q 360 -107 388 -119 q 306 -77 333 -94 q 255 -40 279 -60 q 218 -8 231 -21 q 153 81 179 32 q 110 182 126 129 q 88 290 94 235 q 81 401 81 346 z "},")":{"ha":494,"x_min":57,"x_max":474,"o":"m 474 401 q 444 182 474 290 q 335 -8 414 74 q 299 -40 322 -21 q 248 -77 275 -60 q 194 -107 221 -94 q 149 -119 167 -119 q 114 -108 129 -119 q 88 -81 99 -97 q 72 -44 78 -64 q 67 -8 67 -25 q 69 27 67 10 q 88 57 72 44 q 117 80 101 69 q 147 103 132 90 q 243 238 215 165 q 271 400 271 310 q 266 473 271 432 q 249 555 261 514 q 219 631 238 596 q 176 688 201 667 q 141 714 161 700 q 102 744 121 728 q 70 780 83 761 q 57 821 57 799 q 82 893 57 863 q 150 924 107 924 q 228 908 199 924 q 292 861 257 893 q 376 765 342 818 q 433 652 411 711 q 464 529 454 593 q 474 401 474 465 z "},"{":{"ha":400,"x_min":15,"x_max":374,"o":"m 92 706 q 98 778 92 747 q 119 832 104 808 q 156 876 133 856 q 214 921 179 897 q 251 940 232 932 q 292 949 271 949 q 330 938 314 949 q 356 910 346 926 q 369 873 365 893 q 374 833 374 853 q 358 785 374 800 q 325 761 343 769 q 292 746 307 753 q 276 719 276 739 q 288 631 276 675 q 300 542 300 588 q 282 463 300 500 q 235 396 264 425 q 283 337 261 368 q 304 265 304 306 q 298 223 304 243 q 285 183 292 203 q 272 143 278 163 q 265 103 265 124 q 274 83 265 92 q 295 67 283 74 q 319 54 307 60 q 340 44 332 49 q 357 22 354 36 q 360 -8 360 7 q 355 -42 360 -24 q 340 -76 350 -60 q 317 -103 331 -92 q 285 -114 303 -114 q 202 -102 240 -114 q 135 -67 164 -90 q 91 -9 107 -44 q 75 74 75 26 q 80 123 75 99 q 91 171 85 147 q 102 218 97 194 q 107 267 107 242 q 92 298 107 288 q 61 319 78 308 q 30 349 44 331 q 15 403 15 367 q 30 453 15 438 q 61 480 44 469 q 92 501 78 490 q 107 539 107 513 q 99 622 107 581 q 92 706 92 664 z "},"}":{"ha":408,"x_min":35,"x_max":393,"o":"m 317 706 q 309 622 317 664 q 301 539 301 581 q 316 501 301 513 q 347 480 331 490 q 378 453 364 469 q 393 403 393 438 q 378 349 393 367 q 347 319 364 331 q 316 298 331 308 q 301 267 301 288 q 306 218 301 242 q 317 171 311 194 q 328 123 324 147 q 333 74 333 99 q 317 -9 333 26 q 274 -67 301 -44 q 207 -102 246 -90 q 124 -114 168 -114 q 92 -103 106 -114 q 68 -76 78 -92 q 53 -42 58 -60 q 49 -8 49 -24 q 51 22 49 7 q 68 44 54 36 q 89 54 76 49 q 113 67 101 60 q 134 83 125 74 q 143 103 143 92 q 137 143 143 124 q 124 183 131 163 q 110 223 117 203 q 104 265 104 243 q 126 337 104 306 q 174 396 147 368 q 126 463 143 425 q 108 542 108 500 q 120 631 108 588 q 132 719 132 675 q 117 746 132 739 q 83 761 101 753 q 50 785 65 769 q 35 833 35 800 q 39 873 35 853 q 53 910 43 893 q 78 938 63 926 q 117 949 94 949 q 206 928 168 949 q 268 873 243 907 q 305 795 293 839 q 317 706 317 751 z "},"|":{"ha":415,"x_min":121,"x_max":322,"o":"m 121 -37 q 127 96 121 29 q 133 231 133 163 q 131 352 133 292 q 129 474 129 413 l 129 574 l 131 772 l 131 872 q 158 939 131 914 q 225 964 185 964 q 294 942 265 964 q 322 878 322 921 q 316 541 322 708 q 310 204 310 374 q 316 80 310 142 q 322 -44 322 18 q 294 -116 322 -89 q 221 -143 265 -143 q 147 -114 172 -143 q 121 -37 121 -85 z "},"[":{"ha":474,"x_min":85,"x_max":453,"o":"m 358 -115 q 310 -114 335 -115 q 263 -112 286 -112 l 238 -112 l 189 -115 q 133 -110 154 -115 q 102 -93 113 -106 q 88 -59 92 -81 q 85 -4 85 -37 q 90 394 85 196 q 96 793 96 593 q 97 844 96 821 q 106 887 97 868 q 132 916 114 906 q 185 926 150 926 l 372 926 q 434 895 415 926 q 453 826 453 864 q 449 794 453 811 q 438 763 446 778 q 417 740 429 749 q 386 731 404 731 q 333 733 358 731 q 279 736 307 735 q 274 507 278 621 q 271 278 271 393 q 272 175 271 226 q 276 72 274 124 q 283 83 278 79 q 296 86 289 86 l 375 86 q 413 76 399 86 q 433 49 426 65 q 442 12 440 32 q 444 -26 444 -8 q 426 -94 444 -74 q 358 -115 407 -115 z "},"]":{"ha":458,"x_min":42,"x_max":410,"o":"m 399 804 q 404 401 399 601 q 410 -3 410 200 q 409 -34 410 -15 q 403 -70 408 -53 q 388 -100 399 -87 q 360 -112 378 -112 l 304 -112 l 192 -115 l 136 -115 q 69 -94 89 -115 q 50 -26 50 -74 q 52 12 50 -8 q 62 49 54 32 q 83 76 69 65 q 121 86 97 86 l 199 86 q 219 82 210 86 q 224 180 222 131 q 225 278 225 229 q 222 507 225 393 q 215 736 219 621 q 162 733 188 735 q 108 731 136 731 q 78 740 90 731 q 57 763 65 749 q 45 794 49 778 q 42 826 42 811 q 61 895 42 864 q 124 926 81 926 l 310 926 q 360 917 342 926 q 386 892 378 908 q 397 853 394 875 q 399 804 399 831 z "},"\\":{"ha":578,"x_min":64,"x_max":533,"o":"m 64 788 q 94 855 64 826 q 161 883 124 883 q 200 875 183 883 q 229 853 217 867 q 251 823 242 840 q 269 788 261 806 q 306 700 282 763 q 358 558 329 638 q 419 388 388 478 q 476 219 450 299 q 517 76 501 139 q 533 -11 533 14 q 521 -44 533 -29 q 490 -72 508 -60 q 451 -90 471 -83 q 415 -96 431 -96 l 408 -96 q 364 -74 382 -92 q 333 -34 346 -57 q 312 15 321 -11 q 296 61 303 40 q 246 212 271 136 q 196 363 221 288 q 176 417 189 383 q 149 493 164 451 q 119 580 135 535 q 92 665 104 625 q 72 738 79 706 q 64 788 64 771 z "},"‘":{"ha":299,"x_min":31,"x_max":272,"o":"m 228 807 q 262 773 251 794 q 272 726 272 751 q 240 638 272 674 q 153 603 208 603 q 64 638 97 603 q 31 728 31 674 q 44 788 31 756 q 79 849 57 821 q 129 897 101 878 q 188 915 157 915 q 225 894 214 915 q 236 850 236 874 q 235 828 236 839 q 228 807 233 818 z "},"’":{"ha":307,"x_min":31,"x_max":272,"o":"m 75 711 q 42 745 53 724 q 31 792 31 767 q 63 881 31 846 q 150 915 94 915 q 239 881 206 915 q 272 790 272 846 q 259 730 272 763 q 224 669 246 697 q 174 622 203 640 q 115 603 146 603 q 78 624 89 603 q 67 668 67 644 q 68 690 67 679 q 75 711 69 701 z "},"“":{"ha":553,"x_min":31,"x_max":528,"o":"m 228 807 q 262 773 251 794 q 272 726 272 751 q 240 638 272 674 q 153 603 208 603 q 64 638 97 603 q 31 728 31 674 q 44 788 31 756 q 79 849 57 821 q 129 897 101 878 q 188 915 157 915 q 225 894 214 915 q 236 850 236 874 q 235 828 236 839 q 228 807 233 818 m 483 807 q 517 773 507 794 q 528 726 528 751 q 496 638 528 674 q 408 603 464 603 q 319 638 353 603 q 286 728 286 674 q 299 788 286 756 q 335 849 313 821 q 385 897 357 878 q 443 915 413 915 q 481 894 471 915 q 492 850 492 874 q 490 828 492 839 q 483 807 489 818 z "},"”":{"ha":546,"x_min":31,"x_max":525,"o":"m 75 711 q 42 745 53 724 q 31 792 31 767 q 63 881 31 846 q 150 915 94 915 q 239 881 206 915 q 272 790 272 846 q 259 730 272 763 q 224 669 246 697 q 174 622 203 640 q 115 603 146 603 q 78 624 89 603 q 67 668 67 644 q 68 690 67 679 q 75 711 69 701 m 329 711 q 294 745 306 724 q 283 792 283 767 q 315 881 283 846 q 403 915 347 915 q 492 881 460 915 q 525 790 525 846 q 512 730 525 763 q 477 669 499 697 q 427 622 456 640 q 368 603 399 603 q 331 624 342 603 q 319 668 319 644 q 329 711 319 693 z "},"‚":{"ha":353,"x_min":31,"x_max":272,"o":"m 72 19 q 40 60 49 35 q 31 113 31 85 q 40 160 31 138 q 65 199 49 182 q 103 226 82 215 q 150 236 125 236 q 239 200 206 236 q 272 110 272 164 q 258 51 272 83 q 222 -10 244 18 q 172 -57 200 -37 q 115 -76 144 -76 q 78 -56 89 -76 q 67 -11 67 -35 q 72 19 67 7 z "},"„":{"ha":553,"x_min":31,"x_max":526,"o":"m 325 24 q 294 65 304 40 q 285 117 285 90 q 294 164 285 142 q 319 203 303 186 q 358 231 336 221 q 404 242 379 242 q 494 206 461 242 q 526 115 526 171 q 513 56 526 89 q 477 -5 499 24 q 427 -53 456 -33 q 369 -72 399 -72 q 331 -51 342 -72 q 321 -7 321 -31 q 325 24 321 10 m 71 24 q 40 65 50 40 q 31 117 31 90 q 40 164 31 142 q 65 203 49 186 q 103 231 82 221 q 150 242 125 242 q 239 206 206 242 q 272 115 272 169 q 258 56 272 89 q 223 -5 244 24 q 173 -53 201 -33 q 115 -72 144 -72 q 77 -51 88 -72 q 67 -7 67 -31 q 71 24 67 10 z "},"•":{"ha":515,"x_min":89,"x_max":438,"o":"m 438 432 q 425 360 438 394 q 390 301 413 326 q 336 260 368 275 q 264 244 304 244 q 137 297 185 244 q 89 426 89 349 q 131 560 89 515 q 263 606 172 606 q 390 559 343 606 q 438 432 438 513 z "},"_":{"ha":532,"x_min":-10,"x_max":540,"o":"m 486 15 q 517 7 506 15 q 533 -15 528 -1 q 540 -44 539 -28 q 540 -75 540 -60 q 539 -108 540 -89 q 531 -143 538 -126 q 514 -172 525 -160 q 483 -183 503 -183 l 74 -183 q 6 -162 22 -183 q -10 -93 -10 -142 q -8 -53 -10 -72 q -1 -20 -7 -35 q 20 3 6 -6 q 60 11 35 11 l 311 11 q 333 11 322 11 q 354 13 343 11 l 442 15 l 486 15 z "},"–":{"ha":785,"x_min":100,"x_max":689,"o":"m 624 486 q 656 478 643 486 q 676 456 669 469 q 686 427 683 443 q 689 394 689 411 q 685 362 689 381 q 674 326 682 343 q 652 299 665 310 q 621 288 639 288 l 183 288 q 116 308 132 288 q 100 378 100 329 q 101 416 100 397 q 110 449 103 435 q 131 473 117 464 q 169 482 144 482 l 460 482 l 501 482 l 582 486 l 624 486 z "},"—":{"ha":882,"x_min":86,"x_max":793,"o":"m 726 486 q 759 478 746 486 q 780 457 772 469 q 790 428 788 444 q 793 394 793 411 q 789 362 793 381 q 776 326 785 343 q 756 299 768 310 q 725 288 743 288 l 169 288 q 102 308 118 288 q 86 378 86 329 q 88 416 86 397 q 95 449 89 435 q 116 473 101 464 q 156 482 131 482 l 299 482 l 583 486 l 726 486 z "},"¯":{"ha":538,"x_min":47,"x_max":483,"o":"m 386 1065 q 461 1041 439 1065 q 483 965 483 1017 q 477 906 483 928 q 456 874 471 885 q 418 860 442 863 q 360 857 394 857 l 306 860 q 292 861 299 861 q 278 861 285 861 q 252 860 265 861 q 226 858 239 860 l 192 857 q 166 856 179 856 q 140 856 153 856 q 69 879 92 856 q 47 951 47 903 q 68 1030 47 999 q 142 1061 89 1061 q 156 1061 149 1061 q 171 1060 164 1061 l 229 1057 l 258 1057 q 322 1061 290 1057 q 386 1065 354 1065 z "},"¬":{"ha":750,"x_min":63,"x_max":675,"o":"m 63 526 q 80 593 63 565 q 139 624 97 621 q 221 626 179 626 q 304 626 263 626 q 427 626 367 626 q 550 625 488 625 q 636 592 600 625 q 672 507 672 558 l 672 486 l 669 444 l 669 424 q 672 383 669 404 q 675 343 675 363 q 653 272 675 303 q 586 242 631 242 q 552 249 569 242 q 521 267 535 256 q 499 294 507 278 q 490 328 490 310 q 490 383 490 354 q 497 436 490 411 q 392 424 447 425 q 283 422 336 422 q 214 422 249 422 q 143 425 179 422 q 81 457 100 428 q 63 526 63 486 z "},"™":{"ha":897,"x_min":17,"x_max":857,"o":"m 400 960 q 454 958 424 960 q 504 940 485 956 q 529 907 515 931 q 557 856 543 883 q 582 801 571 828 q 599 760 593 775 q 618 799 604 771 q 648 856 632 826 q 678 911 664 886 q 699 940 693 936 q 724 956 710 950 q 754 963 739 963 q 789 960 771 963 q 822 949 807 957 q 845 928 836 942 q 854 894 854 915 l 854 839 l 850 728 l 850 672 q 853 619 850 644 q 857 565 857 593 q 825 508 857 526 q 760 489 793 489 q 722 500 735 489 q 701 528 708 511 q 693 565 694 544 q 692 603 692 585 l 692 613 q 678 582 688 603 q 656 540 668 561 q 632 502 644 518 q 608 486 619 486 q 581 503 596 486 q 553 541 567 519 q 528 585 539 563 q 513 617 518 607 q 511 572 513 594 q 501 530 510 549 q 476 499 493 511 q 431 488 460 488 q 369 510 390 488 q 347 574 347 533 q 349 681 347 628 q 354 789 351 735 l 297 790 q 295 744 296 767 q 294 697 294 721 q 296 635 294 672 q 292 564 297 599 q 269 505 286 529 q 213 481 251 481 q 151 503 175 481 q 128 564 128 526 q 131 611 128 588 q 133 658 133 635 l 133 789 q 85 790 107 788 q 48 800 63 792 q 25 827 33 808 q 17 878 17 846 q 19 903 17 889 q 28 929 22 917 q 43 951 33 942 q 67 960 53 960 l 400 960 z "},"®":{"ha":726,"x_min":35,"x_max":674,"o":"m 351 385 q 222 406 281 385 q 122 467 164 428 q 58 564 81 507 q 35 693 35 621 q 58 822 35 764 q 122 923 81 881 q 222 989 164 965 q 351 1013 281 1013 q 477 990 418 1013 q 580 928 536 968 q 649 831 624 888 q 674 706 674 775 q 651 572 674 632 q 586 471 628 513 q 485 407 544 429 q 351 385 425 385 m 122 694 q 183 524 122 588 q 351 460 243 460 q 453 478 408 460 q 529 529 497 496 q 578 608 561 563 q 594 710 594 654 q 574 799 594 758 q 521 868 554 839 q 444 913 488 897 q 354 929 401 929 q 185 865 247 929 q 122 694 122 800 m 451 497 q 411 503 426 497 q 385 519 396 508 q 365 544 374 529 q 343 576 356 558 q 343 547 343 561 q 340 522 343 533 q 327 504 336 511 q 300 497 318 497 q 235 563 235 497 l 235 771 q 213 787 217 778 q 208 815 208 796 q 219 860 208 844 q 246 884 229 876 q 285 892 263 892 q 329 893 307 893 q 393 887 364 893 q 443 865 422 881 q 476 823 464 849 q 488 758 488 797 q 469 694 488 726 q 425 644 451 663 q 447 633 433 632 q 472 632 460 633 q 494 619 485 631 q 503 574 503 608 q 500 549 503 563 q 492 524 497 536 q 476 505 486 513 q 451 497 467 497 m 342 706 q 368 724 360 707 q 376 756 376 742 q 366 778 376 772 q 342 783 356 783 l 342 706 z "},"©":{"ha":1047,"x_min":89,"x_max":993,"o":"m 89 379 q 119 574 89 486 q 206 724 149 661 q 349 821 264 786 q 543 856 433 856 q 729 826 646 856 q 871 739 813 796 q 961 600 929 682 q 993 414 993 518 q 962 219 993 307 q 872 67 931 131 q 726 -31 813 4 q 531 -65 640 -65 q 343 -35 425 -65 q 205 52 261 -6 q 119 192 149 110 q 89 379 89 275 m 544 757 q 399 728 460 757 q 299 648 338 699 q 241 529 260 597 q 222 383 222 461 q 242 251 222 313 q 302 143 263 189 q 399 72 342 97 q 532 46 457 46 q 678 74 617 46 q 781 150 740 101 q 842 267 822 199 q 861 414 861 335 q 839 546 861 483 q 775 655 817 608 q 675 729 733 701 q 544 757 617 757 m 540 76 q 430 106 474 76 q 360 181 386 135 q 324 283 335 226 q 313 396 313 340 q 324 510 313 453 q 361 613 335 567 q 433 688 388 658 q 544 717 478 717 q 644 697 607 717 q 701 644 682 678 q 726 565 721 611 q 732 467 732 519 q 650 383 732 383 q 599 406 613 383 q 580 456 585 429 q 571 506 575 483 q 547 528 567 528 q 513 510 525 528 q 496 470 501 493 q 490 423 490 447 q 489 385 489 399 q 490 350 489 371 q 496 310 490 329 q 513 278 501 292 q 546 265 525 265 q 587 278 578 265 q 601 306 596 290 q 617 335 606 322 q 665 347 628 347 q 721 322 708 347 q 733 258 733 296 q 718 185 733 218 q 676 127 703 151 q 615 90 650 103 q 540 76 581 76 z "},"¤":{"ha":831,"x_min":67,"x_max":756,"o":"m 126 208 q 87 294 99 249 q 75 389 75 340 q 85 476 75 433 q 115 557 94 518 q 101 577 110 565 q 85 603 92 589 q 72 630 78 617 q 67 653 67 643 q 91 719 67 689 q 153 750 115 750 q 210 731 182 750 q 254 689 238 711 q 331 719 292 707 q 413 732 371 732 q 487 726 450 732 q 558 706 524 719 q 605 751 578 729 q 664 774 632 774 q 722 747 696 774 q 747 689 747 721 q 732 638 747 661 q 703 593 717 615 q 744 505 732 553 q 756 408 756 457 q 740 297 756 351 q 689 199 725 243 q 714 108 714 157 q 695 53 714 79 q 644 26 676 26 q 588 47 613 26 q 543 92 563 68 q 475 74 510 81 q 404 68 440 68 q 265 97 332 68 q 225 60 249 76 q 174 44 201 44 q 123 70 140 44 q 106 126 106 96 q 126 208 106 171 m 424 538 q 317 499 351 538 q 283 389 283 460 q 318 297 283 331 q 411 263 353 263 q 515 300 488 263 q 542 408 542 338 q 513 502 542 467 q 424 538 485 538 z "},"¢":{"ha":569,"x_min":33,"x_max":508,"o":"m 193 42 q 104 97 136 58 q 56 185 72 136 q 37 290 40 235 q 33 394 33 344 q 39 498 33 443 q 63 603 44 553 q 114 692 81 653 q 201 747 147 731 q 198 810 200 779 q 196 872 196 840 q 223 939 196 914 q 290 964 250 964 q 359 943 331 964 q 388 878 388 922 q 386 812 388 844 q 382 746 385 779 q 449 703 424 733 q 487 635 474 674 q 503 555 500 597 q 507 475 507 513 q 477 412 507 429 q 407 394 447 394 q 359 408 375 394 q 338 441 343 421 q 333 484 332 461 q 332 527 333 507 q 323 560 331 547 q 296 574 315 574 q 253 551 268 574 q 230 497 238 528 q 221 433 222 465 q 219 382 219 401 q 221 333 219 363 q 229 278 222 304 q 251 233 236 251 q 294 214 267 214 q 335 222 322 214 q 352 241 347 229 q 359 267 357 253 q 367 292 361 281 q 388 312 374 304 q 435 319 403 319 q 494 296 481 319 q 508 232 508 272 q 475 113 508 163 q 374 43 442 63 q 380 6 376 24 q 383 -32 383 -12 q 355 -105 383 -78 q 282 -132 326 -132 q 208 -103 233 -132 q 182 -26 182 -74 q 186 8 182 -10 q 193 42 190 26 z "},"£":{"ha":668,"x_min":51,"x_max":596,"o":"m 51 338 q 75 417 51 396 q 156 438 99 438 l 164 438 q 158 465 161 451 q 151 492 154 478 l 151 490 q 138 549 144 519 q 131 608 131 578 q 147 708 131 663 q 193 786 163 753 q 267 838 224 819 q 367 856 311 856 q 458 838 417 856 q 531 790 500 821 q 578 716 561 758 q 596 625 596 674 q 567 553 596 583 q 494 522 538 522 q 456 534 469 522 q 437 563 443 546 q 428 600 431 579 q 422 638 426 621 q 407 666 417 654 q 376 678 397 678 q 352 670 363 678 q 335 651 342 663 q 326 626 329 640 q 324 601 324 613 q 335 520 324 560 q 354 440 347 481 q 410 439 383 440 q 456 428 436 438 q 488 399 476 419 q 500 343 500 379 q 471 268 500 288 q 392 249 442 249 q 367 249 379 249 q 343 250 356 249 q 333 208 339 229 q 321 167 328 188 l 364 167 q 444 176 406 167 q 521 186 482 186 q 557 174 543 186 q 579 145 571 163 q 591 108 588 128 q 594 69 594 88 q 581 10 594 35 q 528 -15 568 -15 l 453 -15 l 301 -18 l 226 -18 q 181 -16 204 -18 q 138 -6 157 -14 q 107 18 119 1 q 94 64 94 35 q 100 108 94 83 q 113 157 106 132 q 128 206 119 182 q 143 247 138 229 q 73 269 94 250 q 51 338 51 288 z "},"¥":{"ha":781,"x_min":57,"x_max":714,"o":"m 274 303 q 234 300 254 301 q 194 299 214 299 q 128 316 151 299 q 106 379 106 333 q 124 439 106 421 q 183 457 142 457 l 219 457 q 178 515 206 476 q 124 598 151 554 q 77 681 97 642 q 57 742 57 721 q 70 786 57 767 q 103 819 83 806 q 147 840 124 833 q 193 847 171 847 q 228 836 213 847 q 254 808 243 825 q 322 686 290 749 q 386 561 354 624 q 452 685 418 624 q 526 806 486 747 q 552 832 538 821 q 586 843 567 843 q 629 835 607 843 q 670 814 651 828 q 701 781 689 800 q 714 739 714 761 q 713 717 714 728 q 704 697 711 707 q 628 578 668 636 q 553 460 589 521 q 595 458 576 460 q 626 449 614 457 q 646 426 639 442 q 653 382 653 411 q 635 323 653 340 q 576 306 618 306 q 530 306 553 306 q 483 307 507 306 l 483 275 q 538 277 508 275 q 594 274 568 279 q 638 253 621 269 q 656 201 656 238 q 647 155 656 172 q 624 128 639 138 q 589 117 610 119 q 543 114 568 114 l 485 114 q 485 48 485 78 q 477 -3 486 18 q 445 -35 468 -24 q 375 -47 422 -47 q 296 -16 317 -47 q 275 68 275 15 q 276 91 275 79 q 278 114 276 103 q 219 112 250 113 q 164 119 189 111 q 122 146 139 126 q 106 204 106 165 q 113 243 106 229 q 134 265 121 257 q 165 274 147 272 q 203 276 182 276 q 238 276 221 276 q 274 275 256 275 l 274 303 z "},"ƒ":{"ha":460,"x_min":-139,"x_max":494,"o":"m 0 -243 q -53 -242 -28 -243 q -98 -233 -79 -242 q -128 -207 -117 -225 q -139 -154 -139 -189 q -129 -113 -139 -129 q -103 -88 -119 -97 q -67 -76 -87 -79 q -26 -74 -47 -74 q 28 -47 4 -74 q 54 7 51 -21 l 86 392 q 22 415 42 392 q 3 481 3 439 q 26 556 3 535 q 103 576 50 576 q 120 672 108 625 q 156 754 132 718 q 218 813 181 790 q 314 835 256 835 q 372 826 340 835 q 431 800 404 817 q 476 759 458 783 q 494 703 494 735 q 480 641 494 663 q 421 619 465 619 q 371 635 393 619 q 331 669 349 651 q 308 628 311 656 q 304 579 306 600 q 354 578 332 579 q 391 568 376 576 q 413 542 406 560 q 421 490 421 524 q 401 422 421 450 q 336 393 381 393 l 289 393 q 274 193 282 293 q 256 -7 267 93 q 181 -183 244 -124 q 0 -243 118 -243 z "},"−":{"ha":651,"x_min":60,"x_max":588,"o":"m 496 524 q 588 431 588 524 q 565 355 588 383 q 493 326 543 326 l 438 326 l 325 331 l 268 331 q 214 328 240 331 q 160 325 188 325 q 83 350 107 325 q 60 426 60 375 q 76 497 60 474 q 143 521 92 521 l 232 521 l 407 524 l 496 524 z "},"×":{"ha":726,"x_min":125,"x_max":615,"o":"m 125 276 q 139 312 125 292 q 172 351 153 332 q 210 388 190 371 q 242 413 229 404 q 211 438 231 424 q 173 469 192 453 q 140 503 154 486 q 126 538 126 521 q 136 572 126 553 q 161 609 146 592 q 194 638 176 626 q 228 650 213 650 q 265 636 244 650 q 306 603 286 622 q 344 565 326 585 q 371 533 361 546 q 397 565 381 546 q 431 603 413 585 q 467 636 449 622 q 503 650 486 650 q 537 638 518 650 q 574 608 556 626 q 603 572 592 590 q 615 538 615 553 q 601 501 615 519 q 569 465 588 482 q 529 434 550 449 q 496 408 508 419 q 525 383 506 400 q 565 347 544 367 q 599 308 585 326 q 614 276 614 289 q 601 243 614 261 q 572 210 589 225 q 535 184 554 194 q 500 174 515 174 q 467 186 486 174 q 428 215 447 199 q 393 250 410 232 q 367 278 376 268 q 340 247 354 265 q 311 210 326 228 q 278 181 296 193 q 242 168 261 168 q 208 180 228 168 q 169 208 188 192 q 138 244 151 225 q 125 276 125 263 z "},"÷":{"ha":692,"x_min":58,"x_max":621,"o":"m 442 668 q 410 592 442 622 q 335 563 379 563 q 263 589 289 563 q 236 661 236 615 q 262 735 236 707 q 335 763 288 763 q 410 738 379 763 q 442 668 442 714 m 529 525 q 621 432 621 525 q 599 356 621 383 q 525 328 576 328 q 419 330 472 328 q 314 332 367 332 q 236 329 275 332 q 158 326 197 326 q 82 351 106 326 q 58 428 58 375 q 74 498 58 475 q 140 521 89 521 l 238 521 l 432 525 l 529 525 m 450 204 q 419 128 450 158 q 344 99 389 99 q 271 125 297 99 q 244 199 244 151 q 269 272 244 244 q 343 299 294 299 q 419 275 388 299 q 450 204 450 251 z "},"¦":{"ha":371,"x_min":86,"x_max":283,"o":"m 189 965 q 251 944 232 965 q 277 890 271 922 q 281 823 283 858 q 279 758 279 788 q 278 635 279 697 q 268 513 278 574 q 249 458 261 475 q 197 440 238 440 l 174 440 q 124 465 140 440 q 101 525 107 490 q 94 596 94 560 q 94 654 94 632 q 97 767 94 711 q 99 879 99 822 q 126 940 99 915 q 189 965 153 965 m 86 -11 q 86 70 86 25 q 87 163 86 115 q 90 254 88 210 q 97 333 93 299 q 125 383 103 372 q 183 394 147 394 q 239 383 217 394 q 265 335 261 372 q 268 272 268 303 q 269 210 268 240 q 274 94 272 151 q 275 -21 275 38 q 252 -99 275 -67 q 179 -132 229 -132 q 135 -122 153 -132 q 106 -94 117 -111 q 90 -56 94 -78 q 86 -11 86 -35 z "},"·":{"ha":383,"x_min":63,"x_max":321,"o":"m 321 446 q 289 338 321 379 q 186 297 257 297 q 91 335 119 297 q 63 435 63 372 q 70 490 63 464 q 93 535 78 515 q 132 566 108 554 q 186 578 156 578 q 321 446 321 578 z "},"°":{"ha":447,"x_min":28,"x_max":418,"o":"m 28 749 q 44 825 28 789 q 88 888 60 861 q 151 931 115 915 q 228 947 188 947 q 301 933 267 947 q 362 893 336 918 q 403 834 388 868 q 418 761 418 800 q 361 616 418 669 q 214 563 304 563 q 142 578 176 563 q 83 618 108 593 q 43 677 58 643 q 28 749 28 711 m 188 756 q 199 728 188 739 q 226 717 210 717 q 254 728 242 717 q 267 756 267 739 q 255 784 267 771 q 226 797 243 797 q 199 784 210 797 q 188 756 188 771 z "},"ª":{"ha":558,"x_min":33,"x_max":544,"o":"m 196 554 q 127 573 157 554 q 76 621 97 592 q 44 686 56 650 q 33 757 33 722 q 53 851 33 808 q 105 926 72 894 q 182 974 138 957 q 276 992 226 992 q 342 984 311 992 q 397 959 374 976 q 433 915 419 942 q 446 849 446 888 q 435 790 446 818 q 422 731 424 761 l 431 725 q 443 739 440 725 q 450 770 446 753 q 463 801 454 788 q 492 815 471 815 q 517 807 507 815 q 533 786 526 799 q 542 759 539 774 q 544 733 544 744 q 533 668 544 700 q 499 611 521 636 q 449 571 478 586 q 385 556 419 556 q 332 576 353 556 q 300 625 311 597 q 256 576 282 597 q 196 554 231 554 m 204 754 q 210 743 204 749 q 231 756 219 743 q 251 784 242 768 q 268 816 261 800 q 276 840 275 832 q 269 846 274 844 q 261 847 265 847 q 236 837 247 847 q 218 812 225 826 q 208 781 211 797 q 204 754 204 765 m 368 533 q 444 516 419 533 q 469 443 469 499 q 456 375 469 403 q 396 347 442 347 q 370 348 383 347 q 344 349 357 349 l 310 351 q 284 353 297 353 q 258 353 271 353 q 198 349 228 353 q 138 346 168 346 q 74 368 93 346 q 56 433 56 390 q 77 505 56 483 q 149 526 99 526 q 195 524 172 526 q 242 522 218 522 q 305 528 274 522 q 368 533 336 533 z "},"º":{"ha":490,"x_min":40,"x_max":450,"o":"m 247 560 q 166 576 204 560 q 100 619 128 592 q 56 685 72 647 q 40 767 40 724 q 56 852 40 813 q 98 921 71 892 q 164 967 125 950 q 250 983 203 983 q 333 969 296 983 q 396 927 369 954 q 436 863 422 900 q 450 779 450 825 q 399 622 450 683 q 247 560 347 560 m 203 774 q 214 735 203 754 q 247 717 225 717 q 290 733 271 717 q 308 774 308 749 q 292 810 308 797 q 254 824 276 824 q 203 774 203 824 m 328 542 q 378 540 356 542 q 415 529 400 538 q 439 503 431 521 q 447 451 447 485 q 434 381 447 410 q 372 353 421 353 q 316 356 344 353 q 260 358 288 358 q 198 355 228 358 q 136 351 168 351 q 72 374 90 351 q 53 440 53 396 q 81 522 53 501 q 164 542 110 542 l 328 542 z "},"¹":{"ha":393,"x_min":38,"x_max":328,"o":"m 38 753 q 59 812 38 781 q 112 869 81 843 q 178 913 143 896 q 240 931 214 931 q 301 908 275 931 q 328 850 328 886 l 328 757 l 324 574 l 324 481 q 303 408 324 433 q 233 382 282 382 q 164 410 185 382 q 143 483 143 438 q 145 581 143 532 q 147 678 147 629 q 123 662 136 671 q 96 653 110 653 q 68 663 79 653 q 50 690 57 674 q 40 723 43 706 q 38 753 38 740 z "},"²":{"ha":492,"x_min":38,"x_max":439,"o":"m 49 451 q 81 536 49 499 q 153 608 114 574 q 226 674 193 642 q 258 742 258 706 q 247 765 258 758 q 221 771 236 771 q 195 756 201 771 q 183 722 189 740 q 163 689 176 704 q 115 674 149 674 q 60 700 82 674 q 38 758 38 726 q 55 826 38 794 q 100 880 72 857 q 163 916 128 903 q 231 929 197 929 q 308 919 272 929 q 371 887 344 908 q 413 832 397 865 q 428 754 428 799 q 400 635 428 688 q 322 539 372 582 q 348 541 335 540 q 375 542 361 542 q 425 517 411 542 q 439 460 439 492 q 421 402 439 426 q 367 378 403 378 l 331 378 l 257 382 l 221 382 l 169 382 q 126 381 147 382 q 87 386 104 381 q 59 406 69 392 q 49 451 49 421 z "},"³":{"ha":500,"x_min":60,"x_max":457,"o":"m 406 654 q 457 546 457 614 q 440 465 457 497 q 396 413 424 432 q 330 385 368 393 q 249 376 292 376 q 178 390 213 376 q 118 426 144 403 q 76 480 92 449 q 60 549 60 511 q 78 606 60 579 q 131 633 96 633 q 181 617 167 633 q 202 581 194 601 q 218 545 210 561 q 250 529 226 529 q 276 533 263 529 q 290 553 290 536 q 275 581 290 576 q 242 588 260 585 q 208 602 224 590 q 193 651 193 614 q 208 691 193 682 q 240 705 222 700 q 272 719 257 710 q 286 758 286 728 q 257 789 286 789 q 224 771 235 789 q 204 731 213 753 q 183 692 196 710 q 143 674 171 674 q 88 699 111 674 q 64 757 64 725 q 81 826 64 794 q 126 880 99 857 q 189 916 154 903 q 258 929 224 929 q 340 922 304 929 q 401 897 376 915 q 440 846 426 878 q 453 763 453 814 q 441 703 453 731 q 406 654 429 675 z "},"‰":{"ha":1815,"x_min":65,"x_max":1783,"o":"m 307 343 q 202 363 247 343 q 126 419 157 383 q 81 503 96 454 q 65 608 65 551 q 128 806 65 731 q 318 881 190 881 q 502 810 440 881 q 564 621 564 739 q 547 510 564 561 q 498 422 531 460 q 417 364 465 385 q 307 343 369 343 m 964 772 q 958 738 964 756 q 943 704 951 719 q 839 527 894 614 q 728 353 783 440 q 638 210 683 282 q 547 68 593 139 q 524 34 538 54 q 494 -5 511 14 q 459 -36 478 -24 q 421 -49 440 -49 q 348 -20 376 -49 q 319 53 319 8 q 339 109 319 71 q 384 190 358 147 q 435 270 410 232 q 472 326 460 308 q 606 541 543 432 q 733 758 668 650 q 758 797 744 778 q 787 832 771 817 q 823 857 803 847 q 868 867 843 867 q 935 839 907 867 q 964 772 964 811 m 251 604 q 253 572 251 590 q 263 536 256 553 q 281 508 269 519 q 313 497 293 497 q 345 509 332 497 q 367 538 358 521 q 378 576 375 556 q 382 611 382 596 q 379 645 382 626 q 369 681 376 664 q 349 708 361 697 q 318 719 338 719 q 284 708 297 719 q 264 678 271 696 q 254 640 257 660 q 251 604 251 621 m 988 -43 q 882 -24 928 -43 q 806 31 836 -4 q 761 114 776 65 q 746 219 746 163 q 762 333 746 281 q 810 423 778 385 q 892 483 843 461 q 1004 504 940 504 q 1113 483 1067 504 q 1190 426 1160 463 q 1234 338 1219 389 q 1249 229 1249 288 q 1182 31 1249 104 q 988 -43 1115 -43 m 1522 -43 q 1417 -24 1463 -43 q 1341 31 1371 -4 q 1296 114 1311 65 q 1281 219 1281 163 q 1297 333 1281 281 q 1345 423 1313 385 q 1426 483 1378 461 q 1539 504 1475 504 q 1648 483 1601 504 q 1724 426 1694 463 q 1769 338 1754 389 q 1783 229 1783 288 q 1717 31 1783 104 q 1522 -43 1650 -43 m 929 228 q 931 192 929 211 q 940 158 933 174 q 960 133 947 143 q 994 122 974 122 q 1032 133 1018 122 q 1054 159 1046 143 q 1065 194 1063 175 q 1068 232 1068 214 q 1066 268 1068 249 q 1056 304 1064 288 q 1036 333 1049 321 q 1003 344 1024 344 q 966 333 981 344 q 943 305 951 322 q 932 267 935 288 q 929 228 929 246 m 1464 228 q 1466 192 1464 211 q 1475 158 1468 174 q 1495 133 1482 143 q 1529 122 1508 122 q 1567 133 1553 122 q 1589 159 1581 143 q 1600 194 1597 175 q 1603 232 1603 214 q 1601 268 1603 249 q 1591 304 1599 288 q 1571 333 1583 321 q 1538 344 1558 344 q 1501 333 1515 344 q 1478 305 1486 322 q 1467 267 1469 288 q 1464 228 1464 246 z "},"⁄":{"ha":658,"x_min":14,"x_max":658,"o":"m 658 772 q 652 737 658 754 q 638 704 646 719 q 533 527 589 614 q 422 353 478 440 q 333 210 378 282 q 242 68 288 139 q 219 34 232 54 q 189 -5 206 14 q 153 -36 172 -24 q 115 -49 135 -49 q 42 -20 71 -49 q 14 53 14 8 q 33 109 14 71 q 78 190 53 147 q 129 270 104 232 q 167 326 154 308 q 300 541 238 432 q 428 758 363 650 q 452 797 439 778 q 481 832 465 817 q 517 857 497 847 q 563 867 538 867 q 630 839 601 867 q 658 772 658 811 z "},"½":{"ha":1038,"x_min":46,"x_max":1001,"o":"m 46 725 q 67 784 46 753 q 120 842 89 815 q 187 885 151 868 q 249 903 222 903 q 310 881 283 903 q 336 822 336 858 l 336 729 l 332 546 l 332 453 q 311 380 332 406 q 242 354 290 354 q 172 382 193 354 q 151 456 151 410 q 153 553 151 504 q 156 650 156 601 q 131 634 144 643 q 104 625 118 625 q 76 635 88 625 q 58 662 65 646 q 49 695 51 678 q 46 725 46 713 m 806 772 q 799 737 806 754 q 785 704 793 719 q 681 527 736 614 q 569 353 625 440 q 480 210 525 282 q 389 68 435 139 q 366 34 379 54 q 336 -5 353 14 q 301 -36 319 -24 q 263 -49 282 -49 q 190 -20 218 -49 q 161 53 161 8 q 181 109 161 71 q 226 190 200 147 q 276 270 251 232 q 314 326 301 308 q 447 541 385 432 q 575 758 510 650 q 599 797 586 778 q 628 832 613 817 q 665 857 644 847 q 710 867 685 867 q 777 839 749 867 q 806 772 806 811 m 611 35 q 644 119 611 82 q 716 191 676 157 q 788 257 756 225 q 821 325 821 289 q 810 348 821 342 q 783 354 799 354 q 760 339 764 354 q 751 305 756 324 q 736 271 747 286 q 692 256 725 256 q 636 282 658 256 q 614 340 614 308 q 629 408 614 376 q 669 462 644 439 q 726 499 694 485 q 793 513 758 513 q 871 502 835 513 q 933 470 907 492 q 975 415 960 449 q 990 338 990 382 q 976 272 990 303 q 942 215 963 242 q 895 163 921 188 q 844 118 869 139 q 891 123 868 121 q 938 125 914 125 q 988 100 974 125 q 1001 43 1001 75 q 983 -15 1001 10 q 929 -39 965 -39 l 893 -39 l 819 -35 l 783 -35 l 732 -35 q 688 -35 710 -35 q 649 -31 667 -36 q 622 -11 632 -26 q 611 35 611 4 z "},"¼":{"ha":1058,"x_min":67,"x_max":999,"o":"m 67 725 q 88 784 67 753 q 141 842 110 815 q 208 885 172 868 q 269 903 243 903 q 331 881 304 903 q 357 822 357 858 l 357 729 l 353 546 l 353 453 q 332 380 353 406 q 263 354 311 354 q 193 382 214 354 q 172 456 172 410 q 174 553 172 504 q 176 650 176 601 q 152 634 165 643 q 125 625 139 625 q 97 635 108 625 q 79 662 86 646 q 69 695 72 678 q 67 725 67 713 m 826 772 q 820 737 826 754 q 806 704 814 719 q 701 527 757 614 q 590 353 646 440 q 501 210 546 282 q 410 68 456 139 q 387 34 400 54 q 357 -5 374 14 q 322 -36 340 -24 q 283 -49 303 -49 q 210 -20 239 -49 q 182 53 182 8 q 201 109 182 71 q 247 190 221 147 q 297 270 272 232 q 335 326 322 308 q 468 541 406 432 q 596 758 531 650 q 620 797 607 778 q 649 832 633 817 q 685 857 665 847 q 731 867 706 867 q 798 839 769 867 q 826 772 826 811 m 963 469 q 960 371 963 421 q 956 272 958 321 q 983 256 974 267 q 995 230 992 244 q 999 200 999 215 q 999 169 999 185 q 992 130 999 143 q 958 110 986 117 q 935 17 958 51 q 849 -17 913 -17 q 817 -8 831 -17 q 794 13 804 0 q 780 43 785 26 q 775 75 775 60 q 775 90 775 82 q 776 104 775 97 q 715 101 750 103 q 650 107 681 100 q 599 133 619 114 q 578 190 578 151 q 596 257 578 229 q 690 387 642 322 q 792 510 739 451 q 828 536 808 529 q 872 543 847 543 q 934 525 906 543 q 963 469 963 507 m 753 261 l 811 263 l 813 346 l 753 261 z "},"¾":{"ha":1094,"x_min":46,"x_max":1040,"o":"m 392 640 q 443 532 443 600 q 426 451 443 483 q 382 399 410 418 q 316 371 354 379 q 235 363 278 363 q 165 376 199 363 q 104 412 131 389 q 62 466 78 435 q 46 535 46 497 q 64 592 46 565 q 117 619 82 619 q 167 603 153 619 q 188 567 181 588 q 204 531 196 547 q 236 515 213 515 q 263 519 249 515 q 276 539 276 522 q 261 567 276 563 q 228 574 246 571 q 194 588 210 576 q 179 638 179 600 q 194 677 179 668 q 226 691 208 686 q 258 705 243 696 q 272 744 272 714 q 243 775 272 775 q 210 757 221 775 q 190 717 199 739 q 169 678 182 696 q 129 660 157 660 q 74 685 97 660 q 50 743 50 711 q 67 812 50 781 q 113 866 85 843 q 175 902 140 889 q 244 915 210 915 q 326 908 290 915 q 388 883 363 901 q 426 832 413 864 q 439 749 439 800 q 427 689 439 717 q 392 640 415 661 m 868 772 q 862 737 868 754 q 847 704 856 719 q 743 527 799 614 q 632 353 688 440 q 542 210 588 282 q 451 68 497 139 q 428 34 442 54 q 399 -5 415 14 q 363 -36 382 -24 q 325 -49 344 -49 q 252 -20 281 -49 q 224 53 224 8 q 243 109 224 71 q 288 190 263 147 q 339 270 314 232 q 376 326 364 308 q 510 541 447 432 q 638 758 572 650 q 662 797 649 778 q 691 832 675 817 q 727 857 707 847 q 772 867 747 867 q 840 839 811 867 q 868 772 868 811 m 1004 469 q 1002 371 1004 421 q 997 272 1000 321 q 1024 256 1015 267 q 1037 230 1033 244 q 1040 200 1040 215 q 1040 169 1040 185 q 1034 130 1040 143 q 1000 110 1028 117 q 977 17 1000 51 q 890 -17 954 -17 q 859 -8 872 -17 q 836 13 846 0 q 822 43 826 26 q 817 75 817 60 q 817 90 817 82 q 818 104 817 97 q 757 101 792 103 q 692 107 722 100 q 640 133 661 114 q 619 190 619 151 q 638 257 619 229 q 732 387 683 322 q 833 510 781 451 q 869 536 850 529 q 914 543 889 543 q 976 525 947 543 q 1004 469 1004 507 m 794 261 l 853 263 l 854 346 l 794 261 z "},"μ":{"ha":676,"x_min":67,"x_max":657,"o":"m 67 -144 q 72 56 67 -44 q 78 256 78 156 q 75 438 78 344 q 86 618 72 531 q 126 678 93 657 q 194 699 158 699 q 225 692 207 699 q 260 676 243 686 q 288 653 276 667 q 300 626 300 640 q 294 465 300 546 q 288 304 288 385 q 288 289 288 299 q 292 269 289 279 q 299 253 294 260 q 311 246 303 246 q 350 269 335 246 q 376 327 365 292 q 393 405 388 363 q 401 488 399 447 q 405 562 404 529 q 406 610 406 594 q 416 645 406 629 q 442 672 426 661 q 478 690 458 683 q 514 696 497 696 q 582 676 550 696 q 614 615 614 657 q 605 435 614 524 q 596 254 596 346 q 613 222 603 242 q 633 180 624 201 q 650 138 643 158 q 657 104 657 118 q 646 63 657 85 q 618 24 635 42 q 581 -5 601 7 q 540 -17 560 -17 q 508 -4 522 -17 q 484 26 494 8 q 466 63 474 43 q 451 94 458 82 q 390 51 428 67 q 315 36 351 36 q 281 43 297 36 q 250 61 265 50 q 258 23 256 53 q 262 -42 261 -7 q 263 -107 263 -76 q 263 -147 263 -137 q 236 -213 263 -187 q 169 -239 210 -239 q 133 -231 151 -239 q 99 -211 114 -224 q 76 -181 85 -199 q 67 -144 67 -164 z "},"¶":{"ha":875,"x_min":78,"x_max":826,"o":"m 546 700 q 542 536 543 617 q 540 372 540 456 q 538 237 540 304 q 532 101 535 169 q 530 36 531 69 q 526 -29 529 3 q 497 -77 524 -64 q 439 -90 469 -90 q 410 -85 426 -90 q 378 -72 393 -81 q 353 -51 364 -64 q 343 -24 343 -39 l 346 296 q 242 322 290 303 q 157 372 193 340 q 99 449 121 404 q 78 556 78 494 q 119 718 78 651 q 228 825 161 785 q 377 883 294 865 q 542 901 460 901 q 659 899 599 901 q 775 885 719 896 q 817 853 807 878 q 826 800 826 828 q 824 772 826 789 q 814 740 821 756 q 797 714 807 725 q 772 703 788 703 l 740 703 q 733 565 735 633 q 732 428 732 497 q 733 247 732 336 q 735 65 735 157 q 735 10 735 38 q 728 -40 736 -18 q 702 -76 721 -62 q 644 -89 683 -89 q 619 -85 633 -89 q 592 -73 604 -81 q 570 -54 579 -65 q 561 -29 561 -43 q 560 101 561 38 q 560 232 560 165 q 563 466 560 350 q 569 700 567 582 l 546 700 z "},"§":{"ha":847,"x_min":93,"x_max":804,"o":"m 185 204 q 222 194 210 204 q 243 168 235 183 q 258 135 251 153 q 278 103 265 118 q 313 77 290 88 q 372 67 335 67 q 389 68 379 67 q 408 72 399 69 q 425 81 418 75 q 432 96 432 86 q 417 107 432 99 q 385 125 403 115 q 350 144 367 135 q 329 154 333 153 q 246 202 286 178 q 174 258 206 226 q 124 330 143 289 q 106 426 106 371 q 152 570 106 508 q 276 658 199 632 q 313 739 288 704 q 372 797 338 774 q 449 833 407 821 q 536 846 492 846 q 624 831 579 846 q 704 788 668 815 q 763 722 740 761 q 786 635 786 683 q 782 588 786 610 q 767 547 778 565 q 737 519 756 529 q 689 508 718 508 q 628 521 653 508 q 604 575 604 533 q 603 608 604 594 q 597 632 603 622 q 578 646 590 642 q 540 650 565 650 q 494 636 517 650 q 471 596 471 622 q 496 555 471 572 q 558 521 521 538 q 638 485 594 504 q 717 439 681 467 q 779 372 754 411 q 804 276 804 333 q 756 144 804 197 q 636 67 707 90 q 601 -17 628 19 q 536 -76 574 -53 q 454 -112 499 -100 q 365 -124 410 -124 q 267 -105 315 -124 q 179 -53 218 -86 q 117 24 140 -21 q 93 122 93 69 q 119 185 93 165 q 185 204 144 204 m 318 453 q 307 422 307 438 q 340 379 307 401 q 419 335 374 357 q 509 290 464 313 q 578 247 554 268 q 590 256 585 250 q 596 269 596 261 q 581 281 596 272 q 549 298 567 289 q 515 316 531 307 q 494 326 499 325 q 399 380 446 351 q 318 453 353 408 z "},"†":{"ha":614,"x_min":15,"x_max":589,"o":"m 15 660 q 33 733 15 711 q 104 754 51 754 q 155 754 129 754 q 206 753 181 754 q 208 810 206 783 q 219 858 210 838 q 250 890 229 878 q 308 901 271 901 q 382 881 350 901 q 414 814 414 860 q 414 801 414 807 q 413 788 414 794 l 413 789 l 408 754 q 449 756 429 754 q 490 758 469 758 q 563 737 538 758 q 589 667 589 715 q 568 592 589 624 q 500 561 547 561 q 450 562 475 561 q 400 563 425 563 q 396 478 397 521 q 394 393 394 436 q 401 185 394 289 q 407 -24 407 81 q 378 -103 407 -75 q 299 -132 350 -132 q 218 -103 246 -132 q 190 -22 190 -75 q 198 194 190 86 q 206 411 206 303 l 206 563 q 192 560 199 560 q 178 560 185 560 q 118 560 147 560 q 66 569 89 561 q 29 599 43 578 q 15 660 15 619 z "},"‡":{"ha":601,"x_min":17,"x_max":572,"o":"m 190 4 q 127 1 158 3 q 72 8 96 0 q 32 39 47 17 q 17 104 17 61 q 34 175 17 153 q 103 197 51 197 l 200 197 q 204 381 203 289 q 206 564 206 472 q 172 561 189 563 q 139 560 156 560 q 49 579 82 560 q 17 661 17 599 q 34 733 17 710 q 103 756 51 756 q 154 756 129 756 q 206 754 179 756 q 208 810 206 783 q 219 857 210 836 q 249 890 229 878 q 306 901 269 901 q 377 880 346 901 q 408 814 408 858 q 408 785 408 799 q 406 757 407 772 q 465 758 435 757 q 518 753 494 760 q 557 728 542 747 q 572 667 572 708 q 552 594 572 626 q 488 563 532 563 q 441 563 464 563 q 394 564 418 564 q 390 393 390 479 q 392 296 390 344 q 396 199 393 247 q 431 200 414 199 q 465 201 447 201 q 544 182 515 201 q 572 108 572 163 q 552 36 572 68 q 488 4 532 4 q 446 5 467 4 q 404 7 425 6 q 401 -48 406 -22 q 385 -92 397 -74 q 351 -122 372 -111 q 296 -132 329 -132 q 217 -102 244 -132 q 190 -22 190 -72 l 190 4 z "},"~":{"ha":738,"x_min":69,"x_max":683,"o":"m 601 565 q 638 555 622 565 q 664 528 654 544 q 678 493 674 513 q 683 456 683 474 q 670 385 683 418 q 633 328 657 353 q 576 289 608 303 q 506 275 543 275 q 440 285 471 275 q 380 308 408 296 q 324 330 351 319 q 269 340 297 340 q 226 328 240 340 q 201 300 211 315 q 181 272 192 285 q 146 260 169 260 q 110 272 125 260 q 87 301 96 283 q 74 340 78 319 q 69 378 69 361 q 83 449 69 415 q 121 508 97 482 q 178 550 144 535 q 249 565 211 565 q 314 555 282 565 q 376 532 346 544 q 438 509 407 519 q 503 499 469 499 q 540 509 526 499 q 562 532 553 519 q 579 555 571 544 q 601 565 588 565 z "},"‹":{"ha":465,"x_min":44,"x_max":376,"o":"m 44 401 q 50 435 44 421 q 72 460 56 449 q 171 542 129 497 q 264 625 213 588 q 297 636 279 636 q 331 626 317 636 q 356 599 346 615 q 371 565 365 583 q 376 531 376 547 q 363 490 376 511 q 331 451 350 469 q 290 417 311 432 q 251 396 268 403 q 287 372 265 388 q 328 338 308 357 q 362 298 347 318 q 376 261 376 278 q 368 230 376 247 q 347 197 360 213 q 318 172 333 182 q 289 161 303 161 q 240 183 268 161 q 181 235 211 206 q 123 293 150 264 q 76 335 96 322 q 51 363 57 349 q 44 401 44 378 z "},"›":{"ha":421,"x_min":72,"x_max":404,"o":"m 404 401 q 398 363 404 378 q 372 335 392 349 q 326 293 354 322 q 268 235 299 264 q 209 183 238 206 q 160 161 181 161 q 131 172 146 161 q 102 197 115 182 q 81 230 89 213 q 72 261 72 247 q 88 300 72 282 q 124 335 103 318 q 165 367 144 351 q 197 396 186 382 q 159 417 181 403 q 118 451 138 432 q 85 490 99 469 q 72 531 72 511 q 78 565 72 547 q 93 599 83 583 q 118 626 103 615 q 151 636 133 636 q 185 625 169 636 q 233 585 211 607 q 278 542 256 564 q 324 500 300 521 q 375 460 347 479 q 399 435 393 449 q 404 401 404 421 z "},"«":{"ha":714,"x_min":33,"x_max":658,"o":"m 33 401 q 39 435 33 421 q 61 460 44 449 q 160 542 118 497 q 253 625 201 588 q 286 636 268 636 q 320 626 306 636 q 344 599 335 615 q 360 565 354 583 q 365 531 365 547 q 352 490 365 511 q 319 451 339 469 q 278 417 300 432 q 240 396 257 403 q 276 372 254 388 q 317 338 297 357 q 351 298 336 318 q 365 261 365 278 q 357 230 365 247 q 335 197 349 213 q 307 172 322 182 q 278 161 292 161 q 228 183 257 161 q 169 235 200 206 q 112 293 139 264 q 65 335 85 322 q 40 363 46 349 q 33 401 33 378 m 326 401 q 332 435 326 421 q 356 460 338 449 q 407 500 383 479 q 453 542 431 521 q 497 585 475 564 q 546 625 519 607 q 579 636 561 636 q 613 626 599 636 q 638 599 628 615 q 653 565 647 583 q 658 531 658 547 q 645 490 658 511 q 613 451 632 469 q 572 417 593 432 q 533 396 550 403 q 569 372 547 388 q 610 338 590 357 q 644 298 629 318 q 658 261 658 278 q 650 230 658 247 q 628 197 642 213 q 600 172 615 182 q 571 161 585 161 q 522 183 550 161 q 463 235 493 206 q 405 293 432 264 q 358 335 378 322 q 333 363 339 349 q 326 401 326 378 z "},"»":{"ha":724,"x_min":51,"x_max":676,"o":"m 676 401 q 670 363 676 378 q 644 335 664 349 q 599 293 626 322 q 540 235 571 264 q 481 183 510 206 q 432 161 453 161 q 403 172 418 161 q 374 197 388 182 q 353 230 361 213 q 344 261 344 247 q 359 298 344 278 q 393 338 374 318 q 434 372 413 357 q 469 396 456 388 q 431 417 453 403 q 390 451 410 432 q 358 490 371 469 q 344 531 344 511 q 350 565 344 547 q 365 599 356 583 q 390 626 375 615 q 424 636 406 636 q 457 625 442 636 q 506 585 483 607 q 550 542 528 564 q 596 500 572 521 q 649 460 619 479 q 671 435 665 449 q 676 401 676 421 m 383 401 q 377 363 383 378 q 351 335 371 349 q 306 293 333 322 q 247 235 278 264 q 188 183 217 206 q 139 161 160 161 q 110 172 125 161 q 81 197 94 182 q 60 230 68 213 q 51 261 51 247 q 66 298 51 278 q 100 338 81 318 q 141 372 119 357 q 176 396 163 388 q 138 417 160 403 q 97 451 117 432 q 65 490 78 469 q 51 531 51 511 q 57 565 51 547 q 72 599 63 583 q 97 626 82 615 q 131 636 113 636 q 164 625 149 636 q 213 585 190 607 q 257 542 235 564 q 303 500 279 521 q 354 460 326 479 q 378 435 372 449 q 383 401 383 421 z "},"˘":{"ha":447,"x_min":39,"x_max":403,"o":"m 335 1125 q 367 1115 354 1125 q 388 1091 381 1106 q 399 1059 396 1076 q 403 1025 403 1042 q 388 956 403 988 q 349 899 374 924 q 290 862 324 875 q 221 849 257 849 q 153 861 186 849 q 94 897 119 874 q 54 950 69 919 q 39 1018 39 981 q 42 1051 39 1033 q 51 1083 44 1068 q 71 1107 58 1097 q 103 1117 83 1117 q 137 1106 125 1117 q 159 1082 149 1094 q 184 1058 169 1069 q 226 1047 199 1047 q 266 1060 254 1047 q 285 1087 278 1072 q 303 1113 293 1101 q 335 1125 313 1125 z "},"˙":{"ha":317,"x_min":63,"x_max":261,"o":"m 261 988 q 254 944 261 967 q 235 905 247 922 q 203 876 222 888 q 161 865 185 865 q 88 901 114 865 q 63 979 63 936 q 88 1058 63 1025 q 161 1090 113 1090 q 233 1061 206 1090 q 261 988 261 1032 z "},"˚":{"ha":436,"x_min":68,"x_max":372,"o":"m 68 988 q 81 1049 68 1021 q 114 1099 93 1078 q 163 1131 135 1119 q 224 1143 192 1143 q 329 1102 286 1143 q 372 997 372 1061 q 362 937 372 965 q 332 887 351 908 q 285 853 313 865 q 225 840 258 840 q 165 851 193 840 q 115 881 136 861 q 81 927 93 900 q 68 988 68 954 m 200 992 q 205 968 200 982 q 222 954 210 954 q 242 970 238 954 q 247 999 247 986 q 244 1024 247 1011 q 224 1036 240 1036 q 204 1019 208 1036 q 200 992 200 1003 z "},"˝":{"ha":679,"x_min":51,"x_max":636,"o":"m 51 926 q 76 976 51 944 q 135 1038 101 1007 q 202 1090 168 1068 q 253 1113 236 1113 q 285 1104 268 1113 q 316 1083 301 1096 q 340 1055 331 1071 q 350 1024 350 1039 q 323 966 350 997 q 258 908 296 935 q 182 863 221 881 q 119 844 143 844 q 98 854 110 844 q 76 877 86 864 q 58 904 65 890 q 51 926 51 918 m 338 926 q 363 976 338 944 q 421 1038 388 1007 q 488 1090 454 1068 q 539 1113 521 1113 q 570 1104 553 1113 q 602 1083 588 1096 q 626 1055 617 1071 q 636 1024 636 1039 q 609 966 636 997 q 544 908 582 935 q 468 863 507 881 q 406 844 429 844 q 384 854 396 844 q 362 877 372 864 q 344 904 351 890 q 338 926 338 918 z "},"˛":{"ha":422,"x_min":69,"x_max":351,"o":"m 275 4 q 269 -33 275 -19 q 255 -54 263 -46 q 241 -69 247 -62 q 235 -83 235 -75 q 247 -100 235 -100 q 269 -95 258 -100 q 292 -90 281 -90 q 338 -114 324 -90 q 351 -165 351 -137 q 324 -235 351 -207 q 254 -262 296 -262 q 185 -249 218 -262 q 126 -213 151 -236 q 85 -159 100 -190 q 69 -90 69 -128 q 81 -36 69 -65 q 113 17 93 -7 q 158 56 132 40 q 211 72 183 72 q 258 53 242 72 q 275 4 275 33 z "},"ˇ":{"ha":583,"x_min":82,"x_max":489,"o":"m 82 1003 q 91 1032 82 1015 q 113 1065 100 1049 q 142 1091 126 1081 q 171 1101 158 1101 q 199 1091 182 1101 q 233 1067 215 1081 q 267 1040 251 1054 q 292 1018 283 1026 q 314 1039 300 1026 q 343 1064 328 1051 q 374 1085 358 1076 q 401 1094 390 1094 q 431 1085 415 1094 q 459 1060 446 1075 q 481 1029 472 1046 q 489 1000 489 1013 q 466 947 489 976 q 410 890 443 917 q 344 846 378 864 q 288 828 310 828 q 238 850 272 828 q 169 901 204 872 q 108 960 135 931 q 82 1003 82 989 z "},"`":{"ha":418,"x_min":51,"x_max":350,"o":"m 350 926 q 343 904 350 918 q 326 877 336 890 q 303 854 315 864 q 282 844 292 844 q 219 863 258 844 q 143 908 181 881 q 78 966 106 935 q 51 1024 51 997 q 61 1055 51 1039 q 85 1083 71 1071 q 117 1104 100 1096 q 149 1113 135 1113 q 199 1090 165 1113 q 267 1038 233 1068 q 325 976 300 1007 q 350 926 350 944 z "},"ˆ":{"ha":550,"x_min":82,"x_max":489,"o":"m 82 928 q 108 971 82 942 q 169 1030 135 1000 q 238 1082 204 1060 q 288 1104 272 1104 q 344 1086 310 1104 q 410 1042 378 1068 q 466 987 443 1017 q 489 933 489 957 q 481 903 489 919 q 459 872 472 886 q 431 847 446 857 q 401 838 415 838 q 374 847 390 838 q 343 868 358 856 q 314 894 328 881 q 292 915 300 907 q 269 893 285 907 q 235 865 253 879 q 199 841 217 851 q 171 831 182 831 q 142 841 158 831 q 113 867 126 851 q 91 899 100 882 q 82 928 82 915 z "},"¨":{"ha":543,"x_min":63,"x_max":469,"o":"m 261 988 q 254 944 261 967 q 235 905 247 922 q 203 876 222 888 q 161 865 185 865 q 88 901 114 865 q 63 979 63 936 q 88 1058 63 1025 q 161 1090 113 1090 q 233 1061 206 1090 q 261 988 261 1032 m 469 988 q 463 944 469 967 q 443 905 456 922 q 412 876 431 888 q 369 865 393 865 q 297 901 322 865 q 271 979 271 936 q 296 1058 271 1025 q 369 1090 321 1090 q 442 1061 414 1090 q 469 988 469 1032 z "},"´":{"ha":438,"x_min":65,"x_max":364,"o":"m 65 926 q 90 976 65 944 q 149 1038 115 1007 q 216 1090 182 1068 q 267 1113 250 1113 q 299 1104 282 1113 q 330 1083 315 1096 q 354 1055 344 1071 q 364 1024 364 1039 q 337 966 364 997 q 272 908 310 935 q 196 863 235 881 q 133 844 157 844 q 112 854 124 844 q 90 877 100 864 q 72 904 79 890 q 65 926 65 918 z "},"¸":{"ha":443,"x_min":101,"x_max":385,"o":"m 125 -74 q 135 -38 125 -57 q 159 -3 144 -19 q 192 24 174 14 q 228 35 211 35 q 269 23 253 35 q 286 -17 286 11 q 285 -26 286 -22 q 285 -35 285 -31 q 297 -53 283 -46 q 321 -64 311 -61 q 372 -101 358 -76 q 385 -164 385 -125 q 367 -229 385 -201 q 323 -276 350 -257 q 262 -306 296 -296 q 194 -315 228 -315 q 128 -297 154 -315 q 101 -233 101 -278 q 110 -183 101 -197 q 158 -168 119 -168 q 172 -169 164 -168 q 189 -169 181 -169 q 203 -164 197 -168 q 208 -150 208 -160 q 195 -135 208 -142 q 167 -121 182 -129 q 138 -101 151 -112 q 125 -74 125 -90 z "},"ß":{"ha":738,"x_min":43,"x_max":710,"o":"m 47 351 l 47 424 l 46 568 l 46 640 q 70 738 46 697 q 134 806 94 779 q 223 847 174 833 q 322 860 272 860 q 422 846 371 860 q 514 804 472 832 q 583 735 556 776 q 610 638 610 693 q 593 551 610 583 q 556 497 576 518 q 518 460 535 475 q 501 431 501 446 q 534 400 501 415 q 606 360 567 385 q 677 297 644 336 q 710 193 710 258 q 686 108 710 146 q 626 44 663 71 q 544 4 589 18 q 458 -10 500 -10 q 333 30 379 -10 q 286 153 286 69 q 301 211 286 183 q 351 239 317 239 q 401 223 389 239 q 421 176 414 207 q 434 155 426 157 q 458 153 442 153 q 480 165 472 153 q 488 189 488 178 q 472 215 488 206 q 434 234 457 225 q 385 253 411 243 q 335 284 358 264 q 297 335 313 304 q 282 417 282 367 q 297 491 282 458 q 331 549 313 524 q 365 593 350 574 q 381 626 381 613 q 361 658 381 650 q 322 667 342 667 q 285 651 299 667 q 266 612 272 635 q 259 564 260 589 q 258 522 258 539 q 265 302 258 411 q 272 82 272 193 q 263 44 272 61 q 238 15 253 28 q 203 -3 222 3 q 165 -10 185 -10 q 126 -3 147 -10 q 85 15 104 3 q 55 44 67 26 q 43 82 43 61 l 43 150 l 47 283 l 47 351 z "},"ð":{"ha":669,"x_min":22,"x_max":649,"o":"m 319 -29 q 193 -4 249 -29 q 99 64 138 21 q 42 166 61 107 q 22 293 22 225 q 45 409 22 357 q 108 498 68 461 q 203 555 149 535 q 319 575 257 575 q 342 574 331 575 q 365 569 354 572 q 336 607 350 589 q 307 643 322 625 q 274 615 294 632 q 233 597 253 597 q 197 611 214 597 q 181 646 181 625 q 199 681 181 665 q 232 706 218 696 q 186 737 206 722 q 167 788 167 751 q 178 823 167 807 q 206 851 189 839 q 242 871 222 864 q 278 878 261 878 q 305 871 290 878 q 335 854 319 864 q 363 833 350 844 q 383 813 375 821 q 403 829 390 818 q 429 849 417 840 q 451 857 442 857 q 493 841 472 857 q 514 801 514 825 q 506 788 514 796 q 486 772 497 779 q 464 758 475 764 q 449 749 453 751 q 525 666 489 717 q 588 558 561 615 q 632 440 615 500 q 649 329 649 381 q 624 195 649 260 q 557 81 600 131 q 453 1 514 31 q 319 -29 393 -29 m 497 713 l 497 711 l 497 713 m 339 408 q 299 399 318 408 q 267 374 281 389 q 245 338 253 358 q 238 297 238 318 q 260 220 238 253 q 331 188 282 188 q 415 218 382 188 q 449 301 449 249 q 417 378 449 349 q 339 408 385 408 z "},"±":{"ha":706,"x_min":88,"x_max":621,"o":"m 258 410 q 197 408 228 410 q 142 413 165 407 q 103 440 118 419 q 88 504 88 461 q 111 585 88 564 q 193 607 135 607 l 261 607 q 259 668 261 639 q 263 720 257 697 q 290 757 269 743 q 354 771 310 771 q 427 754 404 771 q 450 685 450 738 q 450 647 450 665 q 449 608 450 628 l 463 608 q 524 609 496 608 q 572 603 551 610 q 603 575 592 596 q 615 510 615 554 q 595 432 615 454 q 519 410 575 410 q 486 410 503 410 q 451 411 469 411 q 451 353 451 381 q 442 303 450 325 q 413 269 433 282 q 353 256 393 256 q 281 270 306 256 q 257 338 257 285 q 257 374 257 356 q 258 410 257 392 m 531 240 q 621 149 621 240 q 600 72 621 100 q 528 44 579 44 q 415 47 471 44 q 301 49 360 49 q 249 45 275 49 q 194 42 222 42 q 94 143 94 42 q 110 213 94 189 q 176 238 125 238 l 265 238 l 443 239 q 487 240 465 240 q 531 240 508 240 z "},"Þ":{"ha":649,"x_min":51,"x_max":618,"o":"m 186 -40 q 92 -12 132 -40 q 53 75 53 15 l 53 236 q 52 478 53 358 q 51 721 51 599 l 51 761 q 63 798 51 783 q 93 822 75 813 q 132 835 111 831 q 171 839 153 839 q 249 818 215 839 q 282 747 282 797 l 282 713 q 416 700 354 719 q 522 641 478 681 q 592 542 567 601 q 618 410 618 483 q 600 274 618 338 q 544 162 582 210 q 449 87 507 114 q 313 60 392 60 q 297 60 306 60 q 281 61 289 60 q 258 -14 278 13 q 186 -40 238 -40 m 385 414 q 375 451 385 438 q 349 471 365 464 q 315 481 333 478 q 278 485 296 483 l 278 408 q 278 340 278 374 q 279 272 278 307 q 285 272 282 272 q 292 271 289 271 q 338 285 319 271 q 366 320 356 299 q 381 367 376 342 q 385 414 385 392 z "},"þ":{"ha":649,"x_min":51,"x_max":618,"o":"m 186 -40 q 92 -12 132 -40 q 53 75 53 15 l 53 236 q 52 478 53 358 q 51 721 51 599 l 51 761 q 63 798 51 783 q 93 822 75 813 q 132 835 111 831 q 171 839 153 839 q 249 818 215 839 q 282 747 282 797 l 282 713 q 416 700 354 719 q 522 641 478 681 q 592 542 567 601 q 618 410 618 483 q 600 274 618 338 q 544 162 582 210 q 449 87 507 114 q 313 60 392 60 q 297 60 306 60 q 281 61 289 60 q 258 -14 278 13 q 186 -40 238 -40 m 385 414 q 375 451 385 438 q 349 471 365 464 q 315 481 333 478 q 278 485 296 483 l 278 408 q 278 340 278 374 q 279 272 278 307 q 285 272 282 272 q 292 271 289 271 q 338 285 319 271 q 366 320 356 299 q 381 367 376 342 q 385 414 385 392 z "},"a":{"ha":658,"x_min":7,"x_max":651,"o":"m 135 -26 q 39 -1 71 -26 q 7 92 7 25 q 13 158 7 117 q 29 247 19 199 q 51 347 39 294 q 77 447 64 399 q 102 535 90 494 q 124 601 114 576 q 156 685 139 644 q 197 756 172 725 q 256 805 221 786 q 343 824 290 824 q 404 818 374 824 q 461 796 435 813 q 522 726 497 772 q 561 625 546 679 q 586 517 576 571 q 601 425 596 463 q 617 338 608 388 q 633 235 625 288 q 646 134 640 183 q 651 49 651 85 q 641 3 651 21 q 613 -23 631 -14 q 574 -35 596 -32 q 529 -39 553 -39 q 461 -24 485 -39 q 425 17 438 -8 q 407 74 413 42 q 393 140 401 106 l 244 140 q 237 84 240 114 q 223 30 233 54 q 192 -10 213 6 q 135 -26 171 -26 m 369 343 l 369 364 q 368 401 369 372 q 364 459 367 429 q 356 513 361 489 q 342 538 350 538 q 320 510 331 538 q 301 449 310 483 q 288 384 293 415 q 282 343 282 353 l 369 343 z "},"b":{"ha":644,"x_min":38,"x_max":621,"o":"m 297 -43 q 165 -24 215 -43 q 85 33 114 -4 q 47 128 57 71 q 38 260 38 185 l 38 581 q 44 688 38 640 q 72 767 50 735 q 135 817 93 800 q 246 835 176 835 q 378 830 314 835 q 492 803 442 825 q 572 733 542 781 q 601 601 601 686 q 593 543 601 574 q 568 485 585 513 q 528 436 551 457 q 476 408 506 415 q 543 390 515 407 q 588 347 571 374 q 613 286 606 319 q 621 218 621 253 q 594 98 621 147 q 522 17 567 49 q 418 -28 476 -14 q 297 -43 360 -43 m 258 513 q 267 512 263 513 q 275 511 271 511 q 309 515 290 511 q 344 526 328 518 q 372 547 361 533 q 383 579 383 560 q 375 599 383 592 q 354 611 367 607 q 328 617 342 615 q 307 618 315 618 q 284 618 296 618 q 261 615 272 618 q 258 585 258 600 q 258 554 258 569 l 258 513 m 263 197 q 278 172 264 174 q 313 171 293 171 q 353 175 332 171 q 387 192 374 179 q 400 229 400 206 q 386 273 400 256 q 351 301 372 290 q 305 316 329 311 q 260 321 281 321 l 263 197 z "},"c":{"ha":607,"x_min":14,"x_max":594,"o":"m 325 -51 q 156 -15 218 -51 q 63 84 94 22 q 22 226 31 146 q 14 394 14 307 q 24 555 14 475 q 66 698 33 635 q 158 801 99 761 q 318 840 218 840 q 460 815 406 840 q 544 745 514 790 q 583 636 574 700 q 593 493 593 572 q 557 415 593 436 q 471 394 521 394 q 412 410 431 394 q 387 451 393 426 q 381 504 381 476 q 379 557 381 532 q 369 598 378 582 q 335 614 360 614 q 281 586 300 614 q 253 520 263 558 q 242 442 244 482 q 240 379 240 403 q 242 320 240 356 q 252 252 243 285 q 280 197 261 219 q 333 174 299 174 q 383 183 368 174 q 403 207 397 193 q 412 238 410 221 q 422 269 414 256 q 448 293 429 283 q 506 303 467 303 q 578 273 561 303 q 594 194 594 243 q 574 87 594 133 q 518 10 554 40 q 433 -36 482 -21 q 325 -51 383 -51 z "},"d":{"ha":676,"x_min":40,"x_max":649,"o":"m 269 -42 q 184 -35 224 -42 q 115 -8 144 -28 q 67 44 85 11 q 49 129 50 78 q 43 380 46 256 q 40 631 40 504 q 47 717 40 679 q 72 779 54 754 q 124 817 90 804 q 208 829 157 829 q 401 810 318 829 q 538 744 483 790 q 621 620 593 697 q 649 428 649 543 q 631 243 649 329 q 571 94 614 157 q 454 -6 528 31 q 269 -42 381 -42 m 267 196 q 278 176 267 181 q 301 171 289 171 q 365 199 340 171 q 402 267 389 228 q 420 350 415 307 q 425 421 425 393 q 392 556 425 507 q 265 610 358 606 l 267 196 z "},"e":{"ha":539,"x_min":40,"x_max":539,"o":"m 153 -47 q 65 -15 89 -47 q 42 76 42 17 q 41 364 42 221 q 40 651 40 507 q 42 699 40 674 q 52 748 44 725 q 76 787 60 771 q 119 807 92 803 q 276 824 197 818 q 435 829 356 829 q 464 816 450 829 q 488 785 478 803 q 505 747 499 767 q 511 715 511 728 q 509 679 511 697 q 500 647 507 661 q 480 623 493 632 q 444 611 467 614 l 256 596 l 263 510 l 399 510 q 457 481 442 510 q 472 415 472 453 q 470 383 472 401 q 462 347 468 364 q 444 317 456 329 q 414 304 433 304 l 263 304 l 271 181 l 346 181 q 370 190 361 181 q 388 210 379 199 q 409 231 397 222 q 439 240 421 240 q 511 217 483 240 q 539 147 539 193 q 534 58 539 94 q 511 0 529 22 q 460 -33 493 -22 q 371 -46 428 -44 q 306 -47 339 -47 q 240 -47 272 -47 l 153 -47 z "},"f":{"ha":497,"x_min":39,"x_max":486,"o":"m 39 65 q 40 349 39 208 q 40 632 40 489 q 40 703 40 671 q 47 758 39 735 q 76 797 54 782 q 142 815 97 811 q 274 826 208 822 q 407 831 340 831 q 449 820 433 831 q 472 793 464 810 q 483 756 481 776 q 486 714 486 735 q 484 679 486 699 q 475 643 482 660 q 456 615 468 626 q 424 601 443 603 l 263 593 l 258 440 q 310 456 283 450 q 364 463 336 463 q 411 451 393 463 q 438 422 429 440 q 451 381 447 404 q 454 335 454 358 q 431 269 454 286 q 364 244 408 251 q 312 235 338 242 q 260 229 286 229 q 264 165 260 197 q 268 101 268 133 q 265 38 268 65 q 249 -9 261 10 q 213 -37 238 -28 q 147 -46 189 -46 q 60 -22 82 -46 q 39 65 39 1 z "},"g":{"ha":660,"x_min":19,"x_max":640,"o":"m 592 418 q 617 408 607 418 q 631 385 626 399 q 638 356 636 371 q 640 329 640 340 q 627 276 640 301 q 582 251 614 251 q 586 194 586 222 q 517 11 586 74 q 331 -51 449 -51 q 162 -15 224 -51 q 68 84 100 22 q 28 226 36 146 q 19 394 19 307 q 29 555 19 475 q 72 698 39 635 q 164 801 104 761 q 324 840 224 840 q 590 576 590 840 q 556 497 590 519 q 471 474 522 474 q 423 484 438 474 q 403 510 408 494 q 397 544 397 525 q 394 578 397 563 q 380 603 392 593 q 340 614 368 614 q 287 586 306 614 q 259 520 268 558 q 248 442 250 482 q 246 379 246 403 q 247 320 246 356 q 258 252 249 285 q 285 197 267 219 q 339 174 304 174 q 381 183 365 174 q 396 221 396 193 q 395 235 396 228 q 393 251 394 243 q 328 267 344 251 q 311 333 311 282 q 312 362 311 347 q 317 388 313 376 q 333 408 322 400 q 361 415 343 415 l 479 415 q 535 417 507 415 q 592 418 564 418 z "},"h":{"ha":657,"x_min":43,"x_max":617,"o":"m 46 324 q 47 428 46 376 q 47 532 47 479 q 45 615 47 567 q 51 706 43 663 q 84 781 60 750 q 160 811 108 811 q 246 791 213 811 q 279 711 279 771 q 276 596 279 653 q 274 481 274 539 q 331 481 303 481 q 389 483 360 482 l 389 522 l 385 601 l 385 640 q 388 703 385 671 q 404 763 392 736 q 440 806 417 789 q 503 824 464 824 q 565 813 542 824 q 599 782 588 801 q 613 735 610 763 q 617 675 617 708 l 617 522 l 613 215 l 613 63 q 582 -19 613 3 q 496 -42 551 -42 q 427 -22 451 -42 q 391 28 403 -3 q 377 94 379 58 q 375 164 375 131 q 378 221 375 192 q 381 278 381 250 l 272 275 q 277 199 272 236 q 282 122 282 161 q 279 62 282 92 q 266 10 276 32 q 233 -26 256 -12 q 171 -40 211 -40 q 122 -36 144 -40 q 82 -22 99 -32 q 56 8 65 -11 q 46 57 46 26 l 46 324 z "},"i":{"ha":436,"x_min":7,"x_max":418,"o":"m 354 819 q 382 807 371 819 q 400 776 393 794 q 410 740 407 758 q 413 708 413 721 q 393 626 413 660 q 321 592 374 592 q 328 481 326 536 q 331 371 331 426 q 328 281 331 326 q 324 192 326 236 q 396 163 374 192 q 418 88 418 135 q 386 -6 418 28 q 293 -39 354 -39 q 234 -37 264 -39 q 175 -35 204 -36 q 110 -28 140 -33 q 58 -8 81 -22 q 24 31 36 6 q 13 99 13 57 q 34 174 13 156 q 108 193 56 193 q 106 248 106 221 q 106 303 106 275 q 108 443 106 374 q 110 583 110 513 q 29 606 51 583 q 7 688 7 629 q 9 724 7 703 q 19 765 11 744 q 39 799 26 785 q 72 813 51 813 l 354 819 z "},"j":{"ha":497,"x_min":14,"x_max":458,"o":"m 14 128 q 21 171 14 150 q 41 208 28 192 q 73 235 54 225 q 115 246 92 246 q 148 234 138 246 q 165 208 158 222 q 178 181 171 193 q 199 169 185 169 q 219 175 214 169 q 228 194 225 181 q 233 241 233 215 q 233 288 233 267 q 227 483 233 386 q 221 679 221 581 q 226 738 221 711 q 244 783 231 764 q 280 813 257 801 q 338 824 303 824 q 424 803 390 824 q 458 724 458 783 q 456 460 458 590 q 453 196 453 329 q 435 99 453 146 q 385 16 417 53 q 309 -42 353 -21 q 213 -64 265 -64 q 136 -49 172 -64 q 73 -9 100 -35 q 30 51 46 17 q 14 128 14 86 z "},"k":{"ha":672,"x_min":39,"x_max":650,"o":"m 156 -33 q 66 -6 93 -33 q 39 85 39 22 l 39 711 q 72 791 39 764 q 156 818 106 818 q 224 803 200 818 q 260 762 249 788 q 274 703 271 736 q 276 635 276 669 q 273 574 276 604 q 264 515 269 544 q 313 570 293 540 q 349 633 333 600 q 379 701 365 667 q 410 768 393 735 q 449 812 426 801 q 507 822 471 822 q 547 814 526 822 q 585 792 568 806 q 614 760 603 779 q 625 721 625 742 q 623 705 625 713 q 618 690 621 697 q 588 601 606 649 q 546 508 569 553 q 492 423 522 463 q 425 357 463 383 q 449 316 433 340 q 482 269 464 292 q 520 228 500 246 q 560 208 540 211 q 605 197 588 204 q 633 176 622 189 q 647 145 643 164 q 650 97 650 126 q 619 -4 650 31 q 519 -39 588 -39 q 476 -35 496 -39 q 436 -19 456 -32 q 392 26 417 -7 q 342 101 367 60 q 297 181 318 142 q 264 242 276 219 q 274 150 267 196 q 281 58 281 104 q 271 10 281 28 q 244 -18 261 -8 q 203 -31 226 -28 q 156 -33 181 -33 z "},"l":{"ha":497,"x_min":38,"x_max":472,"o":"m 136 -33 q 81 -21 100 -33 q 51 13 61 -8 q 40 60 42 33 q 39 117 39 88 l 39 607 q 38 656 39 625 q 40 717 38 686 q 52 775 43 749 q 81 813 61 801 q 121 825 99 824 q 163 826 143 826 q 217 821 196 826 q 249 801 238 815 q 265 766 261 788 q 269 711 269 744 l 269 621 l 271 440 l 271 350 q 270 311 271 333 q 267 267 269 289 q 261 224 265 244 q 250 188 257 203 q 326 203 285 193 q 401 213 368 213 q 438 197 424 213 q 459 158 451 181 q 469 110 467 135 q 472 69 472 86 q 462 10 472 31 q 432 -20 451 -11 q 387 -30 413 -29 q 329 -31 361 -31 q 265 -32 297 -31 q 200 -33 232 -33 l 136 -33 z "},"m":{"ha":936,"x_min":39,"x_max":899,"o":"m 39 67 q 46 326 39 197 q 64 585 53 454 q 72 663 67 621 q 92 742 78 706 q 135 803 107 779 q 211 828 164 828 q 276 819 253 828 q 321 772 300 810 q 366 676 346 729 q 405 566 386 622 q 441 453 424 510 q 475 349 458 397 q 490 405 485 376 q 500 461 494 433 q 517 537 507 496 q 538 619 526 578 q 565 699 550 660 q 600 767 581 738 q 707 826 639 826 q 794 809 764 826 q 842 736 824 792 q 860 658 851 708 q 874 544 868 607 q 885 413 881 482 q 892 278 889 343 q 897 159 896 214 q 899 71 899 104 q 869 -16 899 6 q 779 -37 840 -37 q 716 -21 738 -37 q 684 22 694 -4 q 672 80 674 47 q 669 144 671 113 l 663 410 q 647 356 657 393 q 624 274 638 319 q 596 181 611 229 q 566 92 581 133 q 537 21 551 50 q 511 -14 522 -8 q 492 -20 504 -18 q 472 -22 481 -22 q 429 -7 449 -22 q 401 31 417 3 q 369 99 386 60 q 335 182 353 138 q 303 268 318 226 q 277 344 289 310 q 258 397 265 379 q 263 244 260 319 q 265 90 265 168 q 260 22 265 49 q 241 -21 256 -6 q 201 -42 226 -36 q 132 -49 175 -49 q 56 -17 72 -49 q 39 67 39 15 z "},"n":{"ha":708,"x_min":33,"x_max":669,"o":"m 163 -42 q 81 -22 113 -42 q 42 50 49 -3 q 34 164 35 107 q 33 276 33 221 q 36 428 33 353 q 42 578 39 503 q 45 653 43 611 q 58 732 47 694 q 94 794 69 769 q 164 819 118 819 q 221 808 193 819 q 268 774 249 796 q 310 700 288 751 q 356 588 333 649 q 402 469 379 528 q 444 378 425 411 q 442 541 444 460 q 439 704 439 622 q 463 788 439 756 q 542 821 488 821 q 588 814 565 821 q 628 793 611 807 q 656 759 646 779 q 667 713 667 739 l 667 635 l 668 479 q 669 440 669 460 q 669 400 669 419 q 667 228 669 315 q 651 57 665 142 q 640 11 647 29 q 622 -17 633 -7 q 592 -31 610 -28 q 544 -35 574 -35 q 478 -9 510 -35 q 422 53 447 17 q 376 128 396 89 q 340 193 356 167 q 297 279 317 235 q 261 369 276 324 q 265 63 265 215 q 163 -42 265 -42 z "},"o":{"ha":704,"x_min":28,"x_max":676,"o":"m 347 -43 q 177 -11 240 -43 q 81 78 114 21 q 38 213 47 135 q 28 385 28 292 q 39 567 28 483 q 86 710 50 650 q 190 805 122 771 q 369 839 257 839 q 527 803 467 839 q 621 709 588 768 q 665 573 654 650 q 676 414 676 496 q 667 236 676 319 q 623 91 657 153 q 524 -7 589 29 q 347 -43 458 -43 m 261 356 q 262 301 261 331 q 271 244 263 271 q 297 201 279 218 q 350 183 315 183 q 403 200 383 183 q 432 242 422 217 q 444 296 442 267 q 447 350 447 325 q 447 417 447 375 q 437 501 446 460 q 408 572 428 542 q 350 603 388 603 q 299 576 317 603 q 272 511 281 549 q 263 435 264 474 q 261 375 261 397 l 261 356 z "},"p":{"ha":619,"x_min":38,"x_max":599,"o":"m 39 411 q 38 466 39 429 q 38 548 38 503 q 43 641 39 593 q 58 728 47 689 q 87 793 68 768 q 133 818 106 818 l 164 818 l 226 821 q 384 814 315 821 q 501 778 453 807 q 574 690 549 749 q 599 528 599 631 q 588 383 599 447 q 544 276 576 319 q 456 210 513 233 q 310 188 400 188 q 288 188 299 188 q 265 190 276 189 q 269 137 265 163 q 274 85 274 111 q 272 30 274 54 q 260 -11 269 6 q 229 -36 250 -28 q 172 -44 208 -44 q 123 -40 147 -44 q 80 -24 99 -36 q 50 7 61 -12 q 39 57 39 26 l 39 411 m 276 371 q 375 406 344 374 q 406 506 406 438 q 384 579 406 547 q 317 611 363 611 q 295 611 306 611 q 274 610 285 611 q 277 559 276 585 q 278 507 278 533 q 277 440 278 474 q 276 371 276 406 z "},"q":{"ha":726,"x_min":28,"x_max":682,"o":"m 597 106 q 640 103 624 106 q 666 91 657 100 q 678 64 675 82 q 682 17 682 46 q 667 -28 682 -8 q 626 -53 651 -47 q 555 -60 593 -60 q 483 -60 517 -60 q 267 -41 354 -60 q 126 27 179 -22 q 51 163 74 76 q 28 385 28 249 q 39 567 28 483 q 86 710 50 650 q 190 805 122 771 q 369 839 257 839 q 539 794 478 839 q 631 680 600 750 q 669 523 661 610 q 676 350 676 436 q 656 221 676 283 q 597 106 635 158 m 261 356 q 262 301 261 331 q 271 244 263 271 q 297 201 279 218 q 350 183 315 183 q 403 200 383 183 q 432 242 422 217 q 444 296 442 267 q 447 350 447 325 q 447 417 447 375 q 437 501 446 460 q 408 572 428 542 q 350 603 388 603 q 299 576 317 603 q 272 511 281 549 q 263 435 264 474 q 261 375 261 397 l 261 356 z "},"r":{"ha":644,"x_min":39,"x_max":639,"o":"m 39 411 q 40 465 39 439 q 40 518 40 492 q 41 596 40 546 q 51 695 42 646 q 81 781 60 744 q 146 818 103 818 l 174 818 l 229 821 q 387 813 318 821 q 503 776 456 806 q 574 689 550 747 q 599 528 599 631 q 592 449 599 489 q 570 372 585 408 q 531 303 556 335 q 471 250 507 272 q 508 215 488 232 q 553 194 528 199 q 592 184 576 190 q 619 167 608 178 q 634 140 629 157 q 639 97 639 124 q 608 -4 639 31 q 508 -39 576 -39 q 465 -35 486 -39 q 425 -19 444 -32 q 385 22 407 -8 q 340 88 363 53 q 299 158 318 124 q 269 213 281 192 l 265 213 q 269 149 265 181 q 274 85 274 117 q 272 30 274 54 q 260 -11 269 6 q 229 -36 250 -28 q 172 -44 208 -44 q 123 -40 147 -44 q 80 -24 99 -36 q 50 7 61 -12 q 39 57 39 26 l 39 411 m 276 393 q 333 399 308 394 q 373 416 357 404 q 397 449 389 428 q 406 506 406 471 q 384 579 406 547 q 317 611 363 611 q 295 611 306 611 q 274 610 285 611 q 277 547 276 578 q 278 485 278 517 l 276 424 l 276 393 z "},"s":{"ha":642,"x_min":15,"x_max":621,"o":"m 117 326 q 158 315 144 326 q 181 288 172 304 q 199 251 190 271 q 221 214 207 231 q 259 186 235 197 q 325 175 283 175 q 343 176 332 175 q 365 181 354 178 q 383 190 375 183 q 390 207 390 197 q 374 219 390 210 q 339 240 358 229 q 301 260 319 250 q 278 271 282 269 q 184 323 229 296 q 105 385 139 350 q 50 465 71 419 q 29 572 29 510 q 53 685 29 635 q 117 772 76 736 q 212 826 158 807 q 325 846 265 846 q 422 829 374 846 q 511 782 471 813 q 576 708 551 751 q 601 613 601 665 q 597 560 601 585 q 580 515 592 535 q 547 484 568 496 q 494 472 526 472 q 427 485 454 472 q 400 546 400 499 q 399 583 400 568 q 392 609 399 599 q 371 624 385 619 q 329 629 357 629 q 278 614 303 629 q 253 568 253 599 q 280 523 253 542 q 348 485 307 504 q 437 446 389 467 q 526 395 485 425 q 594 322 567 365 q 621 215 621 278 q 594 107 621 154 q 525 28 568 60 q 427 -20 482 -4 q 317 -36 372 -36 q 207 -15 261 -36 q 110 42 153 6 q 42 128 68 78 q 15 236 15 178 q 44 306 15 285 q 117 326 72 326 z "},"t":{"ha":546,"x_min":7,"x_max":539,"o":"m 175 586 q 102 585 133 586 q 50 592 71 583 q 18 626 29 601 q 7 706 7 651 q 10 757 7 736 q 23 791 13 778 q 52 810 33 804 q 101 817 71 817 q 135 817 118 817 q 168 818 151 817 l 301 821 l 368 821 l 471 821 q 510 810 496 821 q 530 782 524 799 q 538 744 536 765 q 539 704 539 724 q 519 617 539 649 q 438 586 499 586 l 383 586 l 383 546 q 390 308 383 426 q 397 71 397 190 q 367 -15 397 4 q 274 -35 336 -35 q 189 -15 224 -35 q 154 60 154 4 l 154 71 q 163 329 161 201 q 175 586 165 457 z "},"u":{"ha":663,"x_min":38,"x_max":624,"o":"m 324 -43 q 194 -20 246 -43 q 109 44 142 3 q 63 144 76 86 q 46 274 49 203 q 40 460 43 368 q 38 647 38 553 q 40 713 38 682 q 53 767 42 744 q 90 804 65 790 q 157 818 114 818 q 244 785 219 818 q 269 693 269 751 l 269 296 q 272 269 269 283 q 281 242 275 254 q 298 221 288 229 q 325 213 308 213 q 378 238 360 213 q 406 299 397 264 q 415 372 414 335 q 417 433 417 410 q 416 490 417 461 q 415 546 415 518 l 413 622 q 412 678 413 650 q 411 735 411 707 q 442 799 411 779 q 513 818 472 818 q 576 792 554 818 q 609 730 599 767 q 622 653 619 693 q 624 583 624 613 q 624 465 624 524 q 621 346 624 406 q 609 192 619 264 q 568 69 599 121 q 480 -13 538 17 q 324 -43 422 -43 z "},"v":{"ha":671,"x_min":38,"x_max":656,"o":"m 340 -43 q 294 -42 314 -43 q 257 -33 274 -40 q 226 -12 240 -26 q 199 25 211 1 q 177 90 192 38 q 145 214 163 142 q 108 369 128 286 q 74 525 89 451 q 48 653 58 599 q 38 724 38 708 q 44 777 38 757 q 65 807 51 797 q 101 819 79 817 q 153 822 122 822 q 218 813 196 822 q 261 764 240 803 q 274 719 267 753 q 290 638 282 685 q 305 538 297 592 q 319 435 313 485 q 333 344 326 385 q 343 283 339 304 q 394 516 371 400 q 444 749 417 632 q 456 787 450 772 q 473 809 463 801 q 499 819 483 817 q 539 822 515 822 q 577 816 557 822 q 615 799 597 810 q 644 772 632 788 q 656 735 656 756 q 644 665 656 718 q 616 538 633 611 q 578 383 599 465 q 537 228 557 301 q 501 102 517 156 q 476 32 485 49 q 423 -30 454 -17 q 340 -43 392 -43 z "},"w":{"ha":838,"x_min":21,"x_max":815,"o":"m 194 -35 q 120 -7 146 -35 q 81 65 94 21 q 51 205 63 128 q 32 363 39 282 q 23 522 25 443 q 21 668 21 601 q 22 722 21 693 q 33 774 24 750 q 60 814 42 799 q 113 829 79 829 q 165 822 140 829 q 206 789 189 814 q 219 747 213 779 q 230 672 225 715 q 239 581 235 629 q 245 487 243 532 q 249 406 247 442 q 250 353 250 369 q 263 398 254 367 q 283 469 271 429 q 308 551 294 508 q 333 630 321 593 q 356 692 346 667 q 374 724 367 718 q 396 736 385 733 q 422 739 407 739 q 448 736 438 739 q 469 725 458 733 q 491 693 479 718 q 515 633 503 668 q 540 556 528 597 q 564 477 553 515 q 583 408 575 439 q 596 363 592 378 q 597 444 597 400 q 598 531 597 488 q 600 618 599 575 q 606 697 601 661 q 614 749 608 725 q 631 790 619 772 q 663 818 643 808 q 715 828 683 828 q 794 803 772 828 q 815 724 815 779 q 792 411 815 567 q 742 100 768 256 q 733 49 738 74 q 717 6 728 25 q 686 -24 706 -12 q 635 -35 667 -35 q 578 -27 606 -35 q 528 0 551 -19 q 506 33 518 8 q 482 90 494 57 q 458 160 469 122 q 436 233 446 197 q 418 298 426 268 q 404 343 410 328 q 383 267 397 319 q 353 160 369 215 q 321 58 338 104 q 289 0 304 11 q 245 -27 265 -19 q 194 -35 225 -35 z "},"x":{"ha":685,"x_min":14,"x_max":671,"o":"m 14 74 q 38 147 14 106 q 92 233 61 189 q 156 317 124 276 q 206 385 189 357 q 158 459 189 413 q 95 556 126 506 q 40 653 64 607 q 17 728 17 700 q 47 797 17 772 q 119 822 78 822 q 192 791 160 822 q 251 716 225 760 q 299 626 278 672 q 336 551 319 581 q 372 622 356 586 q 407 693 389 657 q 429 738 418 717 q 455 777 440 760 q 490 805 469 794 q 539 815 510 815 q 614 790 585 815 q 643 717 643 764 q 619 644 643 690 q 564 547 596 597 q 499 453 532 497 q 450 383 467 408 q 478 331 463 363 q 513 269 494 300 q 552 212 531 238 q 596 178 574 186 q 671 69 671 150 q 646 -14 671 11 q 565 -39 621 -39 q 479 -26 513 -39 q 417 32 446 -12 q 368 126 388 76 q 322 224 349 176 q 288 152 307 196 q 245 67 269 108 q 192 -5 221 25 q 125 -35 163 -35 q 42 -9 69 -35 q 14 74 14 17 z "},"y":{"ha":628,"x_min":26,"x_max":606,"o":"m 256 274 q 125 299 171 274 q 58 370 79 325 q 34 475 38 415 q 31 601 31 535 q 29 640 31 621 q 28 679 28 660 q 32 738 28 711 q 48 783 36 764 q 82 812 60 801 q 142 822 104 822 q 231 793 200 822 q 263 703 263 764 q 257 610 263 656 q 251 517 251 564 q 266 483 251 489 q 304 476 281 476 q 342 485 328 476 q 365 507 357 493 q 376 540 374 521 q 379 578 379 558 q 374 653 379 615 q 369 728 369 690 q 381 774 369 756 q 412 802 393 792 q 454 817 431 813 q 500 822 478 822 q 575 802 544 822 q 606 733 606 782 q 599 559 606 646 q 593 385 593 472 q 594 354 593 369 q 594 324 594 339 l 597 283 q 598 253 597 268 q 599 222 599 238 q 576 94 599 146 q 514 10 554 42 q 417 -35 474 -21 q 289 -49 360 -49 q 203 -36 249 -49 q 117 1 157 -24 q 52 63 78 26 q 26 146 26 99 q 37 184 26 165 q 64 217 47 203 q 101 240 81 232 q 139 249 121 249 q 170 233 157 249 q 200 201 183 218 q 242 168 217 183 q 308 153 267 153 q 351 168 336 153 q 374 206 367 183 q 383 253 381 228 q 385 299 385 279 q 385 313 385 306 q 383 326 385 319 q 324 288 357 303 q 256 274 292 274 z "},"z":{"ha":622,"x_min":21,"x_max":607,"o":"m 117 -47 q 69 -33 88 -47 q 40 1 51 -19 q 25 48 29 22 q 21 96 21 74 q 33 181 21 140 q 69 257 46 221 q 205 440 131 353 q 358 608 279 528 q 244 592 300 599 q 129 585 188 585 q 82 594 100 585 q 53 622 64 604 q 39 661 43 639 q 35 708 35 683 q 38 753 35 732 q 49 791 40 775 q 75 817 58 807 q 119 826 92 826 q 304 824 211 826 q 489 814 397 822 q 562 779 535 810 q 589 703 589 749 q 583 617 589 665 q 558 536 576 569 q 501 437 533 489 q 430 334 468 385 q 351 237 392 283 q 272 154 311 190 q 332 174 299 165 q 401 189 365 183 q 471 197 436 194 q 535 200 506 200 q 574 187 560 200 q 596 154 589 174 q 605 113 603 135 q 607 71 607 90 q 605 29 607 49 q 594 -4 603 10 q 571 -26 586 -18 q 529 -33 556 -33 q 323 -40 425 -33 q 117 -47 221 -47 z "},"…":{"ha":1150,"x_min":63,"x_max":1088,"o":"m 321 113 q 289 4 321 46 q 186 -37 257 -37 q 91 1 119 -37 q 63 101 63 39 q 70 156 63 131 q 93 201 78 182 q 132 233 108 221 q 186 244 156 244 q 321 113 321 244 m 704 113 q 672 4 704 46 q 569 -37 640 -37 q 474 1 503 -37 q 446 101 446 39 q 453 156 446 131 q 476 201 461 182 q 515 233 492 221 q 569 244 539 244 q 704 113 704 244 m 1088 113 q 1056 4 1088 46 q 953 -37 1024 -37 q 858 1 886 -37 q 829 101 829 39 q 837 156 829 131 q 860 201 844 182 q 899 233 875 221 q 953 244 922 244 q 1088 113 1088 244 z "},"¡":{"ha":408,"x_min":96,"x_max":329,"o":"m 107 646 q 115 692 107 669 q 138 731 124 714 q 174 760 153 749 q 218 771 194 771 q 296 737 267 771 q 325 656 325 703 q 299 573 325 607 q 219 539 272 539 q 140 568 172 539 q 107 646 107 597 m 329 -26 q 298 -101 329 -75 q 221 -126 267 -126 q 174 -122 197 -126 q 134 -108 151 -118 q 106 -78 117 -97 q 96 -32 96 -60 q 102 119 96 44 q 117 269 108 194 q 124 344 119 306 q 129 418 129 382 q 153 485 129 460 q 219 510 178 510 q 281 485 263 510 q 300 419 300 460 q 304 341 300 381 q 313 263 308 301 q 324 119 319 190 q 329 -26 329 47 z "},"¿":{"ha":649,"x_min":44,"x_max":607,"o":"m 232 640 q 262 726 232 690 q 344 763 292 763 q 420 728 393 763 q 447 649 447 694 q 422 568 447 601 q 346 535 396 535 q 267 564 301 535 q 232 640 232 593 m 325 68 q 379 81 360 68 q 409 111 399 93 q 424 151 419 129 q 437 192 429 174 q 458 222 444 210 q 497 235 471 235 q 574 203 540 235 q 607 126 607 171 q 583 24 607 71 q 518 -58 558 -24 q 427 -113 478 -93 q 324 -133 376 -133 q 213 -121 264 -133 q 124 -80 161 -108 q 65 -6 86 -51 q 44 107 44 40 q 58 194 44 160 q 91 253 71 229 q 136 292 111 276 q 185 322 161 307 q 228 356 208 338 q 257 403 247 374 q 268 442 264 422 q 280 478 272 463 q 302 504 288 494 q 344 514 317 514 q 408 493 381 514 q 435 433 435 472 q 422 329 435 371 q 388 260 408 288 q 344 215 368 232 q 301 184 321 199 q 267 155 281 169 q 254 118 254 140 q 275 76 254 83 q 325 68 296 68 z "},"ı":{"ha":436,"x_min":7,"x_max":418,"o":"m 354 819 q 382 807 371 819 q 400 776 393 794 q 410 740 407 758 q 413 708 413 721 q 393 626 413 660 q 321 592 374 592 q 328 481 326 536 q 331 371 331 426 q 328 281 331 326 q 324 192 326 236 q 396 163 374 192 q 418 88 418 135 q 386 -6 418 28 q 293 -39 354 -39 q 234 -37 264 -39 q 175 -35 204 -36 q 110 -28 140 -33 q 58 -8 81 -22 q 24 31 36 6 q 13 99 13 57 q 34 174 13 156 q 108 193 56 193 q 106 248 106 221 q 106 303 106 275 q 108 443 106 374 q 110 583 110 513 q 29 606 51 583 q 7 688 7 629 q 9 724 7 703 q 19 765 11 744 q 39 799 26 785 q 72 813 51 813 l 354 819 z "},"ﬁ":{"ha":933,"x_min":39,"x_max":915,"o":"m 39 65 q 40 349 39 208 q 40 632 40 489 q 40 703 40 671 q 47 758 39 735 q 76 797 54 782 q 142 815 97 811 q 274 826 208 822 q 407 831 340 831 q 449 820 433 831 q 472 793 464 810 q 483 756 481 776 q 486 714 486 735 q 484 679 486 699 q 475 643 482 660 q 456 615 468 626 q 424 601 443 603 l 263 593 l 258 440 q 310 456 283 450 q 364 463 336 463 q 411 451 393 463 q 438 422 429 440 q 451 381 447 404 q 454 335 454 358 q 431 269 454 286 q 364 244 408 251 q 312 235 338 242 q 260 229 286 229 q 264 165 260 197 q 268 101 268 133 q 265 38 268 65 q 249 -9 261 10 q 213 -37 238 -28 q 147 -46 189 -46 q 60 -22 82 -46 q 39 65 39 1 m 851 819 q 879 807 868 819 q 897 776 890 794 q 907 740 904 758 q 910 708 910 721 q 890 626 910 660 q 818 592 871 592 q 826 481 824 536 q 828 371 828 426 q 826 281 828 326 q 821 192 824 236 q 893 163 871 192 q 915 88 915 135 q 883 -6 915 28 q 790 -39 851 -39 q 731 -37 761 -39 q 672 -35 701 -36 q 608 -28 638 -33 q 556 -8 578 -22 q 522 31 533 6 q 510 99 510 57 q 531 174 510 156 q 606 193 553 193 q 603 248 603 221 q 603 303 603 275 q 605 443 603 374 q 607 583 607 513 q 526 606 549 583 q 504 688 504 629 q 506 724 504 703 q 516 765 508 744 q 536 799 524 785 q 569 813 549 813 l 851 819 z "},"ﬂ":{"ha":994,"x_min":39,"x_max":969,"o":"m 39 65 q 40 349 39 208 q 40 632 40 489 q 40 703 40 671 q 47 758 39 735 q 76 797 54 782 q 142 815 97 811 q 274 826 208 822 q 407 831 340 831 q 449 820 433 831 q 472 793 464 810 q 483 756 481 776 q 486 714 486 735 q 484 679 486 699 q 475 643 482 660 q 456 615 468 626 q 424 601 443 603 l 263 593 l 258 440 q 310 456 283 450 q 364 463 336 463 q 411 451 393 463 q 438 422 429 440 q 451 381 447 404 q 454 335 454 358 q 431 269 454 286 q 364 244 408 251 q 312 235 338 242 q 260 229 286 229 q 264 165 260 197 q 268 101 268 133 q 265 38 268 65 q 249 -9 261 10 q 213 -37 238 -28 q 147 -46 189 -46 q 60 -22 82 -46 q 39 65 39 1 m 633 -33 q 578 -21 597 -33 q 549 13 558 -8 q 538 60 539 33 q 536 117 536 88 l 536 607 q 535 656 536 625 q 538 717 535 686 q 549 775 540 749 q 578 813 558 801 q 618 825 596 824 q 660 826 640 826 q 714 821 693 826 q 747 801 735 815 q 763 766 758 788 q 767 711 767 744 l 767 621 l 768 440 l 768 350 q 767 311 768 333 q 765 267 767 289 q 758 224 763 244 q 747 188 754 203 q 824 203 782 193 q 899 213 865 213 q 935 197 921 213 q 956 158 949 181 q 967 110 964 135 q 969 69 969 86 q 959 10 969 31 q 929 -20 949 -11 q 884 -30 910 -29 q 826 -31 858 -31 q 762 -32 794 -31 q 697 -33 729 -33 l 633 -33 z "},"À":{"ha":658,"x_min":7,"x_max":651,"o":"m 479 926 q 472 904 479 918 q 455 877 465 890 q 433 854 444 864 q 411 844 421 844 q 347 863 386 844 q 272 908 308 881 q 208 966 235 935 q 181 1024 181 997 q 190 1055 181 1039 q 215 1083 200 1071 q 247 1104 229 1096 q 278 1113 264 1113 q 328 1090 294 1113 q 396 1038 363 1068 q 454 976 429 1007 q 479 926 479 944 m 135 -26 q 39 -1 71 -26 q 7 92 7 25 q 13 158 7 117 q 29 247 19 199 q 51 347 39 294 q 77 447 64 399 q 102 535 90 494 q 124 601 114 576 q 156 685 139 644 q 197 756 172 725 q 256 805 221 786 q 343 824 290 824 q 404 818 374 824 q 461 796 435 813 q 522 726 497 772 q 561 625 546 679 q 586 517 576 571 q 601 425 596 463 q 617 338 608 388 q 633 235 625 288 q 646 134 640 183 q 651 49 651 85 q 641 3 651 21 q 613 -23 631 -14 q 574 -35 596 -32 q 529 -39 553 -39 q 461 -24 485 -39 q 425 17 438 -8 q 407 74 413 42 q 393 140 401 106 l 244 140 q 237 84 240 114 q 223 30 233 54 q 192 -10 213 6 q 135 -26 171 -26 m 369 343 l 369 364 q 368 401 369 372 q 364 459 367 429 q 356 513 361 489 q 342 538 350 538 q 320 510 331 538 q 301 449 310 483 q 288 384 293 415 q 282 343 282 353 l 369 343 z "},"Á":{"ha":658,"x_min":7,"x_max":651,"o":"m 181 926 q 206 976 181 944 q 264 1038 231 1007 q 331 1090 297 1068 q 382 1113 364 1113 q 413 1104 396 1113 q 445 1083 431 1096 q 469 1055 460 1071 q 479 1024 479 1039 q 452 966 479 997 q 388 908 425 935 q 311 863 350 881 q 249 844 272 844 q 227 854 239 844 q 205 877 215 864 q 188 904 194 890 q 181 926 181 918 m 135 -26 q 39 -1 71 -26 q 7 92 7 25 q 13 158 7 117 q 29 247 19 199 q 51 347 39 294 q 77 447 64 399 q 102 535 90 494 q 124 601 114 576 q 156 685 139 644 q 197 756 172 725 q 256 805 221 786 q 343 824 290 824 q 404 818 374 824 q 461 796 435 813 q 522 726 497 772 q 561 625 546 679 q 586 517 576 571 q 601 425 596 463 q 617 338 608 388 q 633 235 625 288 q 646 134 640 183 q 651 49 651 85 q 641 3 651 21 q 613 -23 631 -14 q 574 -35 596 -32 q 529 -39 553 -39 q 461 -24 485 -39 q 425 17 438 -8 q 407 74 413 42 q 393 140 401 106 l 244 140 q 237 84 240 114 q 223 30 233 54 q 192 -10 213 6 q 135 -26 171 -26 m 369 343 l 369 364 q 368 401 369 372 q 364 459 367 429 q 356 513 361 489 q 342 538 350 538 q 320 510 331 538 q 301 449 310 483 q 288 384 293 415 q 282 343 282 353 l 369 343 z "},"Â":{"ha":658,"x_min":7,"x_max":651,"o":"m 126 928 q 153 971 126 942 q 214 1030 179 1000 q 283 1082 249 1060 q 332 1104 317 1104 q 388 1086 353 1104 q 454 1042 422 1068 q 510 987 486 1017 q 533 933 533 957 q 525 903 533 919 q 503 872 517 886 q 475 847 490 857 q 446 838 460 838 q 417 847 433 838 q 386 868 401 856 q 357 894 371 881 q 336 915 343 907 q 312 893 328 907 q 278 865 296 879 q 243 841 260 851 q 215 831 226 831 q 187 841 203 831 q 158 867 171 851 q 135 899 144 882 q 126 928 126 915 m 135 -26 q 39 -1 71 -26 q 7 92 7 25 q 13 158 7 117 q 29 247 19 199 q 51 347 39 294 q 77 447 64 399 q 102 535 90 494 q 124 601 114 576 q 156 685 139 644 q 197 756 172 725 q 256 805 221 786 q 343 824 290 824 q 404 818 374 824 q 461 796 435 813 q 522 726 497 772 q 561 625 546 679 q 586 517 576 571 q 601 425 596 463 q 617 338 608 388 q 633 235 625 288 q 646 134 640 183 q 651 49 651 85 q 641 3 651 21 q 613 -23 631 -14 q 574 -35 596 -32 q 529 -39 553 -39 q 461 -24 485 -39 q 425 17 438 -8 q 407 74 413 42 q 393 140 401 106 l 244 140 q 237 84 240 114 q 223 30 233 54 q 192 -10 213 6 q 135 -26 171 -26 m 369 343 l 369 364 q 368 401 369 372 q 364 459 367 429 q 356 513 361 489 q 342 538 350 538 q 320 510 331 538 q 301 449 310 483 q 288 384 293 415 q 282 343 282 353 l 369 343 z "},"Ã":{"ha":658,"x_min":7,"x_max":651,"o":"m 475 1101 q 507 1090 494 1101 q 527 1063 519 1079 q 538 1029 535 1047 q 542 996 542 1011 q 534 942 542 969 q 510 891 526 914 q 472 854 494 868 q 418 840 449 840 q 363 850 388 840 q 320 872 339 860 q 288 894 301 885 q 264 904 275 904 q 255 894 258 904 q 245 872 251 885 q 227 850 239 860 q 194 840 215 840 q 158 851 172 840 q 134 880 143 863 q 122 917 125 897 q 118 956 118 938 q 128 1008 118 982 q 155 1056 138 1035 q 196 1090 172 1076 q 249 1103 219 1103 q 299 1092 275 1103 q 342 1068 322 1081 q 376 1044 363 1056 q 397 1033 390 1033 q 410 1044 404 1033 q 424 1067 415 1054 q 444 1091 432 1081 q 475 1101 456 1101 m 135 -26 q 39 -1 71 -26 q 7 92 7 25 q 13 158 7 117 q 29 247 19 199 q 51 347 39 294 q 77 447 64 399 q 102 535 90 494 q 124 601 114 576 q 156 685 139 644 q 197 756 172 725 q 256 805 221 786 q 343 824 290 824 q 404 818 374 824 q 461 796 435 813 q 522 726 497 772 q 561 625 546 679 q 586 517 576 571 q 601 425 596 463 q 617 338 608 388 q 633 235 625 288 q 646 134 640 183 q 651 49 651 85 q 641 3 651 21 q 613 -23 631 -14 q 574 -35 596 -32 q 529 -39 553 -39 q 461 -24 485 -39 q 425 17 438 -8 q 407 74 413 42 q 393 140 401 106 l 244 140 q 237 84 240 114 q 223 30 233 54 q 192 -10 213 6 q 135 -26 171 -26 m 369 343 l 369 364 q 368 401 369 372 q 364 459 367 429 q 356 513 361 489 q 342 538 350 538 q 320 510 331 538 q 301 449 310 483 q 288 384 293 415 q 282 343 282 353 l 369 343 z "},"Ä":{"ha":658,"x_min":7,"x_max":651,"o":"m 325 988 q 318 944 325 967 q 299 905 311 922 q 267 876 286 888 q 225 865 249 865 q 152 901 178 865 q 126 979 126 936 q 151 1058 126 1025 q 225 1090 176 1090 q 297 1061 269 1090 q 325 988 325 1032 m 533 988 q 526 944 533 967 q 507 905 519 922 q 476 876 494 888 q 433 865 457 865 q 360 901 386 865 q 335 979 335 936 q 360 1058 335 1025 q 433 1090 385 1090 q 506 1061 478 1090 q 533 988 533 1032 m 135 -26 q 39 -1 71 -26 q 7 92 7 25 q 13 158 7 117 q 29 247 19 199 q 51 347 39 294 q 77 447 64 399 q 102 535 90 494 q 124 601 114 576 q 156 685 139 644 q 197 756 172 725 q 256 805 221 786 q 343 824 290 824 q 404 818 374 824 q 461 796 435 813 q 522 726 497 772 q 561 625 546 679 q 586 517 576 571 q 601 425 596 463 q 617 338 608 388 q 633 235 625 288 q 646 134 640 183 q 651 49 651 85 q 641 3 651 21 q 613 -23 631 -14 q 574 -35 596 -32 q 529 -39 553 -39 q 461 -24 485 -39 q 425 17 438 -8 q 407 74 413 42 q 393 140 401 106 l 244 140 q 237 84 240 114 q 223 30 233 54 q 192 -10 213 6 q 135 -26 171 -26 m 369 343 l 369 364 q 368 401 369 372 q 364 459 367 429 q 356 513 361 489 q 342 538 350 538 q 320 510 331 538 q 301 449 310 483 q 288 384 293 415 q 282 343 282 353 l 369 343 z "},"Å":{"ha":658,"x_min":7,"x_max":651,"o":"m 178 988 q 222 1099 178 1054 q 333 1143 267 1143 q 391 1132 364 1143 q 438 1101 418 1121 q 470 1056 458 1082 q 482 997 482 1029 q 472 937 482 965 q 442 887 461 908 q 395 853 422 865 q 335 840 368 840 q 274 851 303 840 q 224 881 246 861 q 190 927 203 900 q 178 988 178 954 m 310 992 q 315 968 310 982 q 331 954 319 954 q 352 970 347 954 q 357 999 357 986 q 353 1024 357 1011 q 333 1036 349 1036 q 313 1019 317 1036 q 310 992 310 1003 m 135 -26 q 39 -1 71 -26 q 7 92 7 25 q 13 158 7 117 q 29 247 19 199 q 51 347 39 294 q 77 447 64 399 q 102 535 90 494 q 124 601 114 576 q 156 685 139 644 q 197 756 172 725 q 256 805 221 786 q 343 824 290 824 q 404 818 374 824 q 461 796 435 813 q 522 726 497 772 q 561 625 546 679 q 586 517 576 571 q 601 425 596 463 q 617 338 608 388 q 633 235 625 288 q 646 134 640 183 q 651 49 651 85 q 641 3 651 21 q 613 -23 631 -14 q 574 -35 596 -32 q 529 -39 553 -39 q 461 -24 485 -39 q 425 17 438 -8 q 407 74 413 42 q 393 140 401 106 l 244 140 q 237 84 240 114 q 223 30 233 54 q 192 -10 213 6 q 135 -26 171 -26 m 369 343 l 369 364 q 368 401 369 372 q 364 459 367 429 q 356 513 361 489 q 342 538 350 538 q 320 510 331 538 q 301 449 310 483 q 288 384 293 415 q 282 343 282 353 l 369 343 z "},"Ç":{"ha":607,"x_min":14,"x_max":594,"o":"m 185 -74 q 188 -53 185 -62 q 197 -33 192 -43 q 94 37 131 -11 q 40 144 57 85 q 18 270 22 204 q 14 394 14 336 q 24 555 14 475 q 66 698 33 635 q 158 801 99 761 q 318 840 218 840 q 460 815 406 840 q 544 745 514 790 q 583 636 574 700 q 593 493 593 572 q 557 415 593 436 q 471 394 521 394 q 412 410 431 394 q 387 451 393 426 q 381 504 381 476 q 379 557 381 532 q 369 598 378 582 q 335 614 360 614 q 281 586 300 614 q 253 520 263 558 q 242 442 244 482 q 240 379 240 403 q 242 320 240 356 q 252 252 243 285 q 280 197 261 219 q 333 174 299 174 q 383 183 368 174 q 403 207 397 193 q 412 238 410 221 q 422 269 414 256 q 448 293 429 283 q 506 303 467 303 q 578 273 561 303 q 594 194 594 243 q 528 19 594 82 q 354 -50 463 -43 q 385 -68 369 -62 q 415 -82 401 -74 q 438 -108 429 -90 q 446 -164 446 -125 q 428 -229 446 -201 q 383 -276 411 -257 q 322 -306 356 -296 q 256 -315 289 -315 q 189 -297 215 -315 q 163 -233 163 -278 q 171 -183 163 -197 q 219 -168 179 -168 q 233 -169 225 -168 q 250 -169 242 -169 q 264 -164 258 -168 q 269 -150 269 -160 q 256 -135 269 -142 q 227 -121 243 -129 q 198 -101 211 -112 q 185 -74 185 -90 z "},"Ð":{"ha":676,"x_min":-29,"x_max":649,"o":"m 269 -42 q 183 -35 224 -42 q 114 -8 143 -28 q 67 44 85 11 q 49 129 50 78 l 44 349 q -14 381 1 353 q -29 449 -29 408 q -17 518 -29 488 q 42 551 -6 549 q 40 656 40 606 q 54 744 40 706 q 103 806 68 782 q 208 829 139 829 q 401 810 318 829 q 538 744 483 790 q 621 620 593 697 q 649 428 649 543 q 631 243 649 329 q 571 94 614 157 q 454 -6 528 31 q 269 -42 381 -42 m 265 554 q 319 554 297 556 q 357 543 342 553 q 379 514 372 533 q 386 458 386 494 q 381 396 386 418 q 363 363 376 374 q 326 349 349 351 q 267 347 303 347 l 267 196 q 278 176 267 181 q 301 171 289 171 q 365 199 340 171 q 402 267 389 228 q 420 350 415 307 q 425 421 425 393 q 392 556 425 507 q 265 610 358 606 l 265 554 z "},"Đ":{"ha":676,"x_min":-29,"x_max":649,"o":"m 269 -42 q 183 -35 224 -42 q 114 -8 143 -28 q 67 44 85 11 q 49 129 50 78 l 44 349 q -14 381 1 353 q -29 449 -29 408 q -17 518 -29 488 q 42 551 -6 549 q 40 656 40 606 q 54 744 40 706 q 103 806 68 782 q 208 829 139 829 q 401 810 318 829 q 538 744 483 790 q 621 620 593 697 q 649 428 649 543 q 631 243 649 329 q 571 94 614 157 q 454 -6 528 31 q 269 -42 381 -42 m 265 554 q 319 554 297 556 q 357 543 342 553 q 379 514 372 533 q 386 458 386 494 q 381 396 386 418 q 363 363 376 374 q 326 349 349 351 q 267 347 303 347 l 267 196 q 278 176 267 181 q 301 171 289 171 q 365 199 340 171 q 402 267 389 228 q 420 350 415 307 q 425 421 425 393 q 392 556 425 507 q 265 610 358 606 l 265 554 z "},"È":{"ha":539,"x_min":40,"x_max":539,"o":"m 419 926 q 413 904 419 918 q 395 877 406 890 q 373 854 385 864 q 351 844 361 844 q 288 863 326 844 q 212 908 249 881 q 148 966 175 935 q 121 1024 121 997 q 131 1055 121 1039 q 155 1083 140 1071 q 187 1104 169 1096 q 218 1113 204 1113 q 269 1090 235 1113 q 336 1038 303 1068 q 394 976 369 1007 q 419 926 419 944 m 153 -47 q 65 -15 89 -47 q 42 76 42 17 q 41 364 42 221 q 40 651 40 507 q 42 699 40 674 q 52 748 44 725 q 76 787 60 771 q 119 807 92 803 q 276 824 197 818 q 435 829 356 829 q 464 816 450 829 q 488 785 478 803 q 505 747 499 767 q 511 715 511 728 q 509 679 511 697 q 500 647 507 661 q 480 623 493 632 q 444 611 467 614 l 256 596 l 263 510 l 399 510 q 457 481 442 510 q 472 415 472 453 q 470 383 472 401 q 462 347 468 364 q 444 317 456 329 q 414 304 433 304 l 263 304 l 271 181 l 346 181 q 370 190 361 181 q 388 210 379 199 q 409 231 397 222 q 439 240 421 240 q 511 217 483 240 q 539 147 539 193 q 534 58 539 94 q 511 0 529 22 q 460 -33 493 -22 q 371 -46 428 -44 q 306 -47 339 -47 q 240 -47 272 -47 l 153 -47 z "},"Ê":{"ha":539,"x_min":40,"x_max":539,"o":"m 67 928 q 93 971 67 942 q 154 1030 119 1000 q 223 1082 189 1060 q 272 1104 257 1104 q 328 1086 293 1104 q 394 1042 363 1068 q 450 987 426 1017 q 474 933 474 957 q 465 903 474 919 q 444 872 457 886 q 415 847 431 857 q 386 838 400 838 q 358 847 374 838 q 326 868 342 856 q 297 894 311 881 q 276 915 283 907 q 252 893 268 907 q 218 865 236 879 q 183 841 200 851 q 156 831 167 831 q 127 841 143 831 q 98 867 111 851 q 76 899 85 882 q 67 928 67 915 m 153 -47 q 65 -15 89 -47 q 42 76 42 17 q 41 364 42 221 q 40 651 40 507 q 42 699 40 674 q 52 748 44 725 q 76 787 60 771 q 119 807 92 803 q 276 824 197 818 q 435 829 356 829 q 464 816 450 829 q 488 785 478 803 q 505 747 499 767 q 511 715 511 728 q 509 679 511 697 q 500 647 507 661 q 480 623 493 632 q 444 611 467 614 l 256 596 l 263 510 l 399 510 q 457 481 442 510 q 472 415 472 453 q 470 383 472 401 q 462 347 468 364 q 444 317 456 329 q 414 304 433 304 l 263 304 l 271 181 l 346 181 q 370 190 361 181 q 388 210 379 199 q 409 231 397 222 q 439 240 421 240 q 511 217 483 240 q 539 147 539 193 q 534 58 539 94 q 511 0 529 22 q 460 -33 493 -22 q 371 -46 428 -44 q 306 -47 339 -47 q 240 -47 272 -47 l 153 -47 z "},"Ë":{"ha":539,"x_min":40,"x_max":539,"o":"m 265 988 q 258 944 265 967 q 239 905 251 922 q 208 876 226 888 q 165 865 189 865 q 92 901 118 865 q 67 979 67 936 q 92 1058 67 1025 q 165 1090 117 1090 q 238 1061 210 1090 q 265 988 265 1032 m 474 988 q 467 944 474 967 q 447 905 460 922 q 416 876 435 888 q 374 865 397 865 q 301 901 326 865 q 275 979 275 936 q 300 1058 275 1025 q 374 1090 325 1090 q 446 1061 418 1090 q 474 988 474 1032 m 153 -47 q 65 -15 89 -47 q 42 76 42 17 q 41 364 42 221 q 40 651 40 507 q 42 699 40 674 q 52 748 44 725 q 76 787 60 771 q 119 807 92 803 q 276 824 197 818 q 435 829 356 829 q 464 816 450 829 q 488 785 478 803 q 505 747 499 767 q 511 715 511 728 q 509 679 511 697 q 500 647 507 661 q 480 623 493 632 q 444 611 467 614 l 256 596 l 263 510 l 399 510 q 457 481 442 510 q 472 415 472 453 q 470 383 472 401 q 462 347 468 364 q 444 317 456 329 q 414 304 433 304 l 263 304 l 271 181 l 346 181 q 370 190 361 181 q 388 210 379 199 q 409 231 397 222 q 439 240 421 240 q 511 217 483 240 q 539 147 539 193 q 534 58 539 94 q 511 0 529 22 q 460 -33 493 -22 q 371 -46 428 -44 q 306 -47 339 -47 q 240 -47 272 -47 l 153 -47 z "},"É":{"ha":539,"x_min":40,"x_max":539,"o":"m 121 926 q 146 976 121 944 q 204 1038 171 1007 q 271 1090 238 1068 q 322 1113 304 1113 q 353 1104 336 1113 q 385 1083 371 1096 q 410 1055 400 1071 q 419 1024 419 1039 q 392 966 419 997 q 328 908 365 935 q 251 863 290 881 q 189 844 213 844 q 167 854 179 844 q 145 877 156 864 q 128 904 135 890 q 121 926 121 918 m 153 -47 q 65 -15 89 -47 q 42 76 42 17 q 41 364 42 221 q 40 651 40 507 q 42 699 40 674 q 52 748 44 725 q 76 787 60 771 q 119 807 92 803 q 276 824 197 818 q 435 829 356 829 q 464 816 450 829 q 488 785 478 803 q 505 747 499 767 q 511 715 511 728 q 509 679 511 697 q 500 647 507 661 q 480 623 493 632 q 444 611 467 614 l 256 596 l 263 510 l 399 510 q 457 481 442 510 q 472 415 472 453 q 470 383 472 401 q 462 347 468 364 q 444 317 456 329 q 414 304 433 304 l 263 304 l 271 181 l 346 181 q 370 190 361 181 q 388 210 379 199 q 409 231 397 222 q 439 240 421 240 q 511 217 483 240 q 539 147 539 193 q 534 58 539 94 q 511 0 529 22 q 460 -33 493 -22 q 371 -46 428 -44 q 306 -47 339 -47 q 240 -47 272 -47 l 153 -47 z "},"Æ":{"ha":914,"x_min":7,"x_max":913,"o":"m 135 -26 q 39 -1 71 -26 q 7 92 7 25 q 13 158 7 118 q 29 247 19 199 q 51 347 39 294 q 77 447 64 399 q 102 535 90 494 q 124 601 114 576 q 156 685 139 644 q 197 756 172 725 q 256 805 221 786 q 343 824 290 824 q 403 818 374 824 q 461 796 433 813 q 494 806 469 801 q 553 814 519 810 q 627 821 588 818 q 702 826 667 824 q 767 828 738 828 q 808 829 796 829 q 838 816 824 829 q 862 785 851 803 q 878 747 872 767 q 885 715 885 728 q 883 679 885 697 q 874 647 881 661 q 853 623 867 632 q 818 611 840 614 q 724 603 771 607 q 629 596 676 600 l 636 510 l 772 510 q 831 481 815 510 q 846 415 846 453 q 844 383 846 401 q 835 347 842 364 q 818 317 829 329 q 788 304 807 304 l 636 304 l 644 181 l 719 181 q 744 190 735 181 q 762 210 753 199 q 783 231 771 222 q 813 240 794 240 q 885 217 857 240 q 913 147 913 193 q 908 58 913 94 q 885 0 903 22 q 834 -33 867 -22 q 744 -46 801 -44 q 679 -47 713 -47 q 614 -47 646 -47 q 499 -43 538 -47 q 443 -20 461 -39 q 417 36 425 -1 q 393 140 410 74 l 244 140 q 237 84 240 114 q 223 30 233 54 q 192 -10 213 6 q 135 -26 172 -26 m 369 343 l 369 364 q 368 401 369 372 q 364 459 367 429 q 356 513 361 489 q 342 538 350 538 q 320 510 331 538 q 301 449 310 483 q 288 384 293 415 q 282 343 282 353 l 369 343 z "},"Ì":{"ha":436,"x_min":7,"x_max":418,"o":"m 368 926 q 361 904 368 918 q 344 877 354 890 q 322 854 333 864 q 300 844 310 844 q 236 863 275 844 q 160 908 197 881 q 97 966 124 935 q 69 1024 69 997 q 79 1055 69 1039 q 103 1083 89 1071 q 135 1104 118 1096 q 167 1113 153 1113 q 217 1090 183 1113 q 285 1038 251 1068 q 343 976 318 1007 q 368 926 368 944 m 354 819 q 382 807 371 819 q 400 776 393 794 q 410 740 407 758 q 413 708 413 721 q 393 626 413 660 q 321 592 374 592 q 328 481 326 536 q 331 371 331 426 q 328 281 331 326 q 324 192 326 236 q 396 163 374 192 q 418 88 418 135 q 386 -6 418 28 q 293 -39 354 -39 q 234 -37 264 -39 q 175 -35 204 -36 q 110 -28 140 -33 q 58 -8 81 -22 q 24 31 36 6 q 13 99 13 57 q 34 174 13 156 q 108 193 56 193 q 106 248 106 221 q 106 303 106 275 q 108 443 106 374 q 110 583 110 513 q 29 606 51 583 q 7 688 7 629 q 9 724 7 703 q 19 765 11 744 q 39 799 26 785 q 72 813 51 813 l 354 819 z "},"Í":{"ha":436,"x_min":7,"x_max":418,"o":"m 69 926 q 94 976 69 944 q 153 1038 119 1007 q 219 1090 186 1068 q 271 1113 253 1113 q 302 1104 285 1113 q 334 1083 319 1096 q 358 1055 349 1071 q 368 1024 368 1039 q 341 966 368 997 q 276 908 314 935 q 200 863 239 881 q 138 844 161 844 q 116 854 128 844 q 94 877 104 864 q 76 904 83 890 q 69 926 69 918 m 354 819 q 382 807 371 819 q 400 776 393 794 q 410 740 407 758 q 413 708 413 721 q 393 626 413 660 q 321 592 374 592 q 328 481 326 536 q 331 371 331 426 q 328 281 331 326 q 324 192 326 236 q 396 163 374 192 q 418 88 418 135 q 386 -6 418 28 q 293 -39 354 -39 q 234 -37 264 -39 q 175 -35 204 -36 q 110 -28 140 -33 q 58 -8 81 -22 q 24 31 36 6 q 13 99 13 57 q 34 174 13 156 q 108 193 56 193 q 106 248 106 221 q 106 303 106 275 q 108 443 106 374 q 110 583 110 513 q 29 606 51 583 q 7 688 7 629 q 9 724 7 703 q 19 765 11 744 q 39 799 26 785 q 72 813 51 813 l 354 819 z "},"Î":{"ha":436,"x_min":7,"x_max":422,"o":"m 15 928 q 42 971 15 942 q 103 1030 68 1000 q 172 1082 138 1060 q 221 1104 206 1104 q 276 1086 242 1104 q 343 1042 311 1068 q 399 987 375 1017 q 422 933 422 957 q 414 903 422 919 q 392 872 406 886 q 364 847 379 857 q 335 838 349 838 q 306 847 322 838 q 275 868 290 856 q 246 894 260 881 q 225 915 232 907 q 201 893 217 907 q 167 865 185 879 q 132 841 149 851 q 104 831 115 831 q 76 841 92 831 q 47 867 60 851 q 24 899 33 882 q 15 928 15 915 m 354 819 q 382 807 371 819 q 400 776 393 794 q 410 740 407 758 q 413 708 413 721 q 393 626 413 660 q 321 592 374 592 q 328 481 326 536 q 331 371 331 426 q 328 281 331 326 q 324 192 326 236 q 396 163 374 192 q 418 88 418 135 q 386 -6 418 28 q 293 -39 354 -39 q 234 -37 264 -39 q 175 -35 204 -36 q 110 -28 140 -33 q 58 -8 81 -22 q 24 31 36 6 q 13 99 13 57 q 34 174 13 156 q 108 193 56 193 q 106 248 106 221 q 106 303 106 275 q 108 443 106 374 q 110 583 110 513 q 29 606 51 583 q 7 688 7 629 q 9 724 7 703 q 19 765 11 744 q 39 799 26 785 q 72 813 51 813 l 354 819 z "},"Ï":{"ha":436,"x_min":7,"x_max":422,"o":"m 214 988 q 207 944 214 967 q 188 905 200 922 q 156 876 175 888 q 114 865 138 865 q 41 901 67 865 q 15 979 15 936 q 40 1058 15 1025 q 114 1090 65 1090 q 186 1061 158 1090 q 214 988 214 1032 m 422 988 q 415 944 422 967 q 396 905 408 922 q 365 876 383 888 q 322 865 346 865 q 249 901 275 865 q 224 979 224 936 q 249 1058 224 1025 q 322 1090 274 1090 q 394 1061 367 1090 q 422 988 422 1032 m 354 819 q 382 807 371 819 q 400 776 393 794 q 410 740 407 758 q 413 708 413 721 q 393 626 413 660 q 321 592 374 592 q 328 481 326 536 q 331 371 331 426 q 328 281 331 326 q 324 192 326 236 q 396 163 374 192 q 418 88 418 135 q 386 -6 418 28 q 293 -39 354 -39 q 234 -37 264 -39 q 175 -35 204 -36 q 110 -28 140 -33 q 58 -8 81 -22 q 24 31 36 6 q 13 99 13 57 q 34 174 13 156 q 108 193 56 193 q 106 248 106 221 q 106 303 106 275 q 108 443 106 374 q 110 583 110 513 q 29 606 51 583 q 7 688 7 629 q 9 724 7 703 q 19 765 11 744 q 39 799 26 785 q 72 813 51 813 l 354 819 z "},"Ł":{"ha":497,"x_min":-54,"x_max":472,"o":"m 136 -33 q 69 -10 90 -33 q 42 47 49 13 q 37 121 35 82 q 39 192 39 160 q 21 189 28 189 q -8 203 6 189 q -33 238 -22 218 q -49 280 -43 258 q -54 314 -54 301 q -44 341 -54 331 q -19 359 -33 351 q 12 372 -4 367 q 39 382 28 376 l 39 607 q 38 656 39 625 q 40 717 38 686 q 52 775 43 749 q 79 813 61 801 q 120 825 97 824 q 163 826 143 826 q 217 821 196 826 q 249 801 238 815 q 265 766 261 788 q 269 711 269 744 q 270 597 269 653 q 271 483 271 542 q 283 488 278 486 q 296 490 289 490 q 328 476 314 490 q 351 442 342 463 q 365 401 360 422 q 369 367 369 381 q 365 340 369 354 q 347 321 361 326 l 269 288 q 263 236 267 264 q 250 188 260 208 q 326 203 285 193 q 401 213 368 213 q 438 197 424 213 q 459 158 451 181 q 469 110 467 135 q 472 69 472 86 q 462 10 472 31 q 432 -20 451 -11 q 387 -30 413 -29 q 329 -31 361 -31 q 265 -32 297 -31 q 200 -33 232 -33 l 136 -33 z "},"Ñ":{"ha":708,"x_min":33,"x_max":669,"o":"m 500 1101 q 532 1090 519 1101 q 552 1063 544 1079 q 563 1029 560 1047 q 567 996 567 1011 q 559 942 567 969 q 535 891 551 914 q 497 854 519 868 q 443 840 474 840 q 388 850 413 840 q 345 872 364 860 q 313 894 326 885 q 289 904 300 904 q 280 894 283 904 q 270 872 276 885 q 252 850 264 860 q 219 840 240 840 q 183 851 197 840 q 159 880 168 863 q 147 917 150 897 q 143 956 143 938 q 153 1008 143 982 q 180 1056 163 1035 q 221 1090 197 1076 q 274 1103 244 1103 q 324 1092 300 1103 q 367 1068 347 1081 q 401 1044 388 1056 q 422 1033 415 1033 q 435 1044 429 1033 q 449 1067 440 1054 q 469 1091 457 1081 q 500 1101 481 1101 m 163 -42 q 81 -22 113 -42 q 42 50 49 -3 q 34 164 35 107 q 33 276 33 221 q 36 428 33 353 q 42 578 39 503 q 45 653 43 611 q 58 732 47 694 q 94 794 69 769 q 164 819 118 819 q 221 808 193 819 q 268 774 249 796 q 310 700 288 751 q 356 588 333 649 q 402 469 379 528 q 444 378 425 411 q 442 541 444 460 q 439 704 439 622 q 463 788 439 756 q 542 821 488 821 q 588 814 565 821 q 628 793 611 807 q 656 759 646 779 q 667 713 667 739 l 667 635 l 668 479 q 669 440 669 460 q 669 400 669 419 q 667 228 669 315 q 651 57 665 142 q 640 11 647 29 q 622 -17 633 -7 q 592 -31 610 -28 q 544 -35 574 -35 q 478 -9 510 -35 q 422 53 447 17 q 376 128 396 89 q 340 193 356 167 q 297 279 317 235 q 261 369 276 324 q 265 63 265 215 q 163 -42 265 -42 z "},"Ò":{"ha":704,"x_min":28,"x_max":676,"o":"m 501 926 q 494 904 501 918 q 477 877 488 890 q 455 854 467 864 q 433 844 443 844 q 371 863 410 844 q 294 908 332 881 q 230 966 257 935 q 203 1024 203 997 q 213 1055 203 1039 q 237 1083 222 1071 q 269 1104 251 1096 q 300 1113 286 1113 q 351 1090 317 1113 q 418 1038 385 1068 q 476 976 451 1007 q 501 926 501 944 m 347 -43 q 177 -11 240 -43 q 81 78 114 21 q 38 213 47 135 q 28 385 28 292 q 39 567 28 483 q 86 710 50 650 q 190 805 122 771 q 369 839 257 839 q 527 803 467 839 q 621 709 588 768 q 665 573 654 650 q 676 414 676 496 q 667 236 676 319 q 623 91 657 153 q 524 -7 589 29 q 347 -43 458 -43 m 261 356 q 262 301 261 331 q 271 244 263 271 q 297 201 279 218 q 350 183 315 183 q 403 200 383 183 q 432 242 422 217 q 444 296 442 267 q 447 350 447 325 q 447 417 447 375 q 437 501 446 460 q 408 572 428 542 q 350 603 388 603 q 299 576 317 603 q 272 511 281 549 q 263 435 264 474 q 261 375 261 397 l 261 356 z "},"Ó":{"ha":704,"x_min":28,"x_max":676,"o":"m 203 926 q 228 976 203 944 q 286 1038 253 1007 q 353 1090 319 1068 q 404 1113 388 1113 q 436 1104 419 1113 q 467 1083 453 1096 q 492 1055 482 1071 q 501 1024 501 1039 q 474 966 501 997 q 410 908 447 935 q 333 863 372 881 q 271 844 294 844 q 249 854 261 844 q 227 877 238 864 q 210 904 217 890 q 203 926 203 918 m 347 -43 q 177 -11 240 -43 q 81 78 114 21 q 38 213 47 135 q 28 385 28 292 q 39 567 28 483 q 86 710 50 650 q 190 805 122 771 q 369 839 257 839 q 527 803 467 839 q 621 709 588 768 q 665 573 654 650 q 676 414 676 496 q 667 236 676 319 q 623 91 657 153 q 524 -7 589 29 q 347 -43 458 -43 m 261 356 q 262 301 261 331 q 271 244 263 271 q 297 201 279 218 q 350 183 315 183 q 403 200 383 183 q 432 242 422 217 q 444 296 442 267 q 447 350 447 325 q 447 417 447 375 q 437 501 446 460 q 408 572 428 542 q 350 603 388 603 q 299 576 317 603 q 272 511 281 549 q 263 435 264 474 q 261 375 261 397 l 261 356 z "},"Ô":{"ha":704,"x_min":28,"x_max":676,"o":"m 149 928 q 175 971 149 942 q 236 1030 201 1000 q 305 1082 271 1060 q 354 1104 339 1104 q 410 1086 376 1104 q 477 1042 444 1068 q 533 987 510 1017 q 556 933 556 957 q 547 903 556 919 q 526 872 539 886 q 497 847 513 857 q 468 838 482 838 q 441 847 457 838 q 410 868 425 856 q 381 894 394 881 q 358 915 367 907 q 335 893 351 907 q 301 865 319 879 q 266 841 283 851 q 238 831 249 831 q 209 841 225 831 q 180 867 193 851 q 158 899 167 882 q 149 928 149 915 m 347 -43 q 177 -11 240 -43 q 81 78 114 21 q 38 213 47 135 q 28 385 28 292 q 39 567 28 483 q 86 710 50 650 q 190 805 122 771 q 369 839 257 839 q 527 803 467 839 q 621 709 588 768 q 665 573 654 650 q 676 414 676 496 q 667 236 676 319 q 623 91 657 153 q 524 -7 589 29 q 347 -43 458 -43 m 261 356 q 262 301 261 331 q 271 244 263 271 q 297 201 279 218 q 350 183 315 183 q 403 200 383 183 q 432 242 422 217 q 444 296 442 267 q 447 350 447 325 q 447 417 447 375 q 437 501 446 460 q 408 572 428 542 q 350 603 388 603 q 299 576 317 603 q 272 511 281 549 q 263 435 264 474 q 261 375 261 397 l 261 356 z "},"Õ":{"ha":704,"x_min":28,"x_max":676,"o":"m 497 1101 q 529 1090 517 1101 q 549 1063 542 1079 q 560 1029 557 1047 q 564 996 564 1011 q 556 942 564 969 q 533 891 549 914 q 494 854 517 868 q 440 840 471 840 q 385 850 410 840 q 343 872 361 860 q 311 894 325 885 q 286 904 297 904 q 277 894 281 904 q 267 872 274 885 q 249 850 261 860 q 217 840 238 840 q 180 851 194 840 q 156 880 165 863 q 144 917 147 897 q 140 956 140 938 q 150 1008 140 982 q 177 1056 160 1035 q 218 1090 194 1076 q 271 1103 242 1103 q 322 1092 297 1103 q 365 1068 346 1081 q 399 1044 385 1056 q 419 1033 414 1033 q 433 1044 426 1033 q 447 1067 439 1054 q 467 1091 456 1081 q 497 1101 479 1101 m 347 -43 q 177 -11 240 -43 q 81 78 114 21 q 38 213 47 135 q 28 385 28 292 q 39 567 28 483 q 86 710 50 650 q 190 805 122 771 q 369 839 257 839 q 527 803 467 839 q 621 709 588 768 q 665 573 654 650 q 676 414 676 496 q 667 236 676 319 q 623 91 657 153 q 524 -7 589 29 q 347 -43 458 -43 m 261 356 q 262 301 261 331 q 271 244 263 271 q 297 201 279 218 q 350 183 315 183 q 403 200 383 183 q 432 242 422 217 q 444 296 442 267 q 447 350 447 325 q 447 417 447 375 q 437 501 446 460 q 408 572 428 542 q 350 603 388 603 q 299 576 317 603 q 272 511 281 549 q 263 435 264 474 q 261 375 261 397 l 261 356 z "},"Ö":{"ha":704,"x_min":28,"x_max":676,"o":"m 347 988 q 340 944 347 967 q 321 905 333 922 q 290 876 308 888 q 247 865 271 865 q 174 901 200 865 q 149 979 149 936 q 174 1058 149 1025 q 247 1090 199 1090 q 319 1061 292 1090 q 347 988 347 1032 m 556 988 q 549 944 556 967 q 529 905 542 922 q 498 876 517 888 q 456 865 479 865 q 383 901 408 865 q 357 979 357 936 q 382 1058 357 1025 q 456 1090 407 1090 q 528 1061 500 1090 q 556 988 556 1032 m 347 -43 q 177 -11 240 -43 q 81 78 114 21 q 38 213 47 135 q 28 385 28 292 q 39 567 28 483 q 86 710 50 650 q 190 805 122 771 q 369 839 257 839 q 527 803 467 839 q 621 709 588 768 q 665 573 654 650 q 676 414 676 496 q 667 236 676 319 q 623 91 657 153 q 524 -7 589 29 q 347 -43 458 -43 m 261 356 q 262 301 261 331 q 271 244 263 271 q 297 201 279 218 q 350 183 315 183 q 403 200 383 183 q 432 242 422 217 q 444 296 442 267 q 447 350 447 325 q 447 417 447 375 q 437 501 446 460 q 408 572 428 542 q 350 603 388 603 q 299 576 317 603 q 272 511 281 549 q 263 435 264 474 q 261 375 261 397 l 261 356 z "},"Ø":{"ha":704,"x_min":28,"x_max":676,"o":"m 314 -43 q 299 -70 308 -56 q 279 -97 290 -85 q 254 -117 268 -108 q 224 -125 240 -125 q 186 -118 207 -125 q 147 -99 165 -111 q 117 -71 129 -87 q 106 -35 106 -54 q 110 -4 106 -24 q 119 26 115 15 q 69 102 88 58 q 42 195 51 146 q 30 294 32 244 q 28 385 28 343 q 39 567 28 483 q 86 710 50 650 q 190 805 122 771 q 369 839 257 839 l 390 839 q 407 868 397 851 q 429 899 417 885 q 457 924 442 914 q 490 935 472 935 q 533 928 511 935 q 572 910 554 922 q 600 879 589 897 q 611 838 611 861 q 605 793 611 815 q 592 750 599 771 q 636 676 619 717 q 662 590 653 635 q 674 501 671 546 q 676 414 676 456 q 667 236 676 319 q 623 91 657 153 q 524 -7 589 29 q 347 -43 458 -43 l 314 -43 m 261 356 q 262 301 261 331 q 271 244 263 271 q 297 201 279 218 q 350 183 315 183 q 403 200 383 183 q 432 242 422 217 q 444 296 442 267 q 447 350 447 325 q 447 417 447 375 q 437 501 446 460 q 408 572 428 542 q 350 603 388 603 q 299 576 317 603 q 272 511 281 549 q 263 435 264 474 q 261 375 261 397 l 261 356 z "},"Œ":{"ha":951,"x_min":28,"x_max":951,"o":"m 347 -43 q 177 -11 240 -43 q 81 78 114 21 q 38 213 47 135 q 28 385 28 292 q 39 567 28 483 q 86 710 50 650 q 190 805 122 771 q 369 839 257 839 q 449 832 410 839 q 524 806 488 825 q 599 815 557 811 q 685 823 640 819 q 772 828 729 826 q 847 829 814 829 q 876 816 863 829 q 901 785 890 803 q 917 747 911 767 q 924 715 924 728 q 922 679 924 697 q 913 647 919 661 q 892 623 906 632 q 857 611 879 614 q 763 603 810 607 q 668 596 715 600 l 675 510 l 811 510 q 869 481 854 510 q 885 415 885 453 q 883 383 885 401 q 874 347 881 364 q 857 317 868 329 q 826 304 846 304 l 675 304 l 683 181 l 758 181 q 783 190 774 181 q 801 210 792 199 q 822 231 811 222 q 851 240 833 240 q 924 217 896 240 q 951 147 951 193 q 947 58 951 94 q 924 0 942 22 q 873 -33 906 -22 q 783 -46 840 -44 q 718 -47 751 -47 q 653 -47 685 -47 q 612 -48 635 -47 q 566 -48 589 -49 q 522 -42 543 -47 q 486 -24 501 -36 q 418 -39 453 -35 q 347 -43 383 -43 m 261 356 q 262 301 261 331 q 271 244 263 271 q 297 201 279 218 q 350 183 315 183 q 403 200 383 183 q 432 242 422 217 q 444 296 442 267 q 447 350 447 325 q 447 417 447 375 q 437 501 446 460 q 408 572 428 542 q 350 603 388 603 q 299 576 317 603 q 272 511 281 549 q 263 435 264 474 q 261 375 261 397 l 261 356 z "},"Š":{"ha":642,"x_min":15,"x_max":621,"o":"m 117 326 q 159 315 144 326 q 183 288 174 304 q 199 251 192 271 q 221 214 207 231 q 259 186 235 197 q 325 175 283 175 q 343 176 332 175 q 365 181 354 178 q 383 190 375 183 q 390 207 390 197 q 374 219 390 210 q 339 240 358 229 q 301 260 319 250 q 278 271 282 269 q 184 323 229 296 q 105 385 139 350 q 50 465 71 419 q 29 572 29 510 q 49 675 29 628 q 102 758 68 722 q 182 815 136 793 q 282 843 228 838 q 244 871 271 850 q 189 917 217 892 q 140 966 161 942 q 118 1003 118 990 q 127 1032 118 1015 q 149 1065 136 1049 q 178 1091 163 1081 q 207 1101 194 1101 q 235 1091 218 1101 q 269 1067 251 1081 q 303 1040 288 1054 q 328 1018 319 1026 q 349 1039 335 1026 q 378 1064 363 1051 q 410 1085 394 1076 q 438 1094 426 1094 q 465 1085 450 1094 q 494 1060 481 1075 q 516 1029 507 1046 q 525 1000 525 1013 q 508 952 525 976 q 466 907 490 928 q 415 869 442 886 q 369 843 389 851 q 453 818 411 838 q 527 768 494 799 q 581 698 560 738 q 601 613 601 658 q 597 560 601 585 q 580 515 592 535 q 547 484 568 496 q 494 472 526 472 q 427 485 454 472 q 400 546 400 499 q 399 583 400 568 q 392 609 399 599 q 371 624 385 619 q 329 629 357 629 q 278 614 303 629 q 253 568 253 599 q 280 523 253 542 q 348 485 307 504 q 437 446 389 467 q 526 395 485 425 q 594 322 567 365 q 621 215 621 278 q 594 107 621 154 q 525 28 568 60 q 427 -20 482 -4 q 317 -36 372 -36 q 207 -15 261 -36 q 110 42 153 6 q 42 128 68 78 q 15 236 15 178 q 44 306 15 285 q 117 326 72 326 z "},"Ù":{"ha":663,"x_min":38,"x_max":624,"o":"m 481 926 q 474 904 481 918 q 456 877 467 890 q 434 854 446 864 q 413 844 422 844 q 350 863 389 844 q 274 908 311 881 q 209 966 236 935 q 182 1024 182 997 q 192 1055 182 1039 q 216 1083 201 1071 q 248 1104 231 1096 q 279 1113 265 1113 q 330 1090 296 1113 q 397 1038 364 1068 q 456 976 431 1007 q 481 926 481 944 m 324 -43 q 194 -20 246 -43 q 109 44 142 3 q 63 144 76 86 q 46 274 49 203 q 40 460 43 368 q 38 647 38 553 q 40 713 38 682 q 53 767 42 744 q 90 804 65 790 q 157 818 114 818 q 244 785 219 818 q 269 693 269 751 l 269 296 q 272 269 269 283 q 281 242 275 254 q 298 221 288 229 q 325 213 308 213 q 378 238 360 213 q 406 299 397 264 q 415 372 414 335 q 417 433 417 410 q 416 490 417 461 q 415 546 415 518 l 413 622 q 412 678 413 650 q 411 735 411 707 q 442 799 411 779 q 513 818 472 818 q 576 792 554 818 q 609 730 599 767 q 622 653 619 693 q 624 583 624 613 q 624 465 624 524 q 621 346 624 406 q 609 192 619 264 q 568 69 599 121 q 480 -13 538 17 q 324 -43 422 -43 z "},"Ú":{"ha":663,"x_min":38,"x_max":624,"o":"m 182 926 q 207 976 182 944 q 265 1038 232 1007 q 333 1090 299 1068 q 383 1113 367 1113 q 415 1104 399 1113 q 447 1083 432 1096 q 471 1055 461 1071 q 481 1024 481 1039 q 453 966 481 997 q 389 908 426 935 q 313 863 351 881 q 250 844 274 844 q 228 854 240 844 q 206 877 217 864 q 189 904 196 890 q 182 926 182 918 m 324 -43 q 194 -20 246 -43 q 109 44 142 3 q 63 144 76 86 q 46 274 49 203 q 40 460 43 368 q 38 647 38 553 q 40 713 38 682 q 53 767 42 744 q 90 804 65 790 q 157 818 114 818 q 244 785 219 818 q 269 693 269 751 l 269 296 q 272 269 269 283 q 281 242 275 254 q 298 221 288 229 q 325 213 308 213 q 378 238 360 213 q 406 299 397 264 q 415 372 414 335 q 417 433 417 410 q 416 490 417 461 q 415 546 415 518 l 413 622 q 412 678 413 650 q 411 735 411 707 q 442 799 411 779 q 513 818 472 818 q 576 792 554 818 q 609 730 599 767 q 622 653 619 693 q 624 583 624 613 q 624 465 624 524 q 621 346 624 406 q 609 192 619 264 q 568 69 599 121 q 480 -13 538 17 q 324 -43 422 -43 z "},"Û":{"ha":663,"x_min":38,"x_max":624,"o":"m 128 928 q 154 971 128 942 q 215 1030 181 1000 q 284 1082 250 1060 q 333 1104 318 1104 q 390 1086 356 1104 q 456 1042 424 1068 q 512 987 489 1017 q 535 933 535 957 q 526 903 535 919 q 505 872 518 886 q 476 847 492 857 q 447 838 461 838 q 420 847 436 838 q 389 868 404 856 q 360 894 374 881 q 338 915 346 907 q 315 893 331 907 q 281 865 299 879 q 245 841 263 851 q 217 831 228 831 q 188 841 204 831 q 159 867 172 851 q 137 899 146 882 q 128 928 128 915 m 324 -43 q 194 -20 246 -43 q 109 44 142 3 q 63 144 76 86 q 46 274 49 203 q 40 460 43 368 q 38 647 38 553 q 40 713 38 682 q 53 767 42 744 q 90 804 65 790 q 157 818 114 818 q 244 785 219 818 q 269 693 269 751 l 269 296 q 272 269 269 283 q 281 242 275 254 q 298 221 288 229 q 325 213 308 213 q 378 238 360 213 q 406 299 397 264 q 415 372 414 335 q 417 433 417 410 q 416 490 417 461 q 415 546 415 518 l 413 622 q 412 678 413 650 q 411 735 411 707 q 442 799 411 779 q 513 818 472 818 q 576 792 554 818 q 609 730 599 767 q 622 653 619 693 q 624 583 624 613 q 624 465 624 524 q 621 346 624 406 q 609 192 619 264 q 568 69 599 121 q 480 -13 538 17 q 324 -43 422 -43 z "},"Ü":{"ha":663,"x_min":38,"x_max":624,"o":"m 326 988 q 319 944 326 967 q 300 905 313 922 q 269 876 288 888 q 226 865 250 865 q 153 901 179 865 q 128 979 128 936 q 153 1058 128 1025 q 226 1090 178 1090 q 299 1061 271 1090 q 326 988 326 1032 m 535 988 q 528 944 535 967 q 508 905 521 922 q 477 876 496 888 q 435 865 458 865 q 362 901 388 865 q 336 979 336 936 q 361 1058 336 1025 q 435 1090 386 1090 q 507 1061 479 1090 q 535 988 535 1032 m 324 -43 q 194 -20 246 -43 q 109 44 142 3 q 63 144 76 86 q 46 274 49 203 q 40 460 43 368 q 38 647 38 553 q 40 713 38 682 q 53 767 42 744 q 90 804 65 790 q 157 818 114 818 q 244 785 219 818 q 269 693 269 751 l 269 296 q 272 269 269 283 q 281 242 275 254 q 298 221 288 229 q 325 213 308 213 q 378 238 360 213 q 406 299 397 264 q 415 372 414 335 q 417 433 417 410 q 416 490 417 461 q 415 546 415 518 l 413 622 q 412 678 413 650 q 411 735 411 707 q 442 799 411 779 q 513 818 472 818 q 576 792 554 818 q 609 730 599 767 q 622 653 619 693 q 624 583 624 613 q 624 465 624 524 q 621 346 624 406 q 609 192 619 264 q 568 69 599 121 q 480 -13 538 17 q 324 -43 422 -43 z "},"Ÿ":{"ha":628,"x_min":26,"x_max":606,"o":"m 310 988 q 303 944 310 967 q 283 905 296 922 q 252 876 271 888 q 210 865 233 865 q 137 901 163 865 q 111 979 111 936 q 136 1058 111 1025 q 210 1090 161 1090 q 282 1061 254 1090 q 310 988 310 1032 m 518 988 q 511 944 518 967 q 492 905 504 922 q 460 876 479 888 q 418 865 442 865 q 345 901 371 865 q 319 979 319 936 q 344 1058 319 1025 q 418 1090 369 1090 q 490 1061 463 1090 q 518 988 518 1032 m 256 274 q 125 299 171 274 q 58 370 79 325 q 34 475 38 415 q 31 601 31 535 q 29 640 31 621 q 28 679 28 660 q 32 738 28 711 q 48 783 36 764 q 82 812 60 801 q 142 822 104 822 q 231 793 200 822 q 263 703 263 764 q 257 610 263 656 q 251 517 251 564 q 266 483 251 489 q 304 476 281 476 q 342 485 328 476 q 365 507 357 493 q 376 540 374 521 q 379 578 379 558 q 374 653 379 615 q 369 728 369 690 q 381 774 369 756 q 412 802 393 792 q 454 817 431 813 q 500 822 478 822 q 575 802 544 822 q 606 733 606 782 q 599 559 606 646 q 593 385 593 472 q 594 354 593 369 q 594 324 594 339 l 597 283 q 598 253 597 268 q 599 222 599 238 q 576 94 599 146 q 514 10 554 42 q 417 -35 474 -21 q 289 -49 360 -49 q 203 -36 249 -49 q 117 1 157 -24 q 52 63 78 26 q 26 146 26 99 q 37 184 26 165 q 64 217 47 203 q 101 240 81 232 q 139 249 121 249 q 170 233 157 249 q 200 201 183 218 q 242 168 217 183 q 308 153 267 153 q 351 168 336 153 q 374 206 367 183 q 383 253 381 228 q 385 299 385 279 q 385 313 385 306 q 383 326 385 319 q 324 288 357 303 q 256 274 292 274 z "},"Ý":{"ha":628,"x_min":26,"x_max":606,"o":"m 165 926 q 190 976 165 944 q 249 1038 215 1007 q 315 1090 282 1068 q 367 1113 349 1113 q 398 1104 381 1113 q 430 1083 415 1096 q 454 1055 444 1071 q 464 1024 464 1039 q 437 966 464 997 q 372 908 410 935 q 296 863 335 881 q 233 844 257 844 q 212 854 224 844 q 190 877 200 864 q 172 904 179 890 q 165 926 165 918 m 256 274 q 125 299 171 274 q 58 370 79 325 q 34 475 38 415 q 31 601 31 535 q 29 640 31 621 q 28 679 28 660 q 32 738 28 711 q 48 783 36 764 q 82 812 60 801 q 142 822 104 822 q 231 793 200 822 q 263 703 263 764 q 257 610 263 656 q 251 517 251 564 q 266 483 251 489 q 304 476 281 476 q 342 485 328 476 q 365 507 357 493 q 376 540 374 521 q 379 578 379 558 q 374 653 379 615 q 369 728 369 690 q 381 774 369 756 q 412 802 393 792 q 454 817 431 813 q 500 822 478 822 q 575 802 544 822 q 606 733 606 782 q 599 559 606 646 q 593 385 593 472 q 594 354 593 369 q 594 324 594 339 l 597 283 q 598 253 597 268 q 599 222 599 238 q 576 94 599 146 q 514 10 554 42 q 417 -35 474 -21 q 289 -49 360 -49 q 203 -36 249 -49 q 117 1 157 -24 q 52 63 78 26 q 26 146 26 99 q 37 184 26 165 q 64 217 47 203 q 101 240 81 232 q 139 249 121 249 q 170 233 157 249 q 200 201 183 218 q 242 168 217 183 q 308 153 267 153 q 351 168 336 153 q 374 206 367 183 q 383 253 381 228 q 385 299 385 279 q 385 313 385 306 q 383 326 385 319 q 324 288 357 303 q 256 274 292 274 z "},"Ž":{"ha":622,"x_min":21,"x_max":607,"o":"m 108 1003 q 117 1032 108 1015 q 140 1065 126 1049 q 169 1091 153 1081 q 197 1101 185 1101 q 225 1091 208 1101 q 260 1067 242 1081 q 294 1040 278 1054 q 318 1018 310 1026 q 339 1039 325 1026 q 369 1064 353 1051 q 401 1085 385 1076 q 428 1094 417 1094 q 456 1085 440 1094 q 484 1060 471 1075 q 506 1029 497 1046 q 515 1000 515 1013 q 492 947 515 976 q 436 890 468 917 q 369 846 404 864 q 314 828 335 828 q 265 850 299 828 q 196 901 231 872 q 135 960 161 931 q 108 1003 108 989 m 117 -47 q 69 -33 88 -47 q 40 1 51 -19 q 25 48 29 22 q 21 96 21 74 q 33 181 21 140 q 69 257 46 221 q 205 440 131 353 q 358 608 279 528 q 244 592 300 599 q 129 585 188 585 q 82 594 100 585 q 53 622 64 604 q 39 661 43 639 q 35 708 35 683 q 38 753 35 732 q 49 791 40 775 q 75 817 58 807 q 119 826 92 826 q 304 824 211 826 q 489 814 397 822 q 562 779 535 810 q 589 703 589 749 q 583 617 589 665 q 558 536 576 569 q 501 437 533 489 q 430 334 468 385 q 351 237 392 283 q 272 154 311 190 q 332 174 299 165 q 401 189 365 183 q 471 197 436 194 q 535 200 506 200 q 574 187 560 200 q 596 154 589 174 q 605 113 603 135 q 607 71 607 90 q 605 29 607 49 q 594 -4 603 10 q 571 -26 586 -18 q 529 -33 556 -33 q 323 -40 425 -33 q 117 -47 221 -47 z "},"à":{"ha":658,"x_min":7,"x_max":651,"o":"m 479 926 q 472 904 479 918 q 455 877 465 890 q 433 854 444 864 q 411 844 421 844 q 347 863 386 844 q 272 908 308 881 q 208 966 235 935 q 181 1024 181 997 q 190 1055 181 1039 q 215 1083 200 1071 q 247 1104 229 1096 q 278 1113 264 1113 q 328 1090 294 1113 q 396 1038 363 1068 q 454 976 429 1007 q 479 926 479 944 m 135 -26 q 39 -1 71 -26 q 7 92 7 25 q 13 158 7 117 q 29 247 19 199 q 51 347 39 294 q 77 447 64 399 q 102 535 90 494 q 124 601 114 576 q 156 685 139 644 q 197 756 172 725 q 256 805 221 786 q 343 824 290 824 q 404 818 374 824 q 461 796 435 813 q 522 726 497 772 q 561 625 546 679 q 586 517 576 571 q 601 425 596 463 q 617 338 608 388 q 633 235 625 288 q 646 134 640 183 q 651 49 651 85 q 641 3 651 21 q 613 -23 631 -14 q 574 -35 596 -32 q 529 -39 553 -39 q 461 -24 485 -39 q 425 17 438 -8 q 407 74 413 42 q 393 140 401 106 l 244 140 q 237 84 240 114 q 223 30 233 54 q 192 -10 213 6 q 135 -26 171 -26 m 369 343 l 369 364 q 368 401 369 372 q 364 459 367 429 q 356 513 361 489 q 342 538 350 538 q 320 510 331 538 q 301 449 310 483 q 288 384 293 415 q 282 343 282 353 l 369 343 z "},"á":{"ha":658,"x_min":7,"x_max":651,"o":"m 181 926 q 206 976 181 944 q 264 1038 231 1007 q 331 1090 297 1068 q 382 1113 364 1113 q 413 1104 396 1113 q 445 1083 431 1096 q 469 1055 460 1071 q 479 1024 479 1039 q 452 966 479 997 q 388 908 425 935 q 311 863 350 881 q 249 844 272 844 q 227 854 239 844 q 205 877 215 864 q 188 904 194 890 q 181 926 181 918 m 135 -26 q 39 -1 71 -26 q 7 92 7 25 q 13 158 7 117 q 29 247 19 199 q 51 347 39 294 q 77 447 64 399 q 102 535 90 494 q 124 601 114 576 q 156 685 139 644 q 197 756 172 725 q 256 805 221 786 q 343 824 290 824 q 404 818 374 824 q 461 796 435 813 q 522 726 497 772 q 561 625 546 679 q 586 517 576 571 q 601 425 596 463 q 617 338 608 388 q 633 235 625 288 q 646 134 640 183 q 651 49 651 85 q 641 3 651 21 q 613 -23 631 -14 q 574 -35 596 -32 q 529 -39 553 -39 q 461 -24 485 -39 q 425 17 438 -8 q 407 74 413 42 q 393 140 401 106 l 244 140 q 237 84 240 114 q 223 30 233 54 q 192 -10 213 6 q 135 -26 171 -26 m 369 343 l 369 364 q 368 401 369 372 q 364 459 367 429 q 356 513 361 489 q 342 538 350 538 q 320 510 331 538 q 301 449 310 483 q 288 384 293 415 q 282 343 282 353 l 369 343 z "},"â":{"ha":658,"x_min":7,"x_max":651,"o":"m 126 928 q 153 971 126 942 q 214 1030 179 1000 q 283 1082 249 1060 q 332 1104 317 1104 q 388 1086 353 1104 q 454 1042 422 1068 q 510 987 486 1017 q 533 933 533 957 q 525 903 533 919 q 503 872 517 886 q 475 847 490 857 q 446 838 460 838 q 417 847 433 838 q 386 868 401 856 q 357 894 371 881 q 336 915 343 907 q 312 893 328 907 q 278 865 296 879 q 243 841 260 851 q 215 831 226 831 q 187 841 203 831 q 158 867 171 851 q 135 899 144 882 q 126 928 126 915 m 135 -26 q 39 -1 71 -26 q 7 92 7 25 q 13 158 7 117 q 29 247 19 199 q 51 347 39 294 q 77 447 64 399 q 102 535 90 494 q 124 601 114 576 q 156 685 139 644 q 197 756 172 725 q 256 805 221 786 q 343 824 290 824 q 404 818 374 824 q 461 796 435 813 q 522 726 497 772 q 561 625 546 679 q 586 517 576 571 q 601 425 596 463 q 617 338 608 388 q 633 235 625 288 q 646 134 640 183 q 651 49 651 85 q 641 3 651 21 q 613 -23 631 -14 q 574 -35 596 -32 q 529 -39 553 -39 q 461 -24 485 -39 q 425 17 438 -8 q 407 74 413 42 q 393 140 401 106 l 244 140 q 237 84 240 114 q 223 30 233 54 q 192 -10 213 6 q 135 -26 171 -26 m 369 343 l 369 364 q 368 401 369 372 q 364 459 367 429 q 356 513 361 489 q 342 538 350 538 q 320 510 331 538 q 301 449 310 483 q 288 384 293 415 q 282 343 282 353 l 369 343 z "},"ã":{"ha":658,"x_min":7,"x_max":651,"o":"m 475 1101 q 507 1090 494 1101 q 527 1063 519 1079 q 538 1029 535 1047 q 542 996 542 1011 q 534 942 542 969 q 510 891 526 914 q 472 854 494 868 q 418 840 449 840 q 363 850 388 840 q 320 872 339 860 q 288 894 301 885 q 264 904 275 904 q 255 894 258 904 q 245 872 251 885 q 227 850 239 860 q 194 840 215 840 q 158 851 172 840 q 134 880 143 863 q 122 917 125 897 q 118 956 118 938 q 128 1008 118 982 q 155 1056 138 1035 q 196 1090 172 1076 q 249 1103 219 1103 q 299 1092 275 1103 q 342 1068 322 1081 q 376 1044 363 1056 q 397 1033 390 1033 q 410 1044 404 1033 q 424 1067 415 1054 q 444 1091 432 1081 q 475 1101 456 1101 m 135 -26 q 39 -1 71 -26 q 7 92 7 25 q 13 158 7 117 q 29 247 19 199 q 51 347 39 294 q 77 447 64 399 q 102 535 90 494 q 124 601 114 576 q 156 685 139 644 q 197 756 172 725 q 256 805 221 786 q 343 824 290 824 q 404 818 374 824 q 461 796 435 813 q 522 726 497 772 q 561 625 546 679 q 586 517 576 571 q 601 425 596 463 q 617 338 608 388 q 633 235 625 288 q 646 134 640 183 q 651 49 651 85 q 641 3 651 21 q 613 -23 631 -14 q 574 -35 596 -32 q 529 -39 553 -39 q 461 -24 485 -39 q 425 17 438 -8 q 407 74 413 42 q 393 140 401 106 l 244 140 q 237 84 240 114 q 223 30 233 54 q 192 -10 213 6 q 135 -26 171 -26 m 369 343 l 369 364 q 368 401 369 372 q 364 459 367 429 q 356 513 361 489 q 342 538 350 538 q 320 510 331 538 q 301 449 310 483 q 288 384 293 415 q 282 343 282 353 l 369 343 z "},"ä":{"ha":658,"x_min":7,"x_max":651,"o":"m 325 988 q 318 944 325 967 q 299 905 311 922 q 267 876 286 888 q 225 865 249 865 q 152 901 178 865 q 126 979 126 936 q 151 1058 126 1025 q 225 1090 176 1090 q 297 1061 269 1090 q 325 988 325 1032 m 533 988 q 526 944 533 967 q 507 905 519 922 q 476 876 494 888 q 433 865 457 865 q 360 901 386 865 q 335 979 335 936 q 360 1058 335 1025 q 433 1090 385 1090 q 506 1061 478 1090 q 533 988 533 1032 m 135 -26 q 39 -1 71 -26 q 7 92 7 25 q 13 158 7 117 q 29 247 19 199 q 51 347 39 294 q 77 447 64 399 q 102 535 90 494 q 124 601 114 576 q 156 685 139 644 q 197 756 172 725 q 256 805 221 786 q 343 824 290 824 q 404 818 374 824 q 461 796 435 813 q 522 726 497 772 q 561 625 546 679 q 586 517 576 571 q 601 425 596 463 q 617 338 608 388 q 633 235 625 288 q 646 134 640 183 q 651 49 651 85 q 641 3 651 21 q 613 -23 631 -14 q 574 -35 596 -32 q 529 -39 553 -39 q 461 -24 485 -39 q 425 17 438 -8 q 407 74 413 42 q 393 140 401 106 l 244 140 q 237 84 240 114 q 223 30 233 54 q 192 -10 213 6 q 135 -26 171 -26 m 369 343 l 369 364 q 368 401 369 372 q 364 459 367 429 q 356 513 361 489 q 342 538 350 538 q 320 510 331 538 q 301 449 310 483 q 288 384 293 415 q 282 343 282 353 l 369 343 z "},"å":{"ha":658,"x_min":7,"x_max":651,"o":"m 178 988 q 222 1099 178 1054 q 333 1143 267 1143 q 391 1132 364 1143 q 438 1101 418 1121 q 470 1056 458 1082 q 482 997 482 1029 q 472 937 482 965 q 442 887 461 908 q 395 853 422 865 q 335 840 368 840 q 274 851 303 840 q 224 881 246 861 q 190 927 203 900 q 178 988 178 954 m 310 992 q 315 968 310 982 q 331 954 319 954 q 352 970 347 954 q 357 999 357 986 q 353 1024 357 1011 q 333 1036 349 1036 q 313 1019 317 1036 q 310 992 310 1003 m 135 -26 q 39 -1 71 -26 q 7 92 7 25 q 13 158 7 117 q 29 247 19 199 q 51 347 39 294 q 77 447 64 399 q 102 535 90 494 q 124 601 114 576 q 156 685 139 644 q 197 756 172 725 q 256 805 221 786 q 343 824 290 824 q 404 818 374 824 q 461 796 435 813 q 522 726 497 772 q 561 625 546 679 q 586 517 576 571 q 601 425 596 463 q 617 338 608 388 q 633 235 625 288 q 646 134 640 183 q 651 49 651 85 q 641 3 651 21 q 613 -23 631 -14 q 574 -35 596 -32 q 529 -39 553 -39 q 461 -24 485 -39 q 425 17 438 -8 q 407 74 413 42 q 393 140 401 106 l 244 140 q 237 84 240 114 q 223 30 233 54 q 192 -10 213 6 q 135 -26 171 -26 m 369 343 l 369 364 q 368 401 369 372 q 364 459 367 429 q 356 513 361 489 q 342 538 350 538 q 320 510 331 538 q 301 449 310 483 q 288 384 293 415 q 282 343 282 353 l 369 343 z "},"æ":{"ha":914,"x_min":7,"x_max":913,"o":"m 135 -26 q 39 -1 71 -26 q 7 92 7 25 q 13 158 7 118 q 29 247 19 199 q 51 347 39 294 q 77 447 64 399 q 102 535 90 494 q 124 601 114 576 q 156 685 139 644 q 197 756 172 725 q 256 805 221 786 q 343 824 290 824 q 403 818 374 824 q 461 796 433 813 q 494 806 469 801 q 553 814 519 810 q 627 821 588 818 q 702 826 667 824 q 767 828 738 828 q 808 829 796 829 q 838 816 824 829 q 862 785 851 803 q 878 747 872 767 q 885 715 885 728 q 883 679 885 697 q 874 647 881 661 q 853 623 867 632 q 818 611 840 614 q 724 603 771 607 q 629 596 676 600 l 636 510 l 772 510 q 831 481 815 510 q 846 415 846 453 q 844 383 846 401 q 835 347 842 364 q 818 317 829 329 q 788 304 807 304 l 636 304 l 644 181 l 719 181 q 744 190 735 181 q 762 210 753 199 q 783 231 771 222 q 813 240 794 240 q 885 217 857 240 q 913 147 913 193 q 908 58 913 94 q 885 0 903 22 q 834 -33 867 -22 q 744 -46 801 -44 q 679 -47 713 -47 q 614 -47 646 -47 q 499 -43 538 -47 q 443 -20 461 -39 q 417 36 425 -1 q 393 140 410 74 l 244 140 q 237 84 240 114 q 223 30 233 54 q 192 -10 213 6 q 135 -26 172 -26 m 369 343 l 369 364 q 368 401 369 372 q 364 459 367 429 q 356 513 361 489 q 342 538 350 538 q 320 510 331 538 q 301 449 310 483 q 288 384 293 415 q 282 343 282 353 l 369 343 z "},"ç":{"ha":607,"x_min":14,"x_max":594,"o":"m 185 -74 q 188 -53 185 -62 q 197 -33 192 -43 q 94 37 131 -11 q 40 144 57 85 q 18 270 22 204 q 14 394 14 336 q 24 555 14 475 q 66 698 33 635 q 158 801 99 761 q 318 840 218 840 q 460 815 406 840 q 544 745 514 790 q 583 636 574 700 q 593 493 593 572 q 557 415 593 436 q 471 394 521 394 q 412 410 431 394 q 387 451 393 426 q 381 504 381 476 q 379 557 381 532 q 369 598 378 582 q 335 614 360 614 q 281 586 300 614 q 253 520 263 558 q 242 442 244 482 q 240 379 240 403 q 242 320 240 356 q 252 252 243 285 q 280 197 261 219 q 333 174 299 174 q 383 183 368 174 q 403 207 397 193 q 412 238 410 221 q 422 269 414 256 q 448 293 429 283 q 506 303 467 303 q 578 273 561 303 q 594 194 594 243 q 528 19 594 82 q 354 -50 463 -43 q 385 -68 369 -62 q 415 -82 401 -74 q 438 -108 429 -90 q 446 -164 446 -125 q 428 -229 446 -201 q 383 -276 411 -257 q 322 -306 356 -296 q 256 -315 289 -315 q 189 -297 215 -315 q 163 -233 163 -278 q 171 -183 163 -197 q 219 -168 179 -168 q 233 -169 225 -168 q 250 -169 242 -169 q 264 -164 258 -168 q 269 -150 269 -160 q 256 -135 269 -142 q 227 -121 243 -129 q 198 -101 211 -112 q 185 -74 185 -90 z "},"đ":{"ha":676,"x_min":-29,"x_max":649,"o":"m 269 -42 q 183 -35 224 -42 q 114 -8 143 -28 q 67 44 85 11 q 49 129 50 78 l 44 349 q -14 381 1 353 q -29 449 -29 408 q -17 518 -29 488 q 42 551 -6 549 q 40 656 40 606 q 54 744 40 706 q 103 806 68 782 q 208 829 139 829 q 401 810 318 829 q 538 744 483 790 q 621 620 593 697 q 649 428 649 543 q 631 243 649 329 q 571 94 614 157 q 454 -6 528 31 q 269 -42 381 -42 m 265 554 q 319 554 297 556 q 357 543 342 553 q 379 514 372 533 q 386 458 386 494 q 381 396 386 418 q 363 363 376 374 q 326 349 349 351 q 267 347 303 347 l 267 196 q 278 176 267 181 q 301 171 289 171 q 365 199 340 171 q 402 267 389 228 q 420 350 415 307 q 425 421 425 393 q 392 556 425 507 q 265 610 358 606 l 265 554 z "},"è":{"ha":539,"x_min":40,"x_max":539,"o":"m 419 926 q 413 904 419 918 q 395 877 406 890 q 373 854 385 864 q 351 844 361 844 q 288 863 326 844 q 212 908 249 881 q 148 966 175 935 q 121 1024 121 997 q 131 1055 121 1039 q 155 1083 140 1071 q 187 1104 169 1096 q 218 1113 204 1113 q 269 1090 235 1113 q 336 1038 303 1068 q 394 976 369 1007 q 419 926 419 944 m 153 -47 q 65 -15 89 -47 q 42 76 42 17 q 41 364 42 221 q 40 651 40 507 q 42 699 40 674 q 52 748 44 725 q 76 787 60 771 q 119 807 92 803 q 276 824 197 818 q 435 829 356 829 q 464 816 450 829 q 488 785 478 803 q 505 747 499 767 q 511 715 511 728 q 509 679 511 697 q 500 647 507 661 q 480 623 493 632 q 444 611 467 614 l 256 596 l 263 510 l 399 510 q 457 481 442 510 q 472 415 472 453 q 470 383 472 401 q 462 347 468 364 q 444 317 456 329 q 414 304 433 304 l 263 304 l 271 181 l 346 181 q 370 190 361 181 q 388 210 379 199 q 409 231 397 222 q 439 240 421 240 q 511 217 483 240 q 539 147 539 193 q 534 58 539 94 q 511 0 529 22 q 460 -33 493 -22 q 371 -46 428 -44 q 306 -47 339 -47 q 240 -47 272 -47 l 153 -47 z "},"é":{"ha":539,"x_min":40,"x_max":539,"o":"m 121 926 q 146 976 121 944 q 204 1038 171 1007 q 271 1090 238 1068 q 322 1113 304 1113 q 353 1104 336 1113 q 385 1083 371 1096 q 410 1055 400 1071 q 419 1024 419 1039 q 392 966 419 997 q 328 908 365 935 q 251 863 290 881 q 189 844 213 844 q 167 854 179 844 q 145 877 156 864 q 128 904 135 890 q 121 926 121 918 m 153 -47 q 65 -15 89 -47 q 42 76 42 17 q 41 364 42 221 q 40 651 40 507 q 42 699 40 674 q 52 748 44 725 q 76 787 60 771 q 119 807 92 803 q 276 824 197 818 q 435 829 356 829 q 464 816 450 829 q 488 785 478 803 q 505 747 499 767 q 511 715 511 728 q 509 679 511 697 q 500 647 507 661 q 480 623 493 632 q 444 611 467 614 l 256 596 l 263 510 l 399 510 q 457 481 442 510 q 472 415 472 453 q 470 383 472 401 q 462 347 468 364 q 444 317 456 329 q 414 304 433 304 l 263 304 l 271 181 l 346 181 q 370 190 361 181 q 388 210 379 199 q 409 231 397 222 q 439 240 421 240 q 511 217 483 240 q 539 147 539 193 q 534 58 539 94 q 511 0 529 22 q 460 -33 493 -22 q 371 -46 428 -44 q 306 -47 339 -47 q 240 -47 272 -47 l 153 -47 z "},"ê":{"ha":539,"x_min":40,"x_max":539,"o":"m 67 928 q 93 971 67 942 q 154 1030 119 1000 q 223 1082 189 1060 q 272 1104 257 1104 q 328 1086 293 1104 q 394 1042 363 1068 q 450 987 426 1017 q 474 933 474 957 q 465 903 474 919 q 444 872 457 886 q 415 847 431 857 q 386 838 400 838 q 358 847 374 838 q 326 868 342 856 q 297 894 311 881 q 276 915 283 907 q 252 893 268 907 q 218 865 236 879 q 183 841 200 851 q 156 831 167 831 q 127 841 143 831 q 98 867 111 851 q 76 899 85 882 q 67 928 67 915 m 153 -47 q 65 -15 89 -47 q 42 76 42 17 q 41 364 42 221 q 40 651 40 507 q 42 699 40 674 q 52 748 44 725 q 76 787 60 771 q 119 807 92 803 q 276 824 197 818 q 435 829 356 829 q 464 816 450 829 q 488 785 478 803 q 505 747 499 767 q 511 715 511 728 q 509 679 511 697 q 500 647 507 661 q 480 623 493 632 q 444 611 467 614 l 256 596 l 263 510 l 399 510 q 457 481 442 510 q 472 415 472 453 q 470 383 472 401 q 462 347 468 364 q 444 317 456 329 q 414 304 433 304 l 263 304 l 271 181 l 346 181 q 370 190 361 181 q 388 210 379 199 q 409 231 397 222 q 439 240 421 240 q 511 217 483 240 q 539 147 539 193 q 534 58 539 94 q 511 0 529 22 q 460 -33 493 -22 q 371 -46 428 -44 q 306 -47 339 -47 q 240 -47 272 -47 l 153 -47 z "},"ë":{"ha":539,"x_min":40,"x_max":539,"o":"m 265 988 q 258 944 265 967 q 239 905 251 922 q 208 876 226 888 q 165 865 189 865 q 92 901 118 865 q 67 979 67 936 q 92 1058 67 1025 q 165 1090 117 1090 q 238 1061 210 1090 q 265 988 265 1032 m 474 988 q 467 944 474 967 q 447 905 460 922 q 416 876 435 888 q 374 865 397 865 q 301 901 326 865 q 275 979 275 936 q 300 1058 275 1025 q 374 1090 325 1090 q 446 1061 418 1090 q 474 988 474 1032 m 153 -47 q 65 -15 89 -47 q 42 76 42 17 q 41 364 42 221 q 40 651 40 507 q 42 699 40 674 q 52 748 44 725 q 76 787 60 771 q 119 807 92 803 q 276 824 197 818 q 435 829 356 829 q 464 816 450 829 q 488 785 478 803 q 505 747 499 767 q 511 715 511 728 q 509 679 511 697 q 500 647 507 661 q 480 623 493 632 q 444 611 467 614 l 256 596 l 263 510 l 399 510 q 457 481 442 510 q 472 415 472 453 q 470 383 472 401 q 462 347 468 364 q 444 317 456 329 q 414 304 433 304 l 263 304 l 271 181 l 346 181 q 370 190 361 181 q 388 210 379 199 q 409 231 397 222 q 439 240 421 240 q 511 217 483 240 q 539 147 539 193 q 534 58 539 94 q 511 0 529 22 q 460 -33 493 -22 q 371 -46 428 -44 q 306 -47 339 -47 q 240 -47 272 -47 l 153 -47 z "},"ì":{"ha":436,"x_min":7,"x_max":418,"o":"m 368 926 q 361 904 368 918 q 344 877 354 890 q 322 854 333 864 q 300 844 310 844 q 236 863 275 844 q 160 908 197 881 q 97 966 124 935 q 69 1024 69 997 q 79 1055 69 1039 q 103 1083 89 1071 q 135 1104 118 1096 q 167 1113 153 1113 q 217 1090 183 1113 q 285 1038 251 1068 q 343 976 318 1007 q 368 926 368 944 m 354 819 q 382 807 371 819 q 400 776 393 794 q 410 740 407 758 q 413 708 413 721 q 393 626 413 660 q 321 592 374 592 q 328 481 326 536 q 331 371 331 426 q 328 281 331 326 q 324 192 326 236 q 396 163 374 192 q 418 88 418 135 q 386 -6 418 28 q 293 -39 354 -39 q 234 -37 264 -39 q 175 -35 204 -36 q 110 -28 140 -33 q 58 -8 81 -22 q 24 31 36 6 q 13 99 13 57 q 34 174 13 156 q 108 193 56 193 q 106 248 106 221 q 106 303 106 275 q 108 443 106 374 q 110 583 110 513 q 29 606 51 583 q 7 688 7 629 q 9 724 7 703 q 19 765 11 744 q 39 799 26 785 q 72 813 51 813 l 354 819 z "},"í":{"ha":436,"x_min":7,"x_max":418,"o":"m 69 926 q 94 976 69 944 q 153 1038 119 1007 q 219 1090 186 1068 q 271 1113 253 1113 q 302 1104 285 1113 q 334 1083 319 1096 q 358 1055 349 1071 q 368 1024 368 1039 q 341 966 368 997 q 276 908 314 935 q 200 863 239 881 q 138 844 161 844 q 116 854 128 844 q 94 877 104 864 q 76 904 83 890 q 69 926 69 918 m 354 819 q 382 807 371 819 q 400 776 393 794 q 410 740 407 758 q 413 708 413 721 q 393 626 413 660 q 321 592 374 592 q 328 481 326 536 q 331 371 331 426 q 328 281 331 326 q 324 192 326 236 q 396 163 374 192 q 418 88 418 135 q 386 -6 418 28 q 293 -39 354 -39 q 234 -37 264 -39 q 175 -35 204 -36 q 110 -28 140 -33 q 58 -8 81 -22 q 24 31 36 6 q 13 99 13 57 q 34 174 13 156 q 108 193 56 193 q 106 248 106 221 q 106 303 106 275 q 108 443 106 374 q 110 583 110 513 q 29 606 51 583 q 7 688 7 629 q 9 724 7 703 q 19 765 11 744 q 39 799 26 785 q 72 813 51 813 l 354 819 z "},"î":{"ha":436,"x_min":7,"x_max":422,"o":"m 15 928 q 42 971 15 942 q 103 1030 68 1000 q 172 1082 138 1060 q 221 1104 206 1104 q 276 1086 242 1104 q 343 1042 311 1068 q 399 987 375 1017 q 422 933 422 957 q 414 903 422 919 q 392 872 406 886 q 364 847 379 857 q 335 838 349 838 q 306 847 322 838 q 275 868 290 856 q 246 894 260 881 q 225 915 232 907 q 201 893 217 907 q 167 865 185 879 q 132 841 149 851 q 104 831 115 831 q 76 841 92 831 q 47 867 60 851 q 24 899 33 882 q 15 928 15 915 m 354 819 q 382 807 371 819 q 400 776 393 794 q 410 740 407 758 q 413 708 413 721 q 393 626 413 660 q 321 592 374 592 q 328 481 326 536 q 331 371 331 426 q 328 281 331 326 q 324 192 326 236 q 396 163 374 192 q 418 88 418 135 q 386 -6 418 28 q 293 -39 354 -39 q 234 -37 264 -39 q 175 -35 204 -36 q 110 -28 140 -33 q 58 -8 81 -22 q 24 31 36 6 q 13 99 13 57 q 34 174 13 156 q 108 193 56 193 q 106 248 106 221 q 106 303 106 275 q 108 443 106 374 q 110 583 110 513 q 29 606 51 583 q 7 688 7 629 q 9 724 7 703 q 19 765 11 744 q 39 799 26 785 q 72 813 51 813 l 354 819 z "},"ï":{"ha":436,"x_min":7,"x_max":422,"o":"m 214 988 q 207 944 214 967 q 188 905 200 922 q 156 876 175 888 q 114 865 138 865 q 41 901 67 865 q 15 979 15 936 q 40 1058 15 1025 q 114 1090 65 1090 q 186 1061 158 1090 q 214 988 214 1032 m 422 988 q 415 944 422 967 q 396 905 408 922 q 365 876 383 888 q 322 865 346 865 q 249 901 275 865 q 224 979 224 936 q 249 1058 224 1025 q 322 1090 274 1090 q 394 1061 367 1090 q 422 988 422 1032 m 354 819 q 382 807 371 819 q 400 776 393 794 q 410 740 407 758 q 413 708 413 721 q 393 626 413 660 q 321 592 374 592 q 328 481 326 536 q 331 371 331 426 q 328 281 331 326 q 324 192 326 236 q 396 163 374 192 q 418 88 418 135 q 386 -6 418 28 q 293 -39 354 -39 q 234 -37 264 -39 q 175 -35 204 -36 q 110 -28 140 -33 q 58 -8 81 -22 q 24 31 36 6 q 13 99 13 57 q 34 174 13 156 q 108 193 56 193 q 106 248 106 221 q 106 303 106 275 q 108 443 106 374 q 110 583 110 513 q 29 606 51 583 q 7 688 7 629 q 9 724 7 703 q 19 765 11 744 q 39 799 26 785 q 72 813 51 813 l 354 819 z "},"ł":{"ha":497,"x_min":-54,"x_max":472,"o":"m 136 -33 q 69 -10 90 -33 q 42 47 49 13 q 37 121 35 82 q 39 192 39 160 q 21 189 28 189 q -8 203 6 189 q -33 238 -22 218 q -49 280 -43 258 q -54 314 -54 301 q -44 341 -54 331 q -19 359 -33 351 q 12 372 -4 367 q 39 382 28 376 l 39 607 q 38 656 39 625 q 40 717 38 686 q 52 775 43 749 q 79 813 61 801 q 120 825 97 824 q 163 826 143 826 q 217 821 196 826 q 249 801 238 815 q 265 766 261 788 q 269 711 269 744 q 270 597 269 653 q 271 483 271 542 q 283 488 278 486 q 296 490 289 490 q 328 476 314 490 q 351 442 342 463 q 365 401 360 422 q 369 367 369 381 q 365 340 369 354 q 347 321 361 326 l 269 288 q 263 236 267 264 q 250 188 260 208 q 326 203 285 193 q 401 213 368 213 q 438 197 424 213 q 459 158 451 181 q 469 110 467 135 q 472 69 472 86 q 462 10 472 31 q 432 -20 451 -11 q 387 -30 413 -29 q 329 -31 361 -31 q 265 -32 297 -31 q 200 -33 232 -33 l 136 -33 z "},"ñ":{"ha":708,"x_min":33,"x_max":669,"o":"m 500 1101 q 532 1090 519 1101 q 552 1063 544 1079 q 563 1029 560 1047 q 567 996 567 1011 q 559 942 567 969 q 535 891 551 914 q 497 854 519 868 q 443 840 474 840 q 388 850 413 840 q 345 872 364 860 q 313 894 326 885 q 289 904 300 904 q 280 894 283 904 q 270 872 276 885 q 252 850 264 860 q 219 840 240 840 q 183 851 197 840 q 159 880 168 863 q 147 917 150 897 q 143 956 143 938 q 153 1008 143 982 q 180 1056 163 1035 q 221 1090 197 1076 q 274 1103 244 1103 q 324 1092 300 1103 q 367 1068 347 1081 q 401 1044 388 1056 q 422 1033 415 1033 q 435 1044 429 1033 q 449 1067 440 1054 q 469 1091 457 1081 q 500 1101 481 1101 m 163 -42 q 81 -22 113 -42 q 42 50 49 -3 q 34 164 35 107 q 33 276 33 221 q 36 428 33 353 q 42 578 39 503 q 45 653 43 611 q 58 732 47 694 q 94 794 69 769 q 164 819 118 819 q 221 808 193 819 q 268 774 249 796 q 310 700 288 751 q 356 588 333 649 q 402 469 379 528 q 444 378 425 411 q 442 541 444 460 q 439 704 439 622 q 463 788 439 756 q 542 821 488 821 q 588 814 565 821 q 628 793 611 807 q 656 759 646 779 q 667 713 667 739 l 667 635 l 668 479 q 669 440 669 460 q 669 400 669 419 q 667 228 669 315 q 651 57 665 142 q 640 11 647 29 q 622 -17 633 -7 q 592 -31 610 -28 q 544 -35 574 -35 q 478 -9 510 -35 q 422 53 447 17 q 376 128 396 89 q 340 193 356 167 q 297 279 317 235 q 261 369 276 324 q 265 63 265 215 q 163 -42 265 -42 z "},"ò":{"ha":704,"x_min":28,"x_max":676,"o":"m 501 926 q 494 904 501 918 q 477 877 488 890 q 455 854 467 864 q 433 844 443 844 q 371 863 410 844 q 294 908 332 881 q 230 966 257 935 q 203 1024 203 997 q 213 1055 203 1039 q 237 1083 222 1071 q 269 1104 251 1096 q 300 1113 286 1113 q 351 1090 317 1113 q 418 1038 385 1068 q 476 976 451 1007 q 501 926 501 944 m 347 -43 q 177 -11 240 -43 q 81 78 114 21 q 38 213 47 135 q 28 385 28 292 q 39 567 28 483 q 86 710 50 650 q 190 805 122 771 q 369 839 257 839 q 527 803 467 839 q 621 709 588 768 q 665 573 654 650 q 676 414 676 496 q 667 236 676 319 q 623 91 657 153 q 524 -7 589 29 q 347 -43 458 -43 m 261 356 q 262 301 261 331 q 271 244 263 271 q 297 201 279 218 q 350 183 315 183 q 403 200 383 183 q 432 242 422 217 q 444 296 442 267 q 447 350 447 325 q 447 417 447 375 q 437 501 446 460 q 408 572 428 542 q 350 603 388 603 q 299 576 317 603 q 272 511 281 549 q 263 435 264 474 q 261 375 261 397 l 261 356 z "},"ó":{"ha":704,"x_min":28,"x_max":676,"o":"m 203 926 q 228 976 203 944 q 286 1038 253 1007 q 353 1090 319 1068 q 404 1113 388 1113 q 436 1104 419 1113 q 467 1083 453 1096 q 492 1055 482 1071 q 501 1024 501 1039 q 474 966 501 997 q 410 908 447 935 q 333 863 372 881 q 271 844 294 844 q 249 854 261 844 q 227 877 238 864 q 210 904 217 890 q 203 926 203 918 m 347 -43 q 177 -11 240 -43 q 81 78 114 21 q 38 213 47 135 q 28 385 28 292 q 39 567 28 483 q 86 710 50 650 q 190 805 122 771 q 369 839 257 839 q 527 803 467 839 q 621 709 588 768 q 665 573 654 650 q 676 414 676 496 q 667 236 676 319 q 623 91 657 153 q 524 -7 589 29 q 347 -43 458 -43 m 261 356 q 262 301 261 331 q 271 244 263 271 q 297 201 279 218 q 350 183 315 183 q 403 200 383 183 q 432 242 422 217 q 444 296 442 267 q 447 350 447 325 q 447 417 447 375 q 437 501 446 460 q 408 572 428 542 q 350 603 388 603 q 299 576 317 603 q 272 511 281 549 q 263 435 264 474 q 261 375 261 397 l 261 356 z "},"ô":{"ha":704,"x_min":28,"x_max":676,"o":"m 149 928 q 175 971 149 942 q 236 1030 201 1000 q 305 1082 271 1060 q 354 1104 339 1104 q 410 1086 376 1104 q 477 1042 444 1068 q 533 987 510 1017 q 556 933 556 957 q 547 903 556 919 q 526 872 539 886 q 497 847 513 857 q 468 838 482 838 q 441 847 457 838 q 410 868 425 856 q 381 894 394 881 q 358 915 367 907 q 335 893 351 907 q 301 865 319 879 q 266 841 283 851 q 238 831 249 831 q 209 841 225 831 q 180 867 193 851 q 158 899 167 882 q 149 928 149 915 m 347 -43 q 177 -11 240 -43 q 81 78 114 21 q 38 213 47 135 q 28 385 28 292 q 39 567 28 483 q 86 710 50 650 q 190 805 122 771 q 369 839 257 839 q 527 803 467 839 q 621 709 588 768 q 665 573 654 650 q 676 414 676 496 q 667 236 676 319 q 623 91 657 153 q 524 -7 589 29 q 347 -43 458 -43 m 261 356 q 262 301 261 331 q 271 244 263 271 q 297 201 279 218 q 350 183 315 183 q 403 200 383 183 q 432 242 422 217 q 444 296 442 267 q 447 350 447 325 q 447 417 447 375 q 437 501 446 460 q 408 572 428 542 q 350 603 388 603 q 299 576 317 603 q 272 511 281 549 q 263 435 264 474 q 261 375 261 397 l 261 356 z "},"õ":{"ha":704,"x_min":28,"x_max":676,"o":"m 497 1101 q 529 1090 517 1101 q 549 1063 542 1079 q 560 1029 557 1047 q 564 996 564 1011 q 556 942 564 969 q 533 891 549 914 q 494 854 517 868 q 440 840 471 840 q 385 850 410 840 q 343 872 361 860 q 311 894 325 885 q 286 904 297 904 q 277 894 281 904 q 267 872 274 885 q 249 850 261 860 q 217 840 238 840 q 180 851 194 840 q 156 880 165 863 q 144 917 147 897 q 140 956 140 938 q 150 1008 140 982 q 177 1056 160 1035 q 218 1090 194 1076 q 271 1103 242 1103 q 322 1092 297 1103 q 365 1068 346 1081 q 399 1044 385 1056 q 419 1033 414 1033 q 433 1044 426 1033 q 447 1067 439 1054 q 467 1091 456 1081 q 497 1101 479 1101 m 347 -43 q 177 -11 240 -43 q 81 78 114 21 q 38 213 47 135 q 28 385 28 292 q 39 567 28 483 q 86 710 50 650 q 190 805 122 771 q 369 839 257 839 q 527 803 467 839 q 621 709 588 768 q 665 573 654 650 q 676 414 676 496 q 667 236 676 319 q 623 91 657 153 q 524 -7 589 29 q 347 -43 458 -43 m 261 356 q 262 301 261 331 q 271 244 263 271 q 297 201 279 218 q 350 183 315 183 q 403 200 383 183 q 432 242 422 217 q 444 296 442 267 q 447 350 447 325 q 447 417 447 375 q 437 501 446 460 q 408 572 428 542 q 350 603 388 603 q 299 576 317 603 q 272 511 281 549 q 263 435 264 474 q 261 375 261 397 l 261 356 z "},"ö":{"ha":704,"x_min":28,"x_max":676,"o":"m 347 988 q 340 944 347 967 q 321 905 333 922 q 290 876 308 888 q 247 865 271 865 q 174 901 200 865 q 149 979 149 936 q 174 1058 149 1025 q 247 1090 199 1090 q 319 1061 292 1090 q 347 988 347 1032 m 556 988 q 549 944 556 967 q 529 905 542 922 q 498 876 517 888 q 456 865 479 865 q 383 901 408 865 q 357 979 357 936 q 382 1058 357 1025 q 456 1090 407 1090 q 528 1061 500 1090 q 556 988 556 1032 m 347 -43 q 177 -11 240 -43 q 81 78 114 21 q 38 213 47 135 q 28 385 28 292 q 39 567 28 483 q 86 710 50 650 q 190 805 122 771 q 369 839 257 839 q 527 803 467 839 q 621 709 588 768 q 665 573 654 650 q 676 414 676 496 q 667 236 676 319 q 623 91 657 153 q 524 -7 589 29 q 347 -43 458 -43 m 261 356 q 262 301 261 331 q 271 244 263 271 q 297 201 279 218 q 350 183 315 183 q 403 200 383 183 q 432 242 422 217 q 444 296 442 267 q 447 350 447 325 q 447 417 447 375 q 437 501 446 460 q 408 572 428 542 q 350 603 388 603 q 299 576 317 603 q 272 511 281 549 q 263 435 264 474 q 261 375 261 397 l 261 356 z "},"ø":{"ha":704,"x_min":28,"x_max":676,"o":"m 314 -43 q 299 -70 308 -56 q 279 -97 290 -85 q 254 -117 268 -108 q 224 -125 240 -125 q 186 -118 207 -125 q 147 -99 165 -111 q 117 -71 129 -87 q 106 -35 106 -54 q 110 -4 106 -24 q 119 26 115 15 q 69 102 88 58 q 42 195 51 146 q 30 294 32 244 q 28 385 28 343 q 39 567 28 483 q 86 710 50 650 q 190 805 122 771 q 369 839 257 839 l 390 839 q 407 868 397 851 q 429 899 417 885 q 457 924 442 914 q 490 935 472 935 q 533 928 511 935 q 572 910 554 922 q 600 879 589 897 q 611 838 611 861 q 605 793 611 815 q 592 750 599 771 q 636 676 619 717 q 662 590 653 635 q 674 501 671 546 q 676 414 676 456 q 667 236 676 319 q 623 91 657 153 q 524 -7 589 29 q 347 -43 458 -43 l 314 -43 m 261 356 q 262 301 261 331 q 271 244 263 271 q 297 201 279 218 q 350 183 315 183 q 403 200 383 183 q 432 242 422 217 q 444 296 442 267 q 447 350 447 325 q 447 417 447 375 q 437 501 446 460 q 408 572 428 542 q 350 603 388 603 q 299 576 317 603 q 272 511 281 549 q 263 435 264 474 q 261 375 261 397 l 261 356 z "},"œ":{"ha":951,"x_min":28,"x_max":951,"o":"m 347 -43 q 177 -11 240 -43 q 81 78 114 21 q 38 213 47 135 q 28 385 28 292 q 39 567 28 483 q 86 710 50 650 q 190 805 122 771 q 369 839 257 839 q 449 832 410 839 q 524 806 488 825 q 599 815 557 811 q 685 823 640 819 q 772 828 729 826 q 847 829 814 829 q 876 816 863 829 q 901 785 890 803 q 917 747 911 767 q 924 715 924 728 q 922 679 924 697 q 913 647 919 661 q 892 623 906 632 q 857 611 879 614 q 763 603 810 607 q 668 596 715 600 l 675 510 l 811 510 q 869 481 854 510 q 885 415 885 453 q 883 383 885 401 q 874 347 881 364 q 857 317 868 329 q 826 304 846 304 l 675 304 l 683 181 l 758 181 q 783 190 774 181 q 801 210 792 199 q 822 231 811 222 q 851 240 833 240 q 924 217 896 240 q 951 147 951 193 q 947 58 951 94 q 924 0 942 22 q 873 -33 906 -22 q 783 -46 840 -44 q 718 -47 751 -47 q 653 -47 685 -47 q 612 -48 635 -47 q 566 -48 589 -49 q 522 -42 543 -47 q 486 -24 501 -36 q 418 -39 453 -35 q 347 -43 383 -43 m 261 356 q 262 301 261 331 q 271 244 263 271 q 297 201 279 218 q 350 183 315 183 q 403 200 383 183 q 432 242 422 217 q 444 296 442 267 q 447 350 447 325 q 447 417 447 375 q 437 501 446 460 q 408 572 428 542 q 350 603 388 603 q 299 576 317 603 q 272 511 281 549 q 263 435 264 474 q 261 375 261 397 l 261 356 z "},"š":{"ha":642,"x_min":15,"x_max":621,"o":"m 117 326 q 159 315 144 326 q 183 288 174 304 q 199 251 192 271 q 221 214 207 231 q 259 186 235 197 q 325 175 283 175 q 343 176 332 175 q 365 181 354 178 q 383 190 375 183 q 390 207 390 197 q 374 219 390 210 q 339 240 358 229 q 301 260 319 250 q 278 271 282 269 q 184 323 229 296 q 105 385 139 350 q 50 465 71 419 q 29 572 29 510 q 49 675 29 628 q 102 758 68 722 q 182 815 136 793 q 282 843 228 838 q 244 871 271 850 q 189 917 217 892 q 140 966 161 942 q 118 1003 118 990 q 127 1032 118 1015 q 149 1065 136 1049 q 178 1091 163 1081 q 207 1101 194 1101 q 235 1091 218 1101 q 269 1067 251 1081 q 303 1040 288 1054 q 328 1018 319 1026 q 349 1039 335 1026 q 378 1064 363 1051 q 410 1085 394 1076 q 438 1094 426 1094 q 465 1085 450 1094 q 494 1060 481 1075 q 516 1029 507 1046 q 525 1000 525 1013 q 508 952 525 976 q 466 907 490 928 q 415 869 442 886 q 369 843 389 851 q 453 818 411 838 q 527 768 494 799 q 581 698 560 738 q 601 613 601 658 q 597 560 601 585 q 580 515 592 535 q 547 484 568 496 q 494 472 526 472 q 427 485 454 472 q 400 546 400 499 q 399 583 400 568 q 392 609 399 599 q 371 624 385 619 q 329 629 357 629 q 278 614 303 629 q 253 568 253 599 q 280 523 253 542 q 348 485 307 504 q 437 446 389 467 q 526 395 485 425 q 594 322 567 365 q 621 215 621 278 q 594 107 621 154 q 525 28 568 60 q 427 -20 482 -4 q 317 -36 372 -36 q 207 -15 261 -36 q 110 42 153 6 q 42 128 68 78 q 15 236 15 178 q 44 306 15 285 q 117 326 72 326 z "},"ù":{"ha":663,"x_min":38,"x_max":624,"o":"m 481 926 q 474 904 481 918 q 456 877 467 890 q 434 854 446 864 q 413 844 422 844 q 350 863 389 844 q 274 908 311 881 q 209 966 236 935 q 182 1024 182 997 q 192 1055 182 1039 q 216 1083 201 1071 q 248 1104 231 1096 q 279 1113 265 1113 q 330 1090 296 1113 q 397 1038 364 1068 q 456 976 431 1007 q 481 926 481 944 m 324 -43 q 194 -20 246 -43 q 109 44 142 3 q 63 144 76 86 q 46 274 49 203 q 40 460 43 368 q 38 647 38 553 q 40 713 38 682 q 53 767 42 744 q 90 804 65 790 q 157 818 114 818 q 244 785 219 818 q 269 693 269 751 l 269 296 q 272 269 269 283 q 281 242 275 254 q 298 221 288 229 q 325 213 308 213 q 378 238 360 213 q 406 299 397 264 q 415 372 414 335 q 417 433 417 410 q 416 490 417 461 q 415 546 415 518 l 413 622 q 412 678 413 650 q 411 735 411 707 q 442 799 411 779 q 513 818 472 818 q 576 792 554 818 q 609 730 599 767 q 622 653 619 693 q 624 583 624 613 q 624 465 624 524 q 621 346 624 406 q 609 192 619 264 q 568 69 599 121 q 480 -13 538 17 q 324 -43 422 -43 z "},"ú":{"ha":663,"x_min":38,"x_max":624,"o":"m 182 926 q 207 976 182 944 q 265 1038 232 1007 q 333 1090 299 1068 q 383 1113 367 1113 q 415 1104 399 1113 q 447 1083 432 1096 q 471 1055 461 1071 q 481 1024 481 1039 q 453 966 481 997 q 389 908 426 935 q 313 863 351 881 q 250 844 274 844 q 228 854 240 844 q 206 877 217 864 q 189 904 196 890 q 182 926 182 918 m 324 -43 q 194 -20 246 -43 q 109 44 142 3 q 63 144 76 86 q 46 274 49 203 q 40 460 43 368 q 38 647 38 553 q 40 713 38 682 q 53 767 42 744 q 90 804 65 790 q 157 818 114 818 q 244 785 219 818 q 269 693 269 751 l 269 296 q 272 269 269 283 q 281 242 275 254 q 298 221 288 229 q 325 213 308 213 q 378 238 360 213 q 406 299 397 264 q 415 372 414 335 q 417 433 417 410 q 416 490 417 461 q 415 546 415 518 l 413 622 q 412 678 413 650 q 411 735 411 707 q 442 799 411 779 q 513 818 472 818 q 576 792 554 818 q 609 730 599 767 q 622 653 619 693 q 624 583 624 613 q 624 465 624 524 q 621 346 624 406 q 609 192 619 264 q 568 69 599 121 q 480 -13 538 17 q 324 -43 422 -43 z "},"û":{"ha":663,"x_min":38,"x_max":624,"o":"m 128 928 q 154 971 128 942 q 215 1030 181 1000 q 284 1082 250 1060 q 333 1104 318 1104 q 390 1086 356 1104 q 456 1042 424 1068 q 512 987 489 1017 q 535 933 535 957 q 526 903 535 919 q 505 872 518 886 q 476 847 492 857 q 447 838 461 838 q 420 847 436 838 q 389 868 404 856 q 360 894 374 881 q 338 915 346 907 q 315 893 331 907 q 281 865 299 879 q 245 841 263 851 q 217 831 228 831 q 188 841 204 831 q 159 867 172 851 q 137 899 146 882 q 128 928 128 915 m 324 -43 q 194 -20 246 -43 q 109 44 142 3 q 63 144 76 86 q 46 274 49 203 q 40 460 43 368 q 38 647 38 553 q 40 713 38 682 q 53 767 42 744 q 90 804 65 790 q 157 818 114 818 q 244 785 219 818 q 269 693 269 751 l 269 296 q 272 269 269 283 q 281 242 275 254 q 298 221 288 229 q 325 213 308 213 q 378 238 360 213 q 406 299 397 264 q 415 372 414 335 q 417 433 417 410 q 416 490 417 461 q 415 546 415 518 l 413 622 q 412 678 413 650 q 411 735 411 707 q 442 799 411 779 q 513 818 472 818 q 576 792 554 818 q 609 730 599 767 q 622 653 619 693 q 624 583 624 613 q 624 465 624 524 q 621 346 624 406 q 609 192 619 264 q 568 69 599 121 q 480 -13 538 17 q 324 -43 422 -43 z "},"ü":{"ha":663,"x_min":38,"x_max":624,"o":"m 326 988 q 319 944 326 967 q 300 905 313 922 q 269 876 288 888 q 226 865 250 865 q 153 901 179 865 q 128 979 128 936 q 153 1058 128 1025 q 226 1090 178 1090 q 299 1061 271 1090 q 326 988 326 1032 m 535 988 q 528 944 535 967 q 508 905 521 922 q 477 876 496 888 q 435 865 458 865 q 362 901 388 865 q 336 979 336 936 q 361 1058 336 1025 q 435 1090 386 1090 q 507 1061 479 1090 q 535 988 535 1032 m 324 -43 q 194 -20 246 -43 q 109 44 142 3 q 63 144 76 86 q 46 274 49 203 q 40 460 43 368 q 38 647 38 553 q 40 713 38 682 q 53 767 42 744 q 90 804 65 790 q 157 818 114 818 q 244 785 219 818 q 269 693 269 751 l 269 296 q 272 269 269 283 q 281 242 275 254 q 298 221 288 229 q 325 213 308 213 q 378 238 360 213 q 406 299 397 264 q 415 372 414 335 q 417 433 417 410 q 416 490 417 461 q 415 546 415 518 l 413 622 q 412 678 413 650 q 411 735 411 707 q 442 799 411 779 q 513 818 472 818 q 576 792 554 818 q 609 730 599 767 q 622 653 619 693 q 624 583 624 613 q 624 465 624 524 q 621 346 624 406 q 609 192 619 264 q 568 69 599 121 q 480 -13 538 17 q 324 -43 422 -43 z "}}}
